<?xml version="1.0" encoding="utf-8"?>
<!-- Generator: Adobe Illustrator 22.0.0, SVG Export Plug-In . SVG Version: 6.00 Build 0)  -->
<svg version="1.1" id="Capa_1" xmlns="http://www.w3.org/2000/svg" xmlns:xlink="http://www.w3.org/1999/xlink" x="0px" y="0px"
	 viewBox="0 0 65.966 63.925" style="enable-background:new 0 0 65.966 63.925;" xml:space="preserve">
<style type="text/css">
	.st0{fill:#CEE0F1;}
	.st1{fill:#2F6AAA;}
	.st2{fill:#005384;}
	.st3{fill:#D3E5F6;}
	.st4{fill:#2F6AAF;}
</style>
<g>
	<path class="st2" d="M6.594,57.834c0,0.02-0.004,0.035-0.011,0.05c-0.007,0.014-0.022,0.025-0.046,0.035
		c-0.023,0.009-0.056,0.017-0.099,0.021c-0.042,0.005-0.098,0.008-0.168,0.008c-0.062,0-0.11-0.003-0.149-0.008
		c-0.039-0.004-0.069-0.012-0.093-0.022s-0.042-0.025-0.055-0.044s-0.024-0.042-0.033-0.07l-0.418-1.073
		c-0.049-0.122-0.101-0.234-0.152-0.337c-0.053-0.102-0.116-0.189-0.188-0.264s-0.158-0.132-0.256-0.173
		c-0.099-0.041-0.217-0.062-0.355-0.062H4.167v1.939c0,0.02-0.005,0.035-0.016,0.05c-0.011,0.014-0.027,0.025-0.05,0.033
		c-0.021,0.008-0.053,0.016-0.091,0.021c-0.039,0.006-0.087,0.009-0.146,0.009s-0.107-0.003-0.146-0.009
		c-0.038-0.006-0.069-0.014-0.093-0.021s-0.04-0.02-0.049-0.033c-0.01-0.015-0.015-0.03-0.015-0.05v-4.217
		c0-0.091,0.024-0.155,0.072-0.191s0.099-0.055,0.153-0.055h0.965c0.115,0,0.211,0.003,0.286,0.009
		c0.076,0.006,0.145,0.013,0.206,0.02c0.176,0.03,0.33,0.078,0.465,0.145c0.135,0.065,0.248,0.148,0.339,0.25
		c0.092,0.101,0.16,0.216,0.206,0.347c0.045,0.13,0.068,0.273,0.068,0.431c0,0.152-0.021,0.289-0.062,0.41s-0.101,0.228-0.178,0.32
		s-0.17,0.173-0.277,0.241s-0.229,0.125-0.361,0.173c0.075,0.032,0.143,0.074,0.203,0.124c0.062,0.051,0.118,0.111,0.171,0.182
		s0.103,0.151,0.149,0.243c0.047,0.091,0.093,0.194,0.14,0.31l0.408,1.003c0.032,0.085,0.054,0.144,0.063,0.178
		C6.589,57.789,6.594,57.815,6.594,57.834z M5.684,54.634c0-0.179-0.039-0.329-0.119-0.452c-0.079-0.123-0.213-0.212-0.4-0.266
		c-0.059-0.017-0.125-0.028-0.198-0.035c-0.074-0.008-0.17-0.011-0.29-0.011H4.167v1.534h0.59c0.159,0,0.297-0.019,0.413-0.058
		c0.115-0.039,0.212-0.093,0.289-0.162s0.134-0.15,0.171-0.244C5.666,54.846,5.684,54.745,5.684,54.634z"/>
	<path class="st2" d="M9.918,56.116c0,0.092-0.023,0.157-0.069,0.195C9.803,56.35,9.751,56.37,9.693,56.37H7.611
		c0,0.176,0.018,0.334,0.053,0.475c0.036,0.142,0.095,0.262,0.177,0.363c0.082,0.101,0.189,0.178,0.321,0.232
		c0.132,0.054,0.293,0.081,0.483,0.081c0.15,0,0.284-0.013,0.402-0.037c0.117-0.025,0.219-0.053,0.305-0.083
		s0.157-0.059,0.212-0.083c0.056-0.024,0.098-0.037,0.126-0.037c0.016,0,0.03,0.005,0.044,0.013
		c0.013,0.008,0.022,0.021,0.029,0.037c0.008,0.017,0.013,0.039,0.017,0.068c0.003,0.029,0.005,0.065,0.005,0.107
		c0,0.03-0.001,0.057-0.004,0.079c-0.002,0.022-0.005,0.042-0.009,0.06c-0.003,0.018-0.009,0.034-0.017,0.048
		c-0.009,0.015-0.02,0.027-0.032,0.041c-0.013,0.013-0.051,0.033-0.114,0.063c-0.063,0.03-0.145,0.059-0.245,0.087
		c-0.102,0.028-0.218,0.053-0.35,0.075c-0.133,0.022-0.273,0.033-0.423,0.033c-0.261,0-0.488-0.036-0.684-0.108
		c-0.195-0.073-0.359-0.181-0.493-0.324c-0.134-0.143-0.234-0.322-0.302-0.538c-0.068-0.216-0.103-0.467-0.103-0.754
		c0-0.271,0.035-0.517,0.105-0.733s0.172-0.401,0.304-0.553c0.133-0.151,0.292-0.268,0.479-0.349s0.396-0.121,0.629-0.121
		c0.248,0,0.459,0.04,0.634,0.119c0.174,0.08,0.317,0.188,0.43,0.322s0.195,0.294,0.248,0.476s0.079,0.376,0.079,0.582V56.116z
		 M9.335,55.944c0.007-0.306-0.061-0.545-0.203-0.718c-0.143-0.174-0.354-0.261-0.635-0.261c-0.144,0-0.27,0.026-0.378,0.081
		C8.011,55.1,7.92,55.172,7.848,55.261c-0.073,0.089-0.13,0.192-0.17,0.312c-0.04,0.118-0.063,0.242-0.067,0.371H9.335z"/>
	<path class="st2" d="M12.892,57.355c0,0.04-0.002,0.074-0.004,0.104c-0.002,0.03-0.007,0.055-0.013,0.074
		c-0.006,0.021-0.013,0.038-0.021,0.053c-0.009,0.016-0.027,0.038-0.057,0.067s-0.079,0.065-0.148,0.108
		c-0.07,0.044-0.149,0.083-0.237,0.116c-0.088,0.034-0.184,0.062-0.286,0.083c-0.104,0.021-0.21,0.031-0.319,0.031
		c-0.228,0-0.429-0.037-0.604-0.112s-0.322-0.185-0.44-0.329s-0.209-0.321-0.271-0.531c-0.063-0.21-0.093-0.452-0.093-0.727
		c0-0.313,0.038-0.58,0.113-0.805c0.076-0.224,0.181-0.407,0.313-0.551c0.132-0.144,0.287-0.249,0.467-0.318
		c0.179-0.069,0.372-0.104,0.581-0.104c0.101,0,0.198,0.01,0.293,0.028c0.095,0.02,0.182,0.044,0.262,0.074
		c0.079,0.03,0.15,0.065,0.213,0.105c0.062,0.04,0.106,0.074,0.135,0.103c0.028,0.027,0.048,0.05,0.058,0.066
		c0.011,0.017,0.02,0.036,0.026,0.059c0.007,0.021,0.012,0.047,0.015,0.075c0.002,0.028,0.003,0.063,0.003,0.105
		c0,0.092-0.011,0.155-0.031,0.192c-0.021,0.036-0.047,0.054-0.077,0.054c-0.035,0-0.076-0.019-0.121-0.058
		c-0.046-0.039-0.104-0.081-0.174-0.129c-0.07-0.047-0.155-0.089-0.255-0.128s-0.217-0.059-0.353-0.059
		c-0.279,0-0.492,0.107-0.642,0.322c-0.148,0.215-0.223,0.526-0.223,0.935c0,0.204,0.02,0.383,0.058,0.537
		c0.039,0.153,0.096,0.282,0.171,0.385c0.075,0.104,0.167,0.181,0.275,0.231c0.109,0.05,0.233,0.075,0.374,0.075
		c0.134,0,0.251-0.021,0.352-0.063s0.188-0.088,0.262-0.139c0.073-0.051,0.136-0.097,0.186-0.138
		c0.051-0.041,0.09-0.062,0.118-0.062c0.016,0,0.03,0.005,0.042,0.015c0.012,0.009,0.021,0.024,0.029,0.047
		c0.009,0.022,0.015,0.051,0.018,0.085C12.89,57.268,12.892,57.308,12.892,57.355z"/>
	<path class="st2" d="M16.188,57.838c0,0.019-0.004,0.034-0.012,0.048c-0.009,0.013-0.022,0.023-0.044,0.033
		c-0.021,0.009-0.049,0.017-0.083,0.021c-0.033,0.005-0.075,0.008-0.124,0.008c-0.054,0-0.098-0.003-0.132-0.008
		c-0.034-0.004-0.061-0.012-0.081-0.021c-0.02-0.01-0.033-0.021-0.04-0.033c-0.007-0.014-0.011-0.029-0.011-0.048v-0.419
		c-0.18,0.199-0.358,0.345-0.533,0.437c-0.176,0.092-0.354,0.137-0.534,0.137c-0.211,0-0.388-0.035-0.532-0.105
		c-0.144-0.07-0.26-0.166-0.35-0.286c-0.089-0.121-0.152-0.262-0.19-0.423c-0.039-0.16-0.059-0.356-0.059-0.586V54.67
		c0-0.019,0.004-0.034,0.013-0.048c0.008-0.013,0.023-0.024,0.047-0.035c0.023-0.01,0.054-0.018,0.092-0.021
		c0.037-0.004,0.084-0.006,0.141-0.006c0.056,0,0.103,0.002,0.14,0.006c0.038,0.003,0.067,0.011,0.09,0.021
		c0.022,0.011,0.038,0.022,0.048,0.035c0.009,0.014,0.014,0.029,0.014,0.048v1.845c0,0.186,0.014,0.334,0.04,0.445
		c0.027,0.111,0.068,0.206,0.123,0.285c0.056,0.078,0.125,0.14,0.209,0.183c0.085,0.043,0.183,0.065,0.295,0.065
		c0.146,0,0.29-0.052,0.434-0.155c0.145-0.104,0.297-0.255,0.459-0.454V54.67c0-0.019,0.004-0.034,0.012-0.048
		c0.009-0.013,0.024-0.024,0.048-0.035c0.023-0.01,0.053-0.018,0.089-0.021c0.037-0.004,0.084-0.006,0.143-0.006
		c0.057,0,0.104,0.002,0.141,0.006c0.037,0.003,0.066,0.011,0.088,0.021c0.021,0.011,0.037,0.022,0.047,0.035
		c0.011,0.014,0.016,0.029,0.016,0.048V57.838z"/>
	<path class="st2" d="M19.987,56.205c0,0.276-0.029,0.525-0.089,0.746s-0.147,0.407-0.264,0.561
		c-0.116,0.154-0.259,0.272-0.43,0.356c-0.171,0.083-0.367,0.124-0.587,0.124c-0.094,0-0.181-0.009-0.26-0.027
		c-0.08-0.02-0.157-0.049-0.233-0.088c-0.076-0.04-0.151-0.091-0.227-0.151c-0.075-0.062-0.154-0.133-0.239-0.215v1.584
		c0,0.019-0.004,0.035-0.014,0.049s-0.024,0.025-0.046,0.035c-0.021,0.01-0.05,0.017-0.088,0.021
		c-0.037,0.005-0.085,0.007-0.144,0.007c-0.057,0-0.104-0.002-0.141-0.007s-0.067-0.012-0.09-0.021
		c-0.021-0.01-0.037-0.021-0.045-0.035c-0.009-0.014-0.013-0.03-0.013-0.049V54.67c0-0.021,0.004-0.038,0.011-0.051
		s0.021-0.024,0.042-0.033c0.021-0.01,0.048-0.017,0.081-0.02c0.032-0.004,0.072-0.006,0.119-0.006c0.049,0,0.09,0.002,0.121,0.006
		c0.031,0.003,0.058,0.01,0.079,0.02c0.021,0.009,0.036,0.021,0.044,0.033s0.013,0.029,0.013,0.051v0.426
		c0.096-0.099,0.188-0.184,0.277-0.257c0.089-0.072,0.178-0.133,0.269-0.182c0.09-0.048,0.183-0.084,0.277-0.108
		c0.095-0.025,0.194-0.037,0.3-0.037c0.229,0,0.425,0.045,0.587,0.134c0.161,0.089,0.293,0.211,0.395,0.366
		c0.102,0.154,0.177,0.335,0.224,0.54C19.963,55.756,19.987,55.974,19.987,56.205z M19.387,56.271c0-0.162-0.013-0.318-0.037-0.47
		c-0.025-0.151-0.067-0.286-0.128-0.403c-0.06-0.117-0.141-0.211-0.241-0.281c-0.102-0.07-0.228-0.105-0.379-0.105
		c-0.075,0-0.149,0.011-0.223,0.033c-0.072,0.022-0.146,0.058-0.222,0.105c-0.076,0.048-0.154,0.111-0.237,0.19
		c-0.082,0.078-0.169,0.175-0.262,0.29v1.26c0.16,0.195,0.313,0.344,0.456,0.447s0.295,0.155,0.452,0.155
		c0.146,0,0.271-0.035,0.376-0.105c0.105-0.071,0.19-0.165,0.255-0.282s0.112-0.248,0.144-0.394
		C19.371,56.566,19.387,56.419,19.387,56.271z"/>
	<path class="st2" d="M23.375,56.116c0,0.092-0.023,0.157-0.069,0.195c-0.046,0.039-0.098,0.059-0.156,0.059h-2.082
		c0,0.176,0.018,0.334,0.053,0.475c0.036,0.142,0.095,0.262,0.177,0.363c0.082,0.101,0.189,0.178,0.321,0.232
		c0.132,0.054,0.293,0.081,0.483,0.081c0.15,0,0.284-0.013,0.402-0.037c0.117-0.025,0.219-0.053,0.305-0.083
		s0.157-0.059,0.212-0.083c0.056-0.024,0.098-0.037,0.126-0.037c0.016,0,0.03,0.005,0.044,0.013
		c0.013,0.008,0.022,0.021,0.029,0.037c0.008,0.017,0.013,0.039,0.017,0.068c0.003,0.029,0.005,0.065,0.005,0.107
		c0,0.03-0.001,0.057-0.004,0.079c-0.002,0.022-0.005,0.042-0.009,0.06c-0.003,0.018-0.009,0.034-0.017,0.048
		c-0.009,0.015-0.02,0.027-0.032,0.041c-0.013,0.013-0.051,0.033-0.114,0.063c-0.063,0.03-0.145,0.059-0.245,0.087
		c-0.102,0.028-0.218,0.053-0.35,0.075c-0.133,0.022-0.273,0.033-0.423,0.033c-0.261,0-0.488-0.036-0.684-0.108
		c-0.195-0.073-0.359-0.181-0.493-0.324c-0.134-0.143-0.234-0.322-0.302-0.538c-0.068-0.216-0.103-0.467-0.103-0.754
		c0-0.271,0.035-0.517,0.105-0.733s0.172-0.401,0.304-0.553c0.133-0.151,0.292-0.268,0.479-0.349s0.396-0.121,0.629-0.121
		c0.248,0,0.459,0.04,0.634,0.119c0.174,0.08,0.317,0.188,0.43,0.322s0.195,0.294,0.248,0.476s0.079,0.376,0.079,0.582V56.116z
		 M22.792,55.944c0.007-0.306-0.061-0.545-0.203-0.718c-0.143-0.174-0.354-0.261-0.635-0.261c-0.144,0-0.27,0.026-0.378,0.081
		c-0.108,0.054-0.199,0.125-0.271,0.215c-0.073,0.089-0.13,0.192-0.17,0.312c-0.04,0.118-0.063,0.242-0.067,0.371H22.792z"/>
	<path class="st2" d="M25.924,54.878c0,0.052-0.002,0.095-0.004,0.13s-0.007,0.063-0.014,0.083c-0.008,0.02-0.017,0.035-0.026,0.046
		c-0.011,0.01-0.025,0.016-0.044,0.016c-0.02,0-0.042-0.006-0.068-0.016c-0.027-0.011-0.058-0.021-0.092-0.032
		s-0.072-0.021-0.114-0.029c-0.042-0.01-0.088-0.015-0.137-0.015c-0.059,0-0.116,0.012-0.172,0.035
		c-0.057,0.023-0.115,0.063-0.178,0.116c-0.062,0.054-0.127,0.126-0.194,0.215c-0.068,0.089-0.144,0.198-0.226,0.327v2.084
		c0,0.019-0.004,0.034-0.014,0.048c-0.01,0.013-0.024,0.023-0.046,0.033c-0.021,0.009-0.05,0.017-0.088,0.021
		c-0.037,0.005-0.085,0.008-0.144,0.008c-0.057,0-0.104-0.003-0.141-0.008c-0.037-0.004-0.067-0.012-0.09-0.021
		c-0.021-0.01-0.037-0.021-0.045-0.033c-0.009-0.014-0.013-0.029-0.013-0.048V54.67c0-0.019,0.004-0.034,0.011-0.048
		c0.007-0.013,0.021-0.024,0.042-0.035c0.021-0.01,0.048-0.018,0.081-0.021c0.032-0.004,0.076-0.006,0.13-0.006
		c0.052,0,0.094,0.002,0.128,0.006c0.034,0.003,0.061,0.011,0.079,0.021c0.019,0.011,0.032,0.022,0.04,0.035
		c0.009,0.014,0.013,0.029,0.013,0.048v0.461c0.087-0.127,0.168-0.229,0.244-0.31s0.147-0.143,0.216-0.188
		c0.067-0.046,0.135-0.077,0.202-0.095c0.066-0.018,0.134-0.026,0.201-0.026c0.031,0,0.065,0.002,0.104,0.005
		c0.038,0.004,0.078,0.011,0.121,0.02c0.042,0.01,0.08,0.021,0.113,0.032c0.034,0.012,0.059,0.023,0.072,0.035
		c0.015,0.012,0.023,0.022,0.028,0.033s0.009,0.023,0.013,0.04c0.003,0.017,0.005,0.041,0.007,0.072
		C25.923,54.781,25.924,54.823,25.924,54.878z"/>
	<path class="st2" d="M28.784,57.84c0,0.028-0.01,0.05-0.028,0.063c-0.019,0.015-0.044,0.025-0.077,0.032
		c-0.032,0.007-0.08,0.011-0.144,0.011c-0.062,0-0.109-0.004-0.146-0.011c-0.037-0.007-0.063-0.018-0.079-0.032
		c-0.017-0.014-0.025-0.035-0.025-0.063v-0.316c-0.138,0.147-0.292,0.263-0.461,0.345c-0.17,0.082-0.35,0.123-0.539,0.123
		c-0.167,0-0.317-0.021-0.451-0.064c-0.135-0.044-0.25-0.106-0.345-0.188s-0.168-0.183-0.221-0.303s-0.079-0.256-0.079-0.408
		c0-0.179,0.036-0.333,0.108-0.465c0.073-0.131,0.177-0.24,0.313-0.327s0.303-0.152,0.499-0.195
		c0.196-0.044,0.418-0.065,0.664-0.065h0.435v-0.246c0-0.122-0.013-0.23-0.038-0.324c-0.026-0.094-0.067-0.172-0.125-0.233
		c-0.058-0.063-0.132-0.109-0.223-0.142c-0.092-0.031-0.204-0.047-0.337-0.047c-0.144,0-0.271,0.017-0.385,0.051
		s-0.213,0.071-0.299,0.112c-0.085,0.041-0.156,0.079-0.214,0.113s-0.101,0.051-0.128,0.051c-0.02,0-0.035-0.005-0.05-0.014
		c-0.014-0.01-0.026-0.023-0.036-0.043c-0.011-0.019-0.019-0.042-0.023-0.072c-0.005-0.029-0.007-0.062-0.007-0.097
		c0-0.059,0.004-0.104,0.013-0.139c0.008-0.034,0.027-0.066,0.06-0.097c0.031-0.03,0.086-0.066,0.163-0.107s0.166-0.079,0.267-0.112
		c0.101-0.034,0.211-0.063,0.33-0.085s0.24-0.033,0.362-0.033c0.227,0,0.42,0.025,0.579,0.077s0.288,0.128,0.386,0.228
		c0.099,0.1,0.17,0.223,0.215,0.371c0.044,0.147,0.066,0.32,0.066,0.518V57.84z M28.208,56.394h-0.495
		c-0.159,0-0.297,0.014-0.414,0.041c-0.117,0.026-0.214,0.066-0.291,0.119s-0.135,0.116-0.171,0.19
		c-0.036,0.073-0.055,0.159-0.055,0.255c0,0.164,0.053,0.295,0.157,0.393c0.104,0.098,0.249,0.146,0.437,0.146
		c0.152,0,0.293-0.039,0.423-0.116c0.131-0.078,0.267-0.196,0.409-0.355V56.394z"/>
	<path class="st2" d="M31.517,54.878c0,0.052-0.002,0.095-0.004,0.13s-0.007,0.063-0.014,0.083c-0.008,0.02-0.017,0.035-0.026,0.046
		c-0.011,0.01-0.025,0.016-0.044,0.016c-0.02,0-0.042-0.006-0.068-0.016c-0.027-0.011-0.058-0.021-0.092-0.032
		s-0.072-0.021-0.114-0.029c-0.042-0.01-0.088-0.015-0.137-0.015c-0.059,0-0.116,0.012-0.172,0.035
		c-0.057,0.023-0.115,0.063-0.178,0.116c-0.062,0.054-0.127,0.126-0.194,0.215c-0.068,0.089-0.144,0.198-0.226,0.327v2.084
		c0,0.019-0.004,0.034-0.014,0.048c-0.01,0.013-0.024,0.023-0.046,0.033c-0.021,0.009-0.05,0.017-0.088,0.021
		c-0.037,0.005-0.085,0.008-0.144,0.008c-0.057,0-0.104-0.003-0.141-0.008c-0.037-0.004-0.067-0.012-0.09-0.021
		c-0.021-0.01-0.037-0.021-0.045-0.033c-0.009-0.014-0.013-0.029-0.013-0.048V54.67c0-0.019,0.004-0.034,0.011-0.048
		c0.007-0.013,0.021-0.024,0.042-0.035c0.021-0.01,0.048-0.018,0.081-0.021c0.032-0.004,0.076-0.006,0.13-0.006
		c0.052,0,0.094,0.002,0.128,0.006c0.034,0.003,0.061,0.011,0.079,0.021c0.019,0.011,0.032,0.022,0.04,0.035
		c0.009,0.014,0.013,0.029,0.013,0.048v0.461c0.087-0.127,0.168-0.229,0.244-0.31s0.147-0.143,0.216-0.188
		c0.067-0.046,0.135-0.077,0.202-0.095c0.066-0.018,0.134-0.026,0.201-0.026c0.031,0,0.065,0.002,0.104,0.005
		c0.038,0.004,0.078,0.011,0.121,0.02c0.042,0.01,0.08,0.021,0.113,0.032c0.034,0.012,0.059,0.023,0.072,0.035
		c0.015,0.012,0.023,0.022,0.028,0.033s0.009,0.023,0.013,0.04c0.003,0.017,0.005,0.041,0.007,0.072
		C31.516,54.781,31.517,54.823,31.517,54.878z"/>
	<path class="st2" d="M36.543,57.281c0,0.038-0.001,0.071-0.003,0.099c-0.003,0.028-0.007,0.053-0.013,0.074
		s-0.014,0.04-0.022,0.057c-0.01,0.017-0.026,0.036-0.05,0.06s-0.072,0.06-0.147,0.107c-0.074,0.048-0.168,0.095-0.279,0.141
		c-0.11,0.046-0.238,0.085-0.382,0.116c-0.145,0.031-0.302,0.048-0.473,0.048c-0.295,0-0.562-0.05-0.799-0.148
		c-0.238-0.099-0.44-0.244-0.607-0.437c-0.168-0.192-0.297-0.43-0.387-0.713c-0.09-0.282-0.135-0.607-0.135-0.977
		c0-0.378,0.049-0.714,0.146-1.01s0.233-0.546,0.409-0.752c0.176-0.205,0.386-0.361,0.63-0.47c0.245-0.107,0.516-0.162,0.813-0.162
		c0.131,0,0.259,0.013,0.383,0.037s0.238,0.056,0.344,0.094c0.105,0.037,0.199,0.081,0.281,0.13c0.082,0.05,0.139,0.09,0.17,0.121
		c0.032,0.032,0.052,0.057,0.062,0.072c0.01,0.017,0.017,0.036,0.022,0.059s0.011,0.049,0.015,0.079
		c0.003,0.03,0.005,0.066,0.005,0.109c0,0.047-0.002,0.087-0.007,0.119c-0.005,0.033-0.012,0.061-0.021,0.083
		c-0.009,0.022-0.021,0.039-0.033,0.049c-0.013,0.011-0.029,0.017-0.048,0.017c-0.033,0-0.079-0.023-0.138-0.069
		s-0.135-0.096-0.228-0.151c-0.093-0.055-0.206-0.105-0.339-0.151s-0.292-0.068-0.479-0.068c-0.202,0-0.387,0.04-0.553,0.121
		s-0.308,0.2-0.425,0.357c-0.118,0.157-0.209,0.35-0.273,0.576c-0.065,0.226-0.098,0.484-0.098,0.775
		c0,0.289,0.031,0.544,0.094,0.766s0.151,0.407,0.269,0.557c0.116,0.148,0.259,0.262,0.429,0.338
		c0.169,0.076,0.361,0.114,0.575,0.114c0.182,0,0.34-0.022,0.475-0.067c0.136-0.044,0.251-0.094,0.347-0.149
		c0.095-0.055,0.173-0.104,0.234-0.149s0.109-0.067,0.145-0.067c0.017,0,0.031,0.004,0.043,0.011
		c0.012,0.008,0.021,0.021,0.028,0.041c0.007,0.02,0.012,0.047,0.016,0.082C36.541,57.182,36.543,57.227,36.543,57.281z"/>
	<path class="st2" d="M40.036,56.218c0,0.258-0.034,0.496-0.102,0.713c-0.068,0.217-0.17,0.404-0.304,0.562
		c-0.135,0.157-0.304,0.279-0.506,0.367c-0.203,0.088-0.438,0.132-0.704,0.132c-0.26,0-0.486-0.038-0.68-0.115
		c-0.193-0.078-0.354-0.19-0.482-0.338C37.13,57.39,37.033,57.211,36.971,57c-0.063-0.211-0.095-0.45-0.095-0.718
		c0-0.258,0.033-0.496,0.1-0.713s0.167-0.404,0.302-0.562s0.303-0.279,0.504-0.366s0.437-0.13,0.706-0.13
		c0.26,0,0.486,0.038,0.68,0.116c0.193,0.077,0.354,0.189,0.482,0.338c0.129,0.147,0.226,0.327,0.29,0.538
		C40.004,55.715,40.036,55.953,40.036,56.218z M39.436,56.257c0-0.172-0.016-0.334-0.048-0.486s-0.085-0.286-0.158-0.401
		c-0.073-0.114-0.172-0.206-0.297-0.272c-0.126-0.067-0.281-0.101-0.468-0.101c-0.173,0-0.321,0.03-0.445,0.092
		c-0.124,0.061-0.226,0.147-0.306,0.259c-0.081,0.111-0.141,0.243-0.18,0.396c-0.039,0.153-0.059,0.319-0.059,0.5
		c0,0.174,0.017,0.337,0.048,0.489c0.032,0.152,0.086,0.286,0.16,0.399c0.074,0.114,0.174,0.204,0.299,0.271
		c0.126,0.066,0.281,0.1,0.468,0.1c0.17,0,0.318-0.03,0.443-0.091c0.125-0.062,0.228-0.146,0.308-0.257
		c0.081-0.11,0.14-0.242,0.178-0.395S39.436,56.44,39.436,56.257z"/>
	<path class="st2" d="M43.432,57.838c0,0.019-0.005,0.034-0.015,0.048c-0.009,0.013-0.024,0.023-0.045,0.033
		c-0.021,0.009-0.051,0.017-0.088,0.021c-0.038,0.005-0.084,0.008-0.141,0.008c-0.059,0-0.106-0.003-0.144-0.008
		c-0.038-0.004-0.067-0.012-0.088-0.021c-0.021-0.01-0.036-0.021-0.046-0.033c-0.01-0.014-0.014-0.029-0.014-0.048v-1.855
		c0-0.181-0.015-0.326-0.043-0.436c-0.027-0.11-0.068-0.206-0.122-0.285c-0.055-0.08-0.124-0.142-0.209-0.184
		c-0.086-0.042-0.185-0.063-0.297-0.063c-0.146,0-0.29,0.052-0.436,0.155s-0.298,0.255-0.457,0.454v2.214
		c0,0.019-0.004,0.034-0.014,0.048c-0.01,0.013-0.024,0.023-0.046,0.033c-0.021,0.009-0.05,0.017-0.088,0.021
		c-0.037,0.005-0.085,0.008-0.144,0.008c-0.057,0-0.104-0.003-0.141-0.008c-0.037-0.004-0.067-0.012-0.09-0.021
		c-0.021-0.01-0.037-0.021-0.045-0.033c-0.009-0.014-0.013-0.029-0.013-0.048V54.67c0-0.019,0.004-0.034,0.011-0.048
		c0.007-0.013,0.021-0.024,0.042-0.035c0.021-0.01,0.048-0.018,0.081-0.021c0.032-0.004,0.076-0.006,0.13-0.006
		c0.052,0,0.094,0.002,0.128,0.006c0.034,0.003,0.061,0.011,0.079,0.021c0.019,0.011,0.032,0.022,0.04,0.035
		c0.009,0.014,0.013,0.029,0.013,0.048v0.419c0.178-0.199,0.355-0.346,0.532-0.438s0.354-0.139,0.535-0.139
		c0.211,0,0.388,0.036,0.532,0.107c0.144,0.071,0.26,0.167,0.35,0.287c0.089,0.119,0.152,0.26,0.191,0.42
		c0.038,0.161,0.058,0.354,0.058,0.579V57.838z"/>
	<path class="st2" d="M45.951,57.605c0,0.068-0.005,0.122-0.014,0.162c-0.01,0.04-0.023,0.069-0.043,0.088
		c-0.019,0.019-0.047,0.036-0.084,0.053s-0.08,0.03-0.128,0.04c-0.048,0.011-0.099,0.02-0.153,0.026
		c-0.054,0.008-0.107,0.011-0.161,0.011c-0.164,0-0.305-0.021-0.421-0.064c-0.117-0.044-0.214-0.109-0.288-0.197
		c-0.075-0.088-0.13-0.199-0.163-0.335c-0.034-0.135-0.052-0.294-0.052-0.477V55.06h-0.442c-0.035,0-0.063-0.019-0.084-0.057
		c-0.021-0.037-0.031-0.098-0.031-0.183c0-0.045,0.003-0.082,0.009-0.112c0.006-0.031,0.013-0.056,0.022-0.076
		c0.01-0.02,0.021-0.034,0.037-0.042c0.015-0.008,0.032-0.013,0.051-0.013h0.438v-0.753c0-0.017,0.005-0.031,0.013-0.046
		c0.008-0.014,0.023-0.026,0.046-0.037c0.021-0.011,0.052-0.018,0.089-0.022c0.038-0.005,0.085-0.007,0.141-0.007
		c0.059,0,0.106,0.002,0.145,0.007c0.037,0.005,0.066,0.012,0.088,0.022c0.021,0.011,0.036,0.023,0.045,0.037
		c0.01,0.015,0.015,0.029,0.015,0.046v0.753h0.811c0.019,0,0.035,0.005,0.05,0.013c0.014,0.008,0.026,0.022,0.036,0.042
		c0.011,0.021,0.019,0.045,0.023,0.076c0.005,0.03,0.007,0.067,0.007,0.112c0,0.085-0.011,0.146-0.031,0.183
		c-0.021,0.038-0.05,0.057-0.085,0.057h-0.811v1.767c0,0.219,0.032,0.384,0.097,0.495c0.063,0.111,0.18,0.167,0.346,0.167
		c0.054,0,0.102-0.005,0.144-0.016s0.08-0.021,0.112-0.033c0.033-0.012,0.062-0.023,0.085-0.034c0.022-0.01,0.044-0.016,0.063-0.016
		c0.012,0,0.023,0.003,0.033,0.009c0.011,0.006,0.02,0.018,0.025,0.033c0.006,0.017,0.011,0.039,0.016,0.067
		S45.951,57.563,45.951,57.605z"/>
	<path class="st2" d="M48.385,54.878c0,0.052-0.002,0.095-0.004,0.13s-0.007,0.063-0.014,0.083c-0.008,0.02-0.017,0.035-0.026,0.046
		c-0.011,0.01-0.025,0.016-0.044,0.016c-0.02,0-0.042-0.006-0.068-0.016c-0.027-0.011-0.058-0.021-0.092-0.032
		s-0.072-0.021-0.114-0.029c-0.042-0.01-0.088-0.015-0.137-0.015c-0.059,0-0.116,0.012-0.172,0.035
		c-0.057,0.023-0.115,0.063-0.178,0.116c-0.062,0.054-0.127,0.126-0.194,0.215c-0.068,0.089-0.144,0.198-0.226,0.327v2.084
		c0,0.019-0.004,0.034-0.014,0.048c-0.01,0.013-0.024,0.023-0.046,0.033c-0.021,0.009-0.05,0.017-0.088,0.021
		c-0.037,0.005-0.085,0.008-0.144,0.008c-0.057,0-0.104-0.003-0.141-0.008c-0.037-0.004-0.067-0.012-0.09-0.021
		c-0.021-0.01-0.037-0.021-0.045-0.033c-0.009-0.014-0.013-0.029-0.013-0.048V54.67c0-0.019,0.004-0.034,0.011-0.048
		c0.007-0.013,0.021-0.024,0.042-0.035c0.021-0.01,0.048-0.018,0.081-0.021c0.032-0.004,0.076-0.006,0.13-0.006
		c0.052,0,0.094,0.002,0.128,0.006c0.034,0.003,0.061,0.011,0.079,0.021c0.019,0.011,0.032,0.022,0.04,0.035
		c0.009,0.014,0.013,0.029,0.013,0.048v0.461c0.087-0.127,0.168-0.229,0.244-0.31s0.147-0.143,0.216-0.188
		c0.067-0.046,0.135-0.077,0.202-0.095c0.066-0.018,0.134-0.026,0.201-0.026c0.031,0,0.065,0.002,0.104,0.005
		c0.038,0.004,0.078,0.011,0.121,0.02c0.042,0.01,0.08,0.021,0.113,0.032c0.034,0.012,0.059,0.023,0.072,0.035
		c0.015,0.012,0.023,0.022,0.028,0.033s0.009,0.023,0.013,0.04c0.003,0.017,0.005,0.041,0.007,0.072
		C48.384,54.781,48.385,54.823,48.385,54.878z"/>
	<path class="st2" d="M51.245,57.84c0,0.028-0.01,0.05-0.028,0.063c-0.019,0.015-0.044,0.025-0.077,0.032
		c-0.032,0.007-0.08,0.011-0.144,0.011c-0.062,0-0.109-0.004-0.146-0.011c-0.037-0.007-0.063-0.018-0.079-0.032
		c-0.017-0.014-0.025-0.035-0.025-0.063v-0.316c-0.138,0.147-0.292,0.263-0.461,0.345c-0.17,0.082-0.35,0.123-0.539,0.123
		c-0.167,0-0.317-0.021-0.451-0.064c-0.135-0.044-0.25-0.106-0.345-0.188s-0.168-0.183-0.221-0.303s-0.079-0.256-0.079-0.408
		c0-0.179,0.036-0.333,0.108-0.465c0.073-0.131,0.177-0.24,0.313-0.327s0.303-0.152,0.499-0.195
		c0.196-0.044,0.418-0.065,0.664-0.065h0.435v-0.246c0-0.122-0.013-0.23-0.038-0.324c-0.026-0.094-0.067-0.172-0.125-0.233
		c-0.058-0.063-0.132-0.109-0.223-0.142c-0.092-0.031-0.204-0.047-0.337-0.047c-0.144,0-0.271,0.017-0.385,0.051
		s-0.213,0.071-0.299,0.112c-0.085,0.041-0.156,0.079-0.214,0.113s-0.101,0.051-0.128,0.051c-0.02,0-0.035-0.005-0.05-0.014
		c-0.014-0.01-0.026-0.023-0.036-0.043c-0.011-0.019-0.019-0.042-0.023-0.072c-0.005-0.029-0.007-0.062-0.007-0.097
		c0-0.059,0.004-0.104,0.013-0.139c0.008-0.034,0.027-0.066,0.06-0.097c0.031-0.03,0.086-0.066,0.163-0.107s0.166-0.079,0.267-0.112
		c0.101-0.034,0.211-0.063,0.33-0.085s0.24-0.033,0.362-0.033c0.227,0,0.42,0.025,0.579,0.077s0.288,0.128,0.386,0.228
		c0.099,0.1,0.17,0.223,0.215,0.371c0.044,0.147,0.066,0.32,0.066,0.518V57.84z M50.669,56.394h-0.495
		c-0.159,0-0.297,0.014-0.414,0.041c-0.117,0.026-0.214,0.066-0.291,0.119s-0.135,0.116-0.171,0.19
		c-0.036,0.073-0.055,0.159-0.055,0.255c0,0.164,0.053,0.295,0.157,0.393c0.104,0.098,0.249,0.146,0.437,0.146
		c0.152,0,0.293-0.039,0.423-0.116c0.131-0.078,0.267-0.196,0.409-0.355V56.394z"/>
	<path class="st2" d="M54.114,56.975c0,0.162-0.03,0.306-0.09,0.433s-0.145,0.233-0.255,0.32c-0.109,0.087-0.241,0.152-0.393,0.197
		c-0.152,0.045-0.32,0.066-0.503,0.066c-0.112,0-0.219-0.009-0.321-0.026c-0.102-0.018-0.192-0.039-0.273-0.066
		s-0.149-0.055-0.205-0.085c-0.057-0.029-0.098-0.056-0.123-0.079c-0.026-0.023-0.045-0.056-0.057-0.099
		c-0.012-0.042-0.018-0.1-0.018-0.172c0-0.045,0.003-0.082,0.007-0.112c0.005-0.031,0.011-0.056,0.018-0.074
		c0.008-0.019,0.018-0.032,0.03-0.041c0.013-0.008,0.027-0.012,0.044-0.012c0.025,0,0.063,0.016,0.114,0.047
		c0.05,0.032,0.112,0.066,0.186,0.104c0.074,0.037,0.161,0.072,0.262,0.104s0.217,0.048,0.348,0.048
		c0.099,0,0.188-0.011,0.268-0.032c0.079-0.021,0.148-0.052,0.207-0.093s0.104-0.094,0.135-0.157s0.048-0.138,0.048-0.225
		c0-0.09-0.023-0.164-0.068-0.226c-0.046-0.061-0.106-0.115-0.182-0.162c-0.074-0.047-0.159-0.088-0.253-0.125
		c-0.093-0.036-0.189-0.074-0.289-0.114s-0.197-0.085-0.292-0.136c-0.095-0.05-0.18-0.111-0.254-0.185
		c-0.075-0.072-0.136-0.159-0.182-0.261c-0.045-0.101-0.068-0.222-0.068-0.362c0-0.124,0.024-0.243,0.072-0.357
		c0.048-0.113,0.12-0.213,0.216-0.299s0.216-0.154,0.36-0.206c0.144-0.052,0.312-0.077,0.504-0.077c0.084,0,0.168,0.007,0.253,0.021
		c0.084,0.015,0.16,0.032,0.228,0.054c0.068,0.021,0.126,0.044,0.174,0.068s0.085,0.046,0.109,0.064
		c0.024,0.02,0.041,0.036,0.049,0.05c0.009,0.014,0.015,0.03,0.018,0.048c0.004,0.018,0.007,0.039,0.011,0.064
		c0.004,0.026,0.005,0.058,0.005,0.096c0,0.039-0.001,0.074-0.005,0.104s-0.01,0.054-0.018,0.072s-0.019,0.032-0.03,0.04
		c-0.012,0.009-0.024,0.013-0.038,0.013c-0.021,0-0.052-0.013-0.092-0.039c-0.039-0.025-0.091-0.053-0.154-0.082
		s-0.138-0.058-0.223-0.083c-0.086-0.026-0.184-0.039-0.293-0.039c-0.099,0-0.186,0.012-0.26,0.033
		c-0.075,0.022-0.137,0.055-0.185,0.096s-0.085,0.09-0.109,0.146c-0.024,0.057-0.037,0.118-0.037,0.184
		c0,0.091,0.023,0.168,0.07,0.23s0.108,0.116,0.183,0.163c0.075,0.048,0.161,0.09,0.257,0.127c0.096,0.038,0.193,0.076,0.293,0.116
		s0.198,0.085,0.295,0.134c0.098,0.05,0.184,0.109,0.258,0.18c0.075,0.07,0.136,0.154,0.182,0.253
		C54.091,56.721,54.114,56.839,54.114,56.975z"/>
	<path class="st2" d="M57.46,56.116c0,0.092-0.023,0.157-0.069,0.195c-0.046,0.039-0.098,0.059-0.156,0.059h-2.082
		c0,0.176,0.018,0.334,0.053,0.475c0.036,0.142,0.095,0.262,0.177,0.363c0.082,0.101,0.189,0.178,0.321,0.232
		c0.132,0.054,0.293,0.081,0.483,0.081c0.15,0,0.284-0.013,0.402-0.037c0.117-0.025,0.219-0.053,0.305-0.083
		s0.157-0.059,0.212-0.083c0.056-0.024,0.098-0.037,0.126-0.037c0.016,0,0.03,0.005,0.044,0.013
		c0.013,0.008,0.022,0.021,0.029,0.037c0.008,0.017,0.013,0.039,0.017,0.068c0.003,0.029,0.005,0.065,0.005,0.107
		c0,0.03-0.001,0.057-0.004,0.079c-0.002,0.022-0.005,0.042-0.009,0.06c-0.003,0.018-0.009,0.034-0.017,0.048
		c-0.009,0.015-0.02,0.027-0.032,0.041c-0.013,0.013-0.051,0.033-0.114,0.063c-0.063,0.03-0.145,0.059-0.245,0.087
		c-0.102,0.028-0.218,0.053-0.35,0.075c-0.133,0.022-0.273,0.033-0.423,0.033c-0.261,0-0.488-0.036-0.684-0.108
		c-0.195-0.073-0.359-0.181-0.493-0.324c-0.134-0.143-0.234-0.322-0.302-0.538c-0.068-0.216-0.103-0.467-0.103-0.754
		c0-0.271,0.035-0.517,0.105-0.733s0.172-0.401,0.304-0.553c0.133-0.151,0.292-0.268,0.479-0.349s0.396-0.121,0.629-0.121
		c0.248,0,0.459,0.04,0.634,0.119c0.174,0.08,0.317,0.188,0.43,0.322s0.195,0.294,0.248,0.476s0.079,0.376,0.079,0.582V56.116z
		 M56.877,55.944c0.007-0.306-0.061-0.545-0.203-0.718c-0.143-0.174-0.354-0.261-0.635-0.261c-0.144,0-0.27,0.026-0.378,0.081
		c-0.108,0.054-0.199,0.125-0.271,0.215c-0.073,0.089-0.13,0.192-0.17,0.312c-0.04,0.118-0.063,0.242-0.067,0.371H56.877z"/>
	<path class="st2" d="M60.883,57.838c0,0.019-0.005,0.034-0.015,0.048c-0.009,0.013-0.024,0.023-0.045,0.033
		c-0.021,0.009-0.051,0.017-0.088,0.021c-0.038,0.005-0.084,0.008-0.141,0.008c-0.059,0-0.106-0.003-0.144-0.008
		c-0.038-0.004-0.067-0.012-0.088-0.021c-0.021-0.01-0.036-0.021-0.046-0.033c-0.01-0.014-0.014-0.029-0.014-0.048v-1.855
		c0-0.181-0.015-0.326-0.043-0.436c-0.027-0.11-0.068-0.206-0.122-0.285c-0.055-0.08-0.124-0.142-0.209-0.184
		c-0.086-0.042-0.185-0.063-0.297-0.063c-0.146,0-0.29,0.052-0.436,0.155s-0.298,0.255-0.457,0.454v2.214
		c0,0.019-0.004,0.034-0.014,0.048c-0.01,0.013-0.024,0.023-0.046,0.033c-0.021,0.009-0.05,0.017-0.088,0.021
		c-0.037,0.005-0.085,0.008-0.144,0.008c-0.057,0-0.104-0.003-0.141-0.008c-0.037-0.004-0.067-0.012-0.09-0.021
		c-0.021-0.01-0.037-0.021-0.045-0.033c-0.009-0.014-0.013-0.029-0.013-0.048V54.67c0-0.019,0.004-0.034,0.011-0.048
		c0.007-0.013,0.021-0.024,0.042-0.035c0.021-0.01,0.048-0.018,0.081-0.021c0.032-0.004,0.076-0.006,0.13-0.006
		c0.052,0,0.094,0.002,0.128,0.006c0.034,0.003,0.061,0.011,0.079,0.021c0.019,0.011,0.032,0.022,0.04,0.035
		c0.009,0.014,0.013,0.029,0.013,0.048v0.419c0.178-0.199,0.355-0.346,0.532-0.438s0.354-0.139,0.535-0.139
		c0.211,0,0.388,0.036,0.532,0.107c0.144,0.071,0.26,0.167,0.35,0.287c0.089,0.119,0.152,0.26,0.191,0.42
		c0.038,0.161,0.058,0.354,0.058,0.579V57.838z M60.687,53.3c0,0.249-0.062,0.438-0.183,0.57c-0.122,0.131-0.287,0.197-0.495,0.197
		c-0.087,0-0.164-0.012-0.232-0.034c-0.067-0.021-0.13-0.051-0.186-0.086c-0.057-0.035-0.108-0.072-0.155-0.112
		s-0.093-0.077-0.139-0.113c-0.045-0.035-0.091-0.063-0.135-0.086c-0.045-0.022-0.093-0.033-0.144-0.033
		c-0.094,0-0.16,0.034-0.197,0.102c-0.037,0.068-0.056,0.159-0.056,0.271c0,0.017-0.003,0.031-0.008,0.044
		c-0.004,0.013-0.015,0.022-0.029,0.03c-0.016,0.007-0.038,0.012-0.066,0.014c-0.029,0.003-0.066,0.004-0.111,0.004
		c-0.037,0-0.068-0.002-0.095-0.006c-0.025-0.003-0.046-0.011-0.062-0.021c-0.015-0.011-0.026-0.026-0.033-0.046
		c-0.007-0.021-0.011-0.045-0.011-0.076c0-0.232,0.059-0.417,0.176-0.556s0.284-0.208,0.502-0.208c0.127,0,0.235,0.024,0.327,0.072
		c0.091,0.048,0.174,0.101,0.247,0.158c0.074,0.058,0.143,0.111,0.207,0.16c0.064,0.05,0.135,0.074,0.209,0.074
		c0.085,0,0.148-0.031,0.191-0.094c0.044-0.062,0.065-0.154,0.065-0.275c0-0.038,0.012-0.063,0.037-0.076
		c0.024-0.013,0.077-0.02,0.159-0.02c0.087,0,0.145,0.009,0.172,0.026C60.672,53.2,60.687,53.24,60.687,53.3z"/>
	<path class="st2" d="M64.141,57.84c0,0.028-0.01,0.05-0.028,0.063c-0.019,0.015-0.044,0.025-0.077,0.032
		c-0.032,0.007-0.08,0.011-0.144,0.011c-0.062,0-0.109-0.004-0.146-0.011c-0.037-0.007-0.063-0.018-0.079-0.032
		c-0.017-0.014-0.025-0.035-0.025-0.063v-0.316c-0.138,0.147-0.292,0.263-0.461,0.345c-0.17,0.082-0.35,0.123-0.539,0.123
		c-0.167,0-0.317-0.021-0.451-0.064c-0.135-0.044-0.25-0.106-0.345-0.188s-0.168-0.183-0.221-0.303s-0.079-0.256-0.079-0.408
		c0-0.179,0.036-0.333,0.108-0.465c0.073-0.131,0.177-0.24,0.313-0.327s0.303-0.152,0.499-0.195
		c0.196-0.044,0.418-0.065,0.664-0.065h0.435v-0.246c0-0.122-0.013-0.23-0.038-0.324c-0.026-0.094-0.067-0.172-0.125-0.233
		c-0.058-0.063-0.132-0.109-0.223-0.142c-0.092-0.031-0.204-0.047-0.337-0.047c-0.144,0-0.271,0.017-0.385,0.051
		s-0.213,0.071-0.299,0.112c-0.085,0.041-0.156,0.079-0.214,0.113s-0.101,0.051-0.128,0.051c-0.02,0-0.035-0.005-0.05-0.014
		c-0.014-0.01-0.026-0.023-0.036-0.043c-0.011-0.019-0.019-0.042-0.023-0.072c-0.005-0.029-0.007-0.062-0.007-0.097
		c0-0.059,0.004-0.104,0.013-0.139c0.008-0.034,0.027-0.066,0.06-0.097c0.031-0.03,0.086-0.066,0.163-0.107s0.166-0.079,0.267-0.112
		c0.101-0.034,0.211-0.063,0.33-0.085s0.24-0.033,0.362-0.033c0.227,0,0.42,0.025,0.579,0.077s0.288,0.128,0.386,0.228
		c0.099,0.1,0.17,0.223,0.215,0.371c0.044,0.147,0.066,0.32,0.066,0.518V57.84z M63.565,56.394H63.07
		c-0.159,0-0.297,0.014-0.414,0.041c-0.117,0.026-0.214,0.066-0.291,0.119s-0.135,0.116-0.171,0.19
		c-0.036,0.073-0.055,0.159-0.055,0.255c0,0.164,0.053,0.295,0.157,0.393c0.104,0.098,0.249,0.146,0.437,0.146
		c0.152,0,0.293-0.039,0.423-0.116c0.131-0.078,0.267-0.196,0.409-0.355V56.394z"/>
</g>
<path class="st4" d="M54.013,26.368C54.013,15.137,44.876,6,33.646,6C22.42,6,13.288,15.137,13.288,26.368
	c0,0.221-0.145,0.449-0.355,0.513c-0.21,0.064-0.438,0.016-0.562-0.167l-4.13-6.22c-0.123-0.185-0.31-0.311-0.527-0.355
	c-0.215-0.043-0.438-0.001-0.624,0.121c-0.184,0.122-0.31,0.309-0.354,0.526c-0.045,0.218-0.002,0.439,0.12,0.624l5.992,9.018
	c0.133,0.199,0.35,0.331,0.594,0.362l0.104,0.006c0.204,0,0.399-0.076,0.548-0.212l8.333-7.505c0.339-0.307,0.366-0.836,0.061-1.178
	c-0.306-0.336-0.836-0.363-1.177-0.059l-5.527,4.996c-0.146,0.132-0.356,0.167-0.538,0.086c-0.181-0.08-0.297-0.259-0.297-0.457
	c0-10.413,8.387-18.805,18.696-18.805c10.314,0,18.706,8.392,18.706,18.707c0,10.314-8.387,18.706-18.696,18.706
	c-5,0-9.694-1.946-13.218-5.479c-0.157-0.158-0.366-0.245-0.587-0.245s-0.43,0.087-0.588,0.245c-0.33,0.33-0.33,0.846,0,1.176
	c3.847,3.847,8.958,5.965,14.393,5.965C44.881,46.736,54.013,37.599,54.013,26.368z"/>
<g>
	<g>
		<g>
			<polygon class="st0" points="38.398,25.289 33.302,25.289 30.326,25.289 29.424,25.289 29.424,30.192 29.424,30.633 
				29.424,36.021 42.275,36.021 42.275,25.289 41.374,25.289 			"/>
			<path class="st0" d="M41.374,24.613v-3.54c0-3.046-2.478-5.524-5.524-5.524s-5.524,2.478-5.524,5.524v3.54h-1.578v5.579v0.442
				v6.064h14.204V24.613H41.374z M33.302,21.073c0-1.405,1.143-2.548,2.548-2.548c1.405,0,2.548,1.143,2.548,2.548v3.54h-5.095
				V21.073z"/>
		</g>
		<g>
			<g>
				<g>
					<path class="st1" d="M39.683,23.51v-3.54c0-3.046-2.478-5.524-5.524-5.524c-3.046,0-5.524,2.478-5.524,5.524v3.54h-1.578v6.107
						h0.676v-5.431h0.902h2.976h5.095h2.976h0.902v10.732H27.733v-5.83h-0.676v6.506h14.204V23.51H39.683z M36.707,23.51h-5.095
						v-3.54c0-1.405,1.143-2.548,2.548-2.548c1.405,0,2.548,1.143,2.548,2.548V23.51z M39.006,23.51h-1.623v-3.54
						c0-1.778-1.446-3.224-3.224-3.224c-1.778,0-3.224,1.446-3.224,3.224v3.54h-1.623v-3.54c0-2.673,2.174-4.847,4.847-4.847
						c2.673,0,4.847,2.175,4.847,4.847V23.51z"/>
				</g>
			</g>
			<g>
				<g>
					<rect x="33.821" y="32.371" class="st1" width="0.676" height="0.676"/>
				</g>
			</g>
			<g>
				<g>
					<path class="st1" d="M34.159,26.351c-0.932,0-1.691,0.759-1.691,1.691c0,0.817,0.582,1.5,1.353,1.657v0.643h0.676v-0.643
						c0.771-0.157,1.353-0.84,1.353-1.657C35.85,27.11,35.091,26.351,34.159,26.351z M34.159,29.056
						c-0.559,0-1.015-0.455-1.015-1.015s0.455-1.015,1.015-1.015c0.559,0,1.015,0.455,1.015,1.015
						C35.174,28.601,34.718,29.056,34.159,29.056z"/>
				</g>
			</g>
			<g>
				<g>
					<rect x="33.821" y="31.018" class="st1" width="0.676" height="0.676"/>
				</g>
			</g>
		</g>
	</g>
</g>
</svg>
