<?xml version="1.0" standalone="no"?>
<!DOCTYPE svg PUBLIC "-//W3C//DTD SVG 20010904//EN"
 "http://www.w3.org/TR/2001/REC-SVG-20010904/DTD/svg10.dtd">
<svg version="1.0" xmlns="http://www.w3.org/2000/svg"
 width="1262.000000pt" height="711.000000pt" viewBox="0 0 1262.000000 711.000000"
 preserveAspectRatio="xMidYMid meet">

<g transform="translate(0.000000,711.000000) scale(0.100000,-0.100000)"
fill="#000000" stroke="none">
<path d="M0 3560 l0 -3550 1875 0 c1165 0 1875 4 1875 9 0 6 -5 13 -11 16 -6
4 -8 13 -5 20 3 8 -2 19 -10 25 -23 20 -16 47 16 60 18 7 33 22 36 37 7 25 -5
48 -13 26 -3 -9 -11 -8 -30 4 -25 16 -26 16 -45 -7 -16 -20 -19 -21 -16 -6 2
11 -5 23 -17 30 -11 6 -22 12 -25 14 -2 2 2 7 10 12 9 5 19 5 27 -2 10 -8 13
-6 13 6 0 10 9 16 25 16 14 0 25 3 25 8 0 16 -18 34 -28 28 -6 -3 -9 2 -7 11
1 10 9 17 17 15 9 -1 18 4 22 13 3 8 12 15 21 15 8 0 15 9 15 20 0 11 -4 20
-10 20 -5 0 -10 -4 -10 -10 0 -5 -12 -10 -26 -10 -14 0 -22 4 -19 10 3 5 1 18
-5 29 -10 20 3 40 15 21 10 -16 25 -12 25 7 0 13 3 14 12 5 26 -26 38 -13 38
42 0 50 -1 54 -25 54 -20 0 -25 -6 -25 -24 0 -27 -10 -30 -29 -12 -6 7 -17 13
-23 13 -6 0 -13 6 -15 13 -3 6 4 12 14 12 17 1 17 2 -2 16 -18 13 -21 13 -32
-2 -10 -14 -11 -7 -6 37 5 50 14 72 31 75 31 6 52 19 52 31 0 8 -4 12 -9 8 -5
-3 -15 1 -23 8 -22 22 -29 23 -39 4 -6 -9 -16 -17 -24 -17 -8 0 -12 -6 -10
-12 7 -18 -10 -74 -20 -70 -12 3 -7 73 6 88 5 6 5 15 1 19 -4 5 -2 5 5 1 9 -5
13 13 15 66 3 64 0 75 -18 90 -15 13 -20 25 -16 44 5 26 3 27 -28 21 -18 -4
-36 -7 -41 -7 -17 0 -9 -30 9 -31 12 0 10 -3 -7 -10 -29 -11 -27 -14 -35 37
-4 31 -2 45 9 54 22 18 18 38 -15 79 -49 58 -50 59 -50 75 0 8 5 16 11 18 7 2
7 11 0 28 -7 19 -10 20 -10 7 -1 -10 -5 -16 -10 -13 -5 4 -11 0 -14 -6 -2 -7
-14 7 -26 31 -18 35 -20 45 -9 52 10 7 9 9 -4 9 -9 0 -18 -4 -20 -10 -1 -5 -9
-6 -16 -1 -20 12 -4 38 30 47 17 5 33 15 36 22 2 7 -2 10 -12 6 -10 -4 -16 -1
-16 9 0 8 -7 17 -15 21 -11 4 -14 17 -10 53 4 48 4 48 -34 64 -46 20 -57 54
-31 97 17 27 16 29 -2 51 -10 13 -21 21 -25 18 -14 -14 -33 18 -33 54 0 40 7
48 27 28 12 -12 43 -6 43 8 0 13 -51 68 -61 66 -5 -2 -9 6 -9 17 0 11 -7 23
-15 26 -18 7 -20 44 -2 44 8 0 9 3 1 8 -6 4 -14 14 -18 22 -3 9 -5 6 -2 -7 6
-35 -25 -39 -51 -6 -13 15 -23 33 -23 38 0 6 -12 18 -27 26 l-26 17 22 11 c15
9 20 18 16 31 -3 11 -2 28 4 37 9 15 10 13 11 -14 0 -18 5 -33 11 -33 8 0 8
57 0 100 -1 3 -6 -2 -12 -10 -8 -12 -9 -11 -5 6 4 13 -1 29 -14 44 -18 21 -19
25 -5 46 13 20 12 23 -2 28 -9 4 -21 2 -27 -4 -5 -5 -18 -10 -28 -10 -17 0
-18 8 -16 80 2 59 0 80 -9 80 -7 0 -13 5 -13 10 0 6 9 10 19 10 25 0 37 18 17
26 -13 5 -14 8 -1 20 8 8 12 21 9 28 -6 16 -54 38 -75 36 -31 -5 -39 1 -39 28
0 29 34 67 51 57 5 -4 12 1 15 10 4 10 16 15 33 13 14 -1 25 2 24 7 -1 6 -4
53 -7 104 -5 71 -10 97 -23 106 -9 7 -13 17 -9 23 3 6 -1 15 -10 20 -8 5 -21
20 -28 33 -9 18 -19 23 -38 21 -32 -3 -48 17 -20 25 12 3 20 14 20 26 4 102 6
117 19 117 16 0 16 10 3 46 -6 15 -14 24 -17 20 -4 -4 -12 8 -17 25 -6 18 -20
37 -31 43 -11 6 -22 12 -25 14 -2 2 1 6 7 10 8 5 9 19 3 42 -7 32 -9 33 -15
13 -4 -13 -14 -23 -21 -23 -20 0 -17 27 4 39 16 9 16 10 -2 17 -10 4 -27 2
-37 -5 -17 -10 -19 -8 -18 16 1 16 -2 36 -6 46 -5 13 -4 18 6 17 8 -1 36 -2
63 -1 42 1 47 3 36 16 -7 8 -26 15 -42 15 -19 0 -27 4 -22 12 4 7 3 8 -4 4 -7
-4 -23 4 -37 19 -34 33 -30 87 9 144 29 41 28 49 -7 89 -20 21 -20 24 -4 57
21 44 21 74 1 100 -15 20 -24 15 -37 -20 -8 -21 -14 2 -9 38 2 23 10 37 18 37
8 0 14 5 14 10 0 6 -5 10 -11 10 -6 0 -9 14 -7 33 3 29 6 32 38 33 19 0 45 6
57 12 29 16 34 15 26 -3 -3 -9 -2 -15 3 -14 5 1 30 -1 56 -5 67 -11 90 -3 148
53 44 42 56 49 102 53 56 6 53 3 193 163 28 31 68 76 90 99 38 41 124 137 162
182 10 12 56 63 103 114 108 118 122 134 195 215 33 37 76 82 95 101 33 34 47
81 26 95 -12 9 3 31 16 23 5 -3 7 -18 3 -33 -6 -23 -5 -24 9 -11 10 10 18 43
22 90 4 56 3 71 -6 60 -8 -12 -9 -7 -4 22 4 25 1 47 -10 69 -9 18 -14 34 -12
36 5 5 142 -25 286 -62 30 -8 69 -14 87 -15 17 0 44 -6 60 -14 15 -8 61 -20
102 -27 114 -19 197 -51 223 -84 l23 -29 3 -526 c2 -467 4 -526 19 -533 13 -8
13 -11 2 -18 -8 -5 -23 -8 -34 -8 -16 1 -16 2 5 9 l25 8 -23 1 c-16 1 -26 -6
-29 -19 -7 -28 -21 -25 -29 5 -6 23 -10 25 -68 25 -97 0 -122 -22 -334 -284
-41 -50 -94 -113 -118 -141 -25 -27 -48 -54 -52 -60 -23 -32 -137 -172 -146
-180 -6 -5 -30 -33 -52 -62 -23 -28 -71 -85 -108 -126 -112 -124 -147 -217
-111 -296 19 -44 31 -49 125 -56 94 -7 507 -19 710 -20 201 -2 366 -12 424
-25 88 -20 213 -9 266 25 41 26 107 55 126 55 39 0 113 40 156 84 43 44 57 66
99 166 l24 55 0 1335 0 1335 -33 70 c-42 86 -95 137 -165 159 -28 9 -90 28
-137 43 -47 14 -99 32 -117 39 -17 8 -37 14 -44 14 -15 0 -77 19 -101 31 -10
5 -24 9 -33 9 -8 0 -29 6 -47 14 -18 8 -53 19 -78 26 -25 7 -61 18 -80 25 -40
15 -244 80 -305 96 -22 6 -56 17 -75 24 -19 8 -53 19 -75 25 -22 6 -56 17 -75
25 -19 7 -55 18 -80 25 -25 7 -61 18 -80 25 -19 7 -69 23 -110 35 -41 12 -91
28 -110 35 -19 7 -55 18 -80 25 -25 7 -61 18 -80 25 -19 8 -69 24 -110 35 -41
12 -91 28 -110 35 -81 31 -128 36 -270 32 -147 -4 -210 -13 -210 -27 0 -5 -10
-12 -22 -16 -27 -8 -168 -142 -168 -159 0 -7 -7 -19 -16 -26 -40 -33 -94 -207
-94 -301 0 -29 7 -91 14 -138 12 -67 13 -170 9 -495 -3 -225 -7 -468 -10 -540
-5 -130 -7 -222 -11 -368 -1 -49 -6 -76 -12 -72 -6 4 -10 -12 -10 -39 0 -27
-5 -46 -11 -46 -9 0 -9 -4 0 -14 6 -7 10 -37 10 -67 -1 -30 -1 -70 1 -89 l2
-35 8 30 c6 22 8 10 7 -42 -1 -40 2 -69 7 -66 5 4 6 -4 3 -18 -4 -13 -7 -32
-7 -41 0 -12 -8 -18 -25 -18 -14 0 -25 4 -25 9 0 5 -20 19 -44 31 -61 29 -67
40 -71 112 -1 35 -6 82 -10 106 -5 29 -4 42 4 42 6 0 11 -13 11 -30 0 -16 5
-30 10 -30 6 0 10 7 10 15 0 8 5 15 10 15 6 0 10 -8 10 -17 0 -15 2 -16 10 -3
13 20 13 70 0 70 -5 0 -10 -5 -10 -11 0 -16 -20 0 -30 25 -7 17 -9 17 -9 4 -1
-10 -6 -18 -12 -18 -6 0 -8 7 -5 16 3 8 -1 22 -9 30 -14 14 -21 71 -17 134 1
13 -10 39 -23 56 -14 18 -25 36 -25 41 0 5 -14 17 -30 26 -26 16 -29 21 -19
39 6 11 8 35 4 54 -5 29 -3 34 14 34 11 0 21 4 23 10 3 8 41 17 86 19 30 2 4
116 -29 124 -11 3 -19 14 -19 25 0 15 -5 19 -20 15 -11 -3 -20 -10 -20 -16 0
-7 -4 -7 -12 1 -7 7 -11 29 -10 50 2 25 -3 44 -13 52 -8 7 -15 25 -15 41 0 28
-13 46 -52 73 -19 13 -20 19 -10 41 16 35 15 60 -2 75 -16 12 -11 38 10 55 7
6 15 27 19 47 6 31 4 37 -13 42 -11 4 -35 20 -53 36 l-33 29 27 21 c34 27 38
79 7 87 -11 3 -20 9 -20 14 0 5 -8 9 -17 9 -13 0 -9 7 14 28 36 32 52 89 27
99 -8 3 -20 1 -27 -6 -35 -35 -37 22 -2 69 14 19 23 41 20 48 -5 14 23 74 37
80 17 8 7 33 -17 44 -29 13 -29 14 -14 92 12 68 2 89 -29 58 -13 -13 -18 -28
-15 -46 5 -24 3 -26 -24 -23 -15 2 -39 9 -51 16 -30 16 -26 55 6 59 12 2 22 8
22 13 0 5 7 9 16 9 8 0 22 7 31 15 14 14 13 18 -3 38 -11 12 -23 25 -27 28 -5
3 -11 34 -14 68 -3 34 -10 64 -14 67 -5 3 -9 16 -9 28 0 13 -7 29 -15 36 -8 7
-15 18 -15 26 0 7 -7 20 -16 28 -14 14 -14 16 0 16 9 0 18 11 21 25 3 14 7 36
10 50 3 15 10 23 16 19 6 -4 15 0 20 7 14 23 10 37 -8 33 -10 -2 -22 -1 -28 3
-16 13 -35 51 -35 73 0 11 -3 19 -7 19 -25 -4 -33 2 -25 17 6 11 5 26 -4 43
-23 47 -22 85 4 96 22 10 28 37 16 69 -6 14 -114 16 -1120 16 l-1114 0 0
-3550z m2380 2104 c0 -14 -3 -15 -17 -3 -10 7 -20 15 -22 16 -2 2 5 3 17 3 14
0 22 -6 22 -16z m1690 -524 c0 -5 -4 -10 -10 -10 -5 0 -10 5 -10 10 0 6 5 10
10 10 6 0 10 -4 10 -10z m-30 -72 c0 -4 -5 -8 -11 -8 -6 0 -8 -9 -3 -22 3 -13
3 -20 -1 -16 -14 14 -13 55 1 55 8 0 14 -4 14 -9z m-1420 -89 c0 -5 -7 -9 -16
-9 -9 0 -34 -14 -56 -31 -38 -31 -39 -31 -45 -10 -3 11 -10 21 -16 21 -23 0 9
19 38 22 17 2 29 8 28 13 -1 7 12 9 33 7 19 -2 34 -8 34 -13z m1327 -25 c-3
-3 -12 -4 -19 -1 -8 3 -5 6 6 6 11 1 17 -2 13 -5z m-77 -84 c0 -5 -5 -10 -11
-10 -5 0 -7 5 -4 10 3 6 8 10 11 10 2 0 4 -4 4 -10z m-65 -80 c3 -5 1 -10 -4
-10 -6 0 -11 5 -11 10 0 6 2 10 4 10 3 0 8 -4 11 -10z m-64 -67 c-12 -20 -14
-14 -5 12 4 9 9 14 11 11 3 -2 0 -13 -6 -23z m-31 -18 c0 -5 -5 -3 -10 5 -5 8
-10 20 -10 25 0 6 5 3 10 -5 5 -8 10 -19 10 -25z m-1070 -319 c0 -3 -4 -8 -10
-11 -5 -3 -10 -1 -10 4 0 6 5 11 10 11 6 0 10 -2 10 -4z m37 -268 c-3 -8 -6
-5 -6 6 -1 11 2 17 5 13 3 -3 4 -12 1 -19z m133 -34 c0 -17 -10 -17 -33 0 -13
10 -15 15 -5 19 19 6 38 -3 38 -19z m-82 -39 c-3 -3 -9 2 -12 12 -6 14 -5 15
5 6 7 -7 10 -15 7 -18z m272 -1245 c0 -5 -5 -10 -11 -10 -5 0 -7 5 -4 10 3 6
8 10 11 10 2 0 4 -4 4 -10z m35 -140 c-3 -5 -12 -10 -18 -10 -7 0 -6 4 3 10
19 12 23 12 15 0z m523 -1953 c10 4 13 2 8 -5 -10 -16 -36 -15 -36 1 0 9 -3 8
-9 -2 -5 -8 -11 -9 -15 -3 -8 13 16 22 28 12 5 -5 15 -6 24 -3z m62 -143 c0
-8 -4 -14 -10 -14 -5 0 -10 9 -10 21 0 11 5 17 10 14 6 -3 10 -13 10 -21z m60
-244 c0 -5 -8 -10 -17 -10 -15 0 -16 2 -3 10 19 12 20 12 20 0z"/>
<path d="M11149 7087 c13 -13 24 -18 29 -12 4 6 16 10 26 10 11 0 21 5 23 11
2 6 -16 11 -48 12 l-52 1 22 -22z"/>
<path d="M11352 7098 c-7 -7 -12 -18 -12 -25 0 -16 -16 -17 -25 -3 -5 8 -11 8
-19 1 -7 -6 -16 -8 -19 -4 -4 3 -7 1 -7 -5 0 -22 36 -30 133 -30 96 0 143 -13
99 -27 -13 -4 -19 -12 -15 -21 3 -8 -1 -21 -8 -30 -10 -13 -10 -17 2 -25 26
-17 43 -4 55 41 11 42 15 46 18 20 2 -15 21 -12 21 3 0 16 52 22 70 7 7 -6 16
-7 18 -3 3 5 23 9 44 8 32 0 38 -4 35 -20 -7 -45 -11 -47 -41 -26 -37 27 -41
26 -41 -4 0 -31 -17 -33 -22 -2 -4 28 -22 29 -26 0 -2 -15 -8 -20 -19 -16 -13
5 -13 2 2 -21 l18 -27 -32 -12 c-40 -15 -39 -32 0 -53 25 -12 29 -18 18 -25
-12 -7 -12 -9 0 -9 11 0 11 -3 1 -15 -7 -8 -21 -15 -32 -15 -17 0 -19 -5 -15
-27 7 -37 -26 -63 -70 -56 -24 4 -34 1 -39 -11 -5 -13 -9 -14 -21 -5 -10 9
-17 9 -25 1 -9 -9 -8 -12 4 -12 9 0 18 -10 20 -22 2 -15 15 -26 47 -36 40 -13
45 -13 56 2 17 23 32 20 39 -9 6 -23 10 -25 40 -19 46 8 75 -8 69 -39 -4 -20
1 -27 36 -40 39 -16 53 -39 31 -52 -19 -12 -10 -35 16 -41 19 -5 24 -12 22
-28 -2 -11 -9 -20 -16 -18 -7 1 -15 -6 -19 -15 -3 -10 -13 -26 -20 -35 -8 -9
-12 -22 -8 -28 4 -7 1 -16 -6 -21 -19 -12 -69 -11 -69 1 0 16 -25 12 -46 -8
-24 -23 -72 -33 -78 -18 -2 6 -5 0 -6 -14 l-1 -25 -11 23 c-6 12 -20 22 -30
22 -11 0 -16 -5 -13 -10 4 -6 11 -8 16 -5 5 4 9 2 9 -2 0 -5 -13 -14 -29 -20
-18 -7 -37 -26 -50 -51 -11 -22 -26 -42 -33 -45 -7 -3 -1 -6 14 -6 14 -1 33
-4 42 -7 11 -4 16 -1 16 10 0 9 -8 16 -17 16 -12 0 -14 3 -6 11 13 13 75 -1
81 -19 2 -6 -7 -17 -20 -23 -26 -11 -55 -72 -38 -77 16 -6 12 -22 -5 -22 -8 0
-23 -9 -32 -20 -20 -23 -45 -27 -37 -5 4 10 0 15 -11 15 -11 0 -15 -5 -12 -15
4 -8 3 -17 -2 -19 -4 -3 -8 -19 -9 -36 -1 -33 20 -50 49 -43 32 9 21 -14 -18
-38 -48 -29 -73 -57 -67 -74 3 -7 1 -16 -5 -20 -18 -11 -12 -39 13 -62 26 -25
46 -30 46 -12 0 6 14 -2 30 -18 19 -18 30 -38 30 -55 0 -17 8 -31 19 -38 17
-8 22 -6 33 17 12 25 19 28 61 28 27 1 51 6 55 11 10 16 72 13 72 -2 0 -8 -6
-11 -16 -7 -12 4 -15 1 -12 -14 1 -11 -3 -32 -11 -46 -14 -27 -31 -36 -31 -17
0 6 -8 10 -17 10 -13 0 -15 -3 -5 -8 7 -5 11 -19 10 -33 -2 -19 1 -23 17 -21
11 2 22 8 23 13 2 5 10 9 18 9 8 0 14 7 14 15 0 8 5 15 10 15 6 0 10 -8 10
-19 0 -23 20 -40 57 -50 18 -5 29 -15 31 -29 4 -29 -26 -29 -58 0 l-23 22 6
-24 c4 -15 1 -27 -10 -35 -8 -6 -17 -28 -19 -48 -4 -30 -1 -37 13 -38 10 -1
24 -2 32 -3 10 -1 16 -18 19 -56 2 -30 10 -61 17 -69 19 -20 49 -6 42 20 -3
13 -1 19 6 16 15 -5 10 -35 -8 -53 -41 -41 -108 -12 -108 47 0 19 -2 26 -4 17
-6 -25 -32 -22 -54 6 -13 16 -26 22 -39 19 -21 -6 -29 20 -10 32 5 3 1 24 -10
51 -15 33 -17 50 -10 64 17 32 12 48 -16 48 -24 0 -25 -3 -19 -35 5 -28 2 -39
-15 -55 -16 -15 -19 -27 -15 -52 6 -28 2 -38 -28 -69 -40 -43 -57 -47 -57 -13
0 22 -3 23 -48 18 -44 -4 -48 -2 -49 19 -1 13 3 27 10 31 7 5 -5 7 -28 6 -36
-3 -40 -5 -37 -28 5 -38 20 -47 119 -72 87 -22 119 -38 73 -38 -11 0 -20 -5
-20 -10 0 -7 13 -8 35 -4 23 4 35 2 35 -5 0 -11 -14 -15 -34 -12 -6 1 -20 -3
-32 -9 -26 -15 -59 -10 -59 9 0 8 -18 20 -39 27 -21 8 -45 19 -52 25 -9 7 -19
7 -36 -2 -13 -7 -25 -11 -28 -10 -2 1 -6 -2 -8 -7 -1 -5 11 -12 28 -16 19 -3
30 -11 28 -18 -8 -23 -34 -19 -61 8 -15 15 -30 24 -33 21 -3 -3 -10 -25 -15
-48 -8 -36 -7 -46 5 -55 9 -6 16 -15 16 -20 0 -5 11 -14 25 -21 22 -10 25 -9
25 8 0 10 6 19 14 19 7 0 16 9 19 21 3 12 10 18 17 14 6 -4 9 -9 6 -12 -10
-11 14 -42 36 -46 22 -3 22 -4 -4 -15 -31 -13 -35 -26 -13 -48 17 -17 19 -33
6 -52 -7 -12 -12 -12 -30 0 -18 11 -23 11 -31 -2 -5 -8 -10 -23 -10 -32 0 -11
-14 -24 -34 -32 -43 -18 -52 -32 -27 -46 11 -6 18 -17 15 -24 -8 -20 14 -30
61 -29 22 1 32 -1 22 -4 -9 -2 -15 -8 -12 -13 3 -5 -4 -14 -15 -20 -12 -6 -37
-36 -56 -66 -19 -30 -41 -54 -48 -54 -8 0 -14 -6 -13 -12 1 -47 -4 -58 -27
-58 -13 0 -30 10 -38 22 -14 20 -18 21 -42 10 -15 -6 -32 -17 -39 -22 -67 -57
-76 -60 -97 -35 -9 11 -16 12 -25 5 -6 -5 -14 -8 -17 -5 -3 3 -11 -3 -19 -12
-7 -10 -9 -15 -5 -11 12 10 36 -10 36 -29 0 -11 -8 -10 -37 8 -20 13 -33 17
-29 11 4 -7 3 -12 -3 -12 -5 0 -13 5 -16 11 -5 6 -27 9 -59 5 -37 -3 -43 -3
-21 3 l30 9 -35 2 c-19 1 -28 4 -19 7 11 3 15 12 11 28 -2 14 -8 25 -13 25 -5
0 -9 7 -9 15 0 21 -13 19 -28 -5 -15 -24 -8 -40 18 -40 16 0 17 -3 7 -24 -8
-17 -15 -21 -23 -15 -7 6 -16 4 -25 -7 -11 -13 -10 -17 2 -25 10 -6 11 -9 1
-9 -7 0 -15 7 -19 16 -7 19 -62 74 -73 74 -4 0 -10 9 -13 20 -3 11 -9 20 -14
19 -12 -3 -60 18 -68 30 -3 6 1 11 9 11 9 0 16 -5 16 -10 0 -13 32 -9 42 5 5
6 8 6 8 -2 0 -7 12 -1 26 12 16 15 24 31 20 40 -8 21 -36 19 -36 -4 0 -21 -22
-33 -44 -25 -8 3 -28 -2 -45 -12 -28 -16 -32 -17 -68 -1 -21 9 -48 19 -60 22
-20 6 -34 26 -32 50 1 10 -27 23 -53 24 -30 1 -20 -27 12 -34 32 -7 51 -25 27
-25 -8 0 -28 7 -43 15 -17 8 -56 15 -91 15 -34 0 -64 4 -68 9 -8 14 -65 41
-87 41 -10 0 -26 4 -36 9 -9 5 -37 15 -62 21 -25 7 -63 19 -84 27 -22 8 -106
19 -188 24 -159 11 -193 7 -253 -35 -32 -23 -114 -107 -115 -118 0 -3 -12 -25
-27 -47 -32 -49 -37 -44 -59 59 -13 64 -20 86 -53 160 -26 60 -93 147 -139
180 -66 49 -111 70 -240 111 -70 23 -143 47 -162 54 -19 7 -55 18 -80 25 -89
25 -116 33 -150 45 -96 35 -152 48 -227 52 -72 5 -83 8 -83 24 0 28 -35 54
-92 68 -29 7 -66 19 -83 26 -16 7 -50 18 -75 25 -25 7 -61 18 -80 25 -84 30
-111 35 -192 35 -85 0 -87 0 -112 -32 -37 -46 -39 -49 -60 -91 -11 -20 -23
-37 -28 -37 -4 0 -8 -9 -8 -19 0 -21 -27 -76 -49 -100 -7 -8 -18 -27 -23 -43
-6 -15 -14 -28 -19 -28 -5 0 -9 -8 -9 -19 0 -10 -8 -29 -18 -42 -19 -25 -94
-157 -150 -265 -18 -36 -38 -62 -43 -59 -5 4 -9 192 -9 463 l0 457 -38 16
c-20 9 -57 22 -82 29 -25 7 -59 19 -77 26 -17 8 -35 14 -41 14 -5 0 -57 16
-115 35 -83 27 -122 35 -180 35 -42 0 -83 -3 -91 -6 -9 -4 -30 -34 -46 -68
l-29 -61 0 -500 c-1 -456 -9 -2180 -11 -2215 -1 -19 17 -128 26 -158 4 -15 12
-21 22 -17 8 3 19 0 23 -7 6 -9 54 -13 171 -15 90 -2 171 -5 181 -7 9 -2 17
-1 17 4 0 4 16 11 35 14 25 5 39 15 50 36 15 29 19 30 81 30 113 0 104 -32
105 368 0 352 6 424 27 348 6 -21 18 -46 27 -56 9 -10 17 -34 18 -54 1 -20 7
-36 14 -36 6 0 14 -13 18 -29 3 -16 13 -35 21 -42 8 -6 14 -17 14 -24 0 -7 7
-18 15 -25 8 -7 15 -23 15 -36 0 -12 6 -29 13 -36 6 -7 18 -26 26 -43 7 -16
18 -38 23 -49 5 -10 12 -33 14 -50 2 -17 13 -38 24 -48 14 -11 16 -18 8 -21
-10 -4 -10 -6 -1 -6 7 -1 15 -17 19 -36 3 -19 10 -38 15 -41 5 -3 9 -14 9 -25
0 -11 7 -22 15 -25 8 -4 12 -10 9 -15 -3 -6 0 -17 7 -25 6 -8 13 -24 14 -37 4
-36 4 -37 20 -37 9 0 18 -7 22 -16 3 -8 12 -13 19 -10 7 3 16 1 19 -4 3 -5 21
-6 40 -3 20 3 41 1 48 -6 8 -6 16 -8 19 -5 10 10 88 13 88 3 0 -13 23 -7 38
11 12 13 13 13 8 -2 -4 -14 2 -15 37 -12 23 3 47 11 52 19 6 7 29 17 50 21 39
7 68 26 63 41 -2 4 12 9 30 11 19 2 32 -1 32 -8 0 -25 32 -79 44 -74 7 3 18
-2 25 -10 10 -11 18 -13 31 -6 14 7 20 5 25 -8 6 -16 7 -16 20 1 9 13 20 17
33 13 11 -4 23 -2 27 4 8 14 25 3 19 -13 -2 -7 5 -13 20 -13 17 -1 26 5 30 18
4 16 10 19 30 14 28 -7 58 2 50 15 -3 5 -1 9 4 9 5 0 19 9 32 20 18 16 37 20
87 20 43 0 69 5 79 14 11 12 14 66 14 303 0 169 4 294 10 303 8 13 10 12 10
-2 0 -12 8 -18 24 -18 13 0 27 -6 30 -12 5 -10 7 -10 12 0 8 17 27 15 20 -3
-3 -8 -1 -15 3 -15 5 0 7 -9 4 -20 -3 -11 0 -20 6 -20 6 0 11 5 11 10 0 18 38
10 43 -9 3 -14 -2 -21 -16 -25 l-22 -5 23 -21 c19 -18 28 -45 23 -72 0 -5 4
-8 10 -8 8 0 9 -4 0 -13 -6 -8 -9 -16 -6 -19 3 -3 5 -77 4 -164 -2 -220 -1
-228 10 -232 5 -2 7 -10 4 -18 -3 -8 0 -14 5 -14 6 0 12 -10 14 -22 2 -12 9
-23 17 -26 9 -3 11 0 6 8 -6 10 -2 11 16 6 13 -4 30 -7 37 -6 32 3 59 1 85 -5
21 -6 27 -4 27 10 0 12 5 15 20 10 21 -7 90 11 89 23 -4 28 4 32 74 32 43 0
78 5 85 12 8 8 13 51 14 118 0 58 3 89 5 70 3 -19 13 -40 24 -48 10 -7 19 -22
19 -33 0 -10 5 -19 10 -19 6 0 10 -7 10 -15 0 -8 9 -23 20 -32 11 -10 20 -23
20 -29 0 -6 9 -14 20 -17 11 -3 20 -13 20 -22 0 -10 5 -15 13 -12 7 3 19 -4
26 -15 10 -16 15 -18 21 -8 6 9 10 7 15 -9 3 -11 14 -22 23 -22 42 -3 47 -5
45 -16 -2 -7 3 -13 11 -13 8 0 23 -3 33 -6 16 -6 15 -5 -2 9 -11 8 -17 18 -13
22 7 7 58 -23 58 -34 0 -9 123 3 139 13 6 4 16 4 23 0 8 -5 6 -10 -8 -15 -16
-7 -16 -8 7 -8 14 -1 29 3 35 8 16 15 74 24 74 11 0 -6 -4 -9 -8 -6 -5 3 -9
-1 -9 -9 0 -8 2 -15 4 -15 10 0 33 30 33 43 0 7 12 19 26 25 20 10 28 9 41 -3
13 -13 13 -18 1 -32 -8 -10 -8 -14 -1 -10 7 4 16 0 22 -10 5 -10 13 -15 16
-11 9 8 35 -16 35 -31 0 -6 5 -11 11 -11 6 0 8 9 4 21 -6 19 -4 21 16 16 13
-4 27 -7 30 -7 4 0 10 -10 14 -22 4 -14 8 -18 12 -10 2 6 13 12 24 12 12 0 19
7 19 19 0 23 29 36 36 16 3 -8 2 -20 -2 -26 -5 -9 -2 -10 12 -4 20 8 94 10
129 2 24 -5 33 -37 11 -37 -9 0 -16 -7 -16 -15 0 -13 4 -14 20 -5 11 6 20 15
20 20 0 6 11 10 25 10 29 0 44 -25 26 -43 -10 -9 -15 -8 -23 6 -10 18 -11 18
-29 -2 -10 -11 -19 -23 -19 -27 0 -4 -8 -13 -17 -20 -14 -9 -21 -10 -32 -1
-12 9 -13 9 -7 0 5 -9 2 -11 -8 -7 -20 8 -20 9 1 30 18 17 20 24 25 59 2 15
-3 20 -22 20 -15 0 -25 -6 -25 -15 -1 -19 -14 -40 -25 -40 -6 0 -5 11 0 26 9
22 8 25 -7 22 -12 -2 -17 -11 -14 -23 9 -48 6 -59 -19 -65 -16 -4 -21 -8 -13
-13 7 -4 23 -5 36 -2 19 5 29 0 45 -20 19 -24 21 -25 31 -8 10 17 10 16 11 -3
0 -20 17 -34 41 -34 5 0 9 11 9 24 0 33 17 42 41 20 22 -20 26 -74 6 -74 -8 0
-24 -9 -37 -20 -13 -11 -31 -20 -42 -20 -10 0 -18 -4 -18 -10 0 -5 3 -9 8 -9
4 1 21 1 37 0 28 -2 29 -3 12 -15 -14 -11 -15 -15 -5 -19 7 -3 -9 -5 -37 -5
-27 1 -38 3 -22 5 38 6 24 23 -19 23 -19 0 -34 4 -34 10 0 5 3 9 8 9 4 -1 16
-1 27 1 l20 1 -20 9 c-19 9 -19 9 3 16 13 4 22 14 22 26 0 10 -4 17 -9 13 -6
-3 -13 0 -18 7 -9 14 -63 19 -63 6 0 -8 16 -12 33 -9 4 1 4 -7 -1 -16 -5 -10
-8 -24 -6 -31 1 -7 0 -8 -3 -2 -6 14 -33 13 -33 -1 0 -6 -7 -9 -15 -6 -19 8
-29 -9 -13 -20 7 -4 19 -19 26 -31 12 -21 11 -26 -5 -38 -10 -7 -26 -11 -36
-8 -14 5 -18 1 -15 -13 2 -10 11 -17 20 -15 15 2 34 -26 23 -36 -3 -3 -5 1 -5
9 0 12 -2 12 -10 -1 -6 -9 -5 -17 3 -22 8 -5 6 -8 -6 -8 -11 0 -15 -4 -11 -12
4 -6 3 -8 -4 -5 -5 4 -8 16 -5 27 4 15 0 20 -16 20 -11 0 -21 5 -21 10 0 6 -8
10 -17 10 -9 0 -13 -3 -10 -7 4 -3 0 -15 -10 -25 -13 -14 -13 -18 -2 -18 11 0
11 -2 -1 -10 -24 -15 -40 -12 -40 9 0 24 -6 28 -49 33 -21 2 -36 -2 -38 -9 -3
-7 2 -13 11 -13 25 0 26 -15 0 -16 -13 -1 -24 2 -24 7 0 19 -26 8 -36 -16 -10
-20 -9 -27 3 -37 14 -11 13 -13 -8 -18 -30 -8 -50 9 -38 32 14 27 11 48 -6 42
-10 -4 -13 -13 -10 -25 4 -11 2 -19 -5 -19 -6 0 -8 -4 -5 -10 4 -6 -5 -10 -19
-10 -14 0 -26 5 -26 11 0 7 -12 10 -30 7 -16 -3 -30 -1 -30 4 0 4 8 8 18 8 9
1 2 7 -17 15 -39 18 -51 19 -51 5 0 -5 9 -10 21 -10 11 0 17 -4 14 -10 -3 -5
-17 -10 -31 -10 -24 0 -35 -19 -11 -21 6 -1 1 -4 -13 -8 -15 -4 -26 -15 -28
-29 -4 -27 -22 -29 -22 -2 0 11 -5 20 -11 20 -9 0 -7 -16 8 -58 3 -6 -2 -12
-11 -12 -17 0 -19 -8 -16 -52 2 -28 -14 -38 -23 -15 -3 6 -6 -3 -6 -21 -1 -20
3 -31 9 -27 6 4 10 -25 10 -79 0 -78 -12 -112 -23 -69 -4 14 -5 13 -6 -4 0
-12 -5 -25 -11 -28 -6 -3 -7 1 -4 9 3 9 2 16 -4 16 -5 0 -12 -13 -15 -30 -7
-31 -27 -42 -27 -14 0 8 5 12 10 9 6 -3 10 1 10 9 0 9 -4 16 -10 16 -5 0 -10
7 -10 15 0 9 -6 12 -15 9 -13 -5 -15 9 -15 89 0 55 4 97 10 99 7 2 7 15 0 38
-5 19 -10 47 -10 61 0 14 -6 26 -12 26 -7 1 -35 2 -63 3 -27 1 -58 4 -67 7
-25 6 -22 23 2 18 11 -2 18 0 15 5 -7 12 -35 6 -46 -11 -7 -11 -9 -11 -9 4 0
9 -7 17 -15 17 -8 0 -15 6 -15 13 0 8 -4 7 -10 -3 -14 -21 -12 -28 8 -33 10
-3 7 -5 -10 -6 -17 -1 -37 9 -54 26 l-27 27 -19 -25 c-10 -13 -26 -34 -36 -46
-10 -13 -25 -20 -37 -18 -51 9 -199 14 -180 5 18 -8 17 -9 -10 -11 -49 -4 -89
1 -96 13 -4 7 -20 8 -45 3 -22 -4 -33 -10 -26 -12 18 -7 15 -33 -4 -33 -10 0
-14 -6 -10 -15 4 -11 -1 -15 -17 -15 -19 -1 -20 -2 -5 -10 15 -9 16 -30 1 -70
-12 -32 -12 -50 0 -50 7 -1 5 -6 -6 -14 -12 -10 -14 -15 -6 -18 7 -2 13 -16
13 -31 1 -20 -3 -27 -16 -27 -10 0 -18 -4 -18 -10 0 -5 7 -10 16 -10 12 0 15
-7 12 -30 -3 -17 -1 -30 4 -30 4 0 8 -27 8 -59 0 -47 -4 -60 -17 -66 -17 -6
-17 -7 1 -20 12 -9 17 -21 13 -35 -3 -13 0 -20 9 -20 8 0 14 -7 14 -15 0 -8 7
-15 15 -15 8 0 19 -9 25 -20 6 -11 15 -20 21 -20 12 0 43 -29 45 -42 1 -4 2
-11 3 -15 0 -3 12 4 26 17 33 31 57 18 63 -31 5 -49 16 -54 46 -22 32 34 33
55 4 68 -36 16 -33 39 7 55 19 7 35 18 35 23 0 5 7 7 15 3 8 -3 15 -1 15 4 0
5 -20 8 -43 7 -26 -1 -49 3 -56 10 -9 10 -1 13 43 13 30 0 58 5 61 10 9 15 38
12 32 -3 -9 -23 39 -44 58 -25 4 4 12 5 19 2 7 -3 18 7 24 20 13 29 32 26 47
-7 12 -25 -2 -67 -22 -67 -17 0 -17 -27 -1 -32 7 -3 -7 -8 -31 -12 -46 -7 -65
-1 -42 14 21 12 5 40 -24 40 -14 0 -25 -5 -25 -10 0 -6 -8 -5 -20 2 -10 7 -22
10 -25 7 -10 -10 6 -39 22 -39 10 0 12 -6 8 -19 -4 -12 4 -30 21 -50 22 -27
32 -31 73 -31 26 0 52 5 58 11 6 6 21 9 34 7 26 -3 39 -42 20 -61 -14 -14 -15
-70 -1 -62 10 6 14 -6 10 -40 -1 -11 1 -17 5 -13 4 3 7 10 7 15 0 15 19 32 33
27 7 -3 22 7 34 22 21 27 39 31 106 24 17 -2 36 -8 42 -13 7 -5 20 -7 28 -3 8
3 21 3 29 0 20 -8 -42 -102 -71 -110 -13 -3 -23 -10 -23 -14 0 -11 39 0 67 17
26 17 38 4 29 -32 -4 -15 -16 -27 -31 -31 -16 -4 -25 -13 -25 -25 0 -23 -16
-25 -28 -3 -6 11 -12 13 -16 6 -3 -6 -2 -13 4 -17 22 -13 10 -35 -19 -35 -30
0 -55 -9 -101 -35 -22 -13 -27 -13 -40 4 -17 22 -67 41 -55 21 5 -9 2 -10 -13
-6 -15 5 -21 1 -26 -20 -4 -14 -2 -32 4 -40 16 -19 3 -39 -16 -23 -8 6 -23 9
-33 6 -15 -3 -21 1 -23 17 -2 12 -10 20 -17 18 -8 -2 -18 3 -22 10 -7 10 -9 9
-9 -4 0 -9 7 -24 16 -32 14 -15 14 -16 0 -16 -9 0 -16 -7 -16 -15 0 -19 -14
-19 -34 1 -18 18 -38 10 -29 -11 3 -9 -1 -15 -10 -15 -8 0 -17 -9 -20 -20 -6
-25 -25 -26 -34 -3 -4 10 -13 24 -21 32 -7 8 -11 23 -8 35 3 11 -1 28 -10 37
-13 14 -13 18 1 29 14 12 14 15 -4 34 -14 16 -17 27 -10 44 10 26 27 28 43 6
6 -8 18 -16 26 -18 38 -7 77 -20 103 -33 26 -13 29 -13 48 11 11 14 28 26 36
26 9 0 13 3 10 7 -10 10 -120 3 -131 -8 -14 -13 -26 -11 -26 4 0 27 -26 66
-45 69 -13 2 -21 12 -23 31 -3 24 0 27 27 27 17 0 31 2 31 5 0 12 -32 54 -45
59 -21 8 -93 -31 -100 -55 -6 -17 -12 -19 -33 -14 -15 4 -50 8 -78 10 -57 3
-94 19 -94 40 0 8 -4 15 -10 15 -5 0 -10 -13 -10 -28 0 -26 -3 -28 -35 -26
-26 2 -38 -1 -42 -14 -4 -9 -13 -23 -20 -30 -7 -7 -13 -20 -13 -27 0 -10 -6
-12 -17 -8 -21 8 -49 44 -46 58 2 6 -3 2 -10 -9 -6 -10 -20 -28 -29 -40 -16
-21 -17 -20 -24 21 -3 24 -10 43 -15 43 -5 0 -9 -4 -9 -10 0 -5 -12 -9 -27 -9
-19 1 -22 3 -10 6 16 4 18 11 12 39 -3 21 -2 34 5 34 5 0 10 7 10 15 0 8 -7
15 -15 15 -11 0 -14 7 -9 25 4 15 2 25 -5 25 -6 0 -11 -11 -11 -25 0 -16 -4
-23 -14 -19 -21 8 -27 -22 -11 -65 13 -37 11 -80 -4 -82 -3 0 -16 -2 -28 -5
-19 -3 -23 1 -23 21 0 16 -6 25 -16 25 -12 0 -15 -6 -10 -25 4 -17 2 -27 -7
-31 -15 -5 -19 -34 -5 -34 4 0 8 7 8 15 0 8 7 15 17 15 27 0 93 -33 93 -47 0
-7 9 -17 20 -23 22 -12 24 -18 10 -40 -8 -12 -13 -13 -30 -2 -18 11 -24 9 -44
-11 -13 -13 -31 -27 -40 -30 -9 -4 -13 -13 -10 -22 5 -12 19 -15 63 -14 31 2
65 -1 76 -5 14 -6 16 -5 7 2 -8 5 -12 18 -10 28 3 15 10 18 33 16 17 -2 39 -9
50 -17 12 -7 30 -15 40 -18 18 -4 18 -5 2 -6 -10 0 -15 -6 -12 -12 13 -20 -5
-59 -30 -65 -14 -3 -25 -11 -25 -17 0 -6 -6 -3 -13 7 -12 17 -14 17 -31 -9
-23 -35 -17 -60 14 -60 52 -1 90 -16 90 -35 0 -23 -30 -34 -70 -25 -23 5 -31
2 -40 -15 -6 -11 -15 -18 -21 -15 -5 4 -9 1 -9 -4 0 -6 -9 -11 -19 -11 -11 0
-21 -4 -23 -8 -1 -4 -29 -20 -60 -36 -67 -32 -75 -41 -49 -55 34 -18 61 -13
71 14 5 14 17 25 26 25 13 0 15 -6 10 -31 -3 -17 -6 -35 -6 -40 0 -5 -11 -9
-24 -9 -13 0 -26 -6 -29 -14 -3 -8 -16 -16 -29 -18 -16 -2 -24 -11 -26 -29 -2
-17 -11 -29 -23 -32 -13 -4 -19 -12 -17 -24 2 -12 -4 -19 -19 -21 -19 -3 -23
1 -23 23 0 16 -4 24 -10 20 -6 -4 -8 -15 -5 -26 6 -18 -2 -24 -32 -20 -15 2
-17 -25 -3 -34 6 -3 10 -1 10 4 0 6 5 11 10 11 6 0 10 -6 10 -14 0 -27 34 -28
56 -2 23 26 31 29 82 27 28 -1 32 -4 27 -20 -3 -11 1 -26 11 -35 9 -9 17 -22
18 -29 8 -47 17 -55 64 -59 34 -4 50 -1 59 10 7 9 15 13 19 10 3 -4 28 0 56 9
38 11 53 12 62 3 8 -9 4 -17 -17 -34 l-29 -23 42 -7 c24 -4 45 -4 48 -2 2 3
11 -1 18 -9 22 -22 -13 -76 -46 -73 -20 2 -24 8 -22 25 3 21 -7 28 -31 24 -4
-1 -10 5 -13 12 -7 19 -78 13 -112 -9 l-26 -17 22 -8 c33 -13 22 -56 -18 -72
-8 -3 972 -6 2178 -6 l2192 -1 0 248 c0 180 -3 251 -12 260 -9 9 -9 12 0 12 9
0 12 62 12 249 l0 250 -22 4 -23 4 23 2 22 1 0 794 c0 626 -3 795 -12 799 -10
4 -10 6 0 6 15 1 16 74 1 103 -8 14 -8 23 0 31 19 19 14 85 -6 90 -17 4 -17 5
0 6 16 1 17 40 17 666 0 627 -1 665 -17 665 -17 1 -17 1 0 14 16 12 17 62 17
783 0 585 -3 772 -12 781 -9 9 -9 12 0 12 17 0 16 97 0 103 -10 4 -10 7 0 18
6 7 12 30 12 51 0 31 -4 38 -20 38 -11 0 -20 5 -20 10 0 6 9 10 20 10 20 0 20
6 20 545 l0 545 -174 0 c-148 0 -179 -3 -206 -17 -30 -17 -32 -17 -44 0 -12
16 -40 17 -330 17 -319 0 -361 -4 -350 -35 5 -11 -1 -15 -24 -15 -26 0 -29 3
-24 25 4 24 3 25 -50 25 -30 0 -59 -5 -66 -12z m935 -108 c-1 -29 -6 -40 -17
-40 -11 0 -15 10 -14 33 1 45 2 47 18 47 11 0 15 -11 13 -40z m75 -132 c12
-14 15 -24 8 -26 -14 -5 -41 18 -35 28 3 5 -1 11 -7 13 -10 4 -9 6 1 6 7 1 22
-9 33 -21z m-549 -7 c-3 -11 -11 -17 -19 -14 -10 4 -11 8 -1 19 17 19 26 17
20 -5z m-156 -46 c-4 -8 -13 -15 -22 -15 -13 0 -12 3 3 18 19 21 27 20 19 -3z
m226 -21 c-4 -10 -9 -12 -15 -6 -12 12 -1 35 12 27 5 -3 6 -13 3 -21z m-173
-34 c0 -5 -4 -10 -10 -10 -5 0 -10 5 -10 10 0 6 5 10 10 10 6 0 10 -4 10 -10z
m286 -69 c-14 -13 -16 -13 -21 1 -4 9 -1 27 6 39 l12 23 9 -24 c6 -17 5 -28
-6 -39z m-256 20 c0 -6 -4 -13 -10 -16 -5 -3 -10 1 -10 9 0 9 5 16 10 16 6 0
10 -4 10 -9z m147 -50 c2 -10 20 -25 39 -34 19 -9 34 -22 34 -28 0 -6 11 -9
25 -7 13 2 25 -1 27 -7 5 -17 -67 -18 -82 -1 -7 9 -21 16 -31 16 -11 0 -28 9
-39 20 -17 17 -18 23 -8 40 16 25 28 26 35 1z m-247 -31 c0 -5 -7 -10 -15 -10
-8 0 -15 5 -15 10 0 6 7 10 15 10 8 0 15 -4 15 -10z m100 -76 c0 -8 -4 -14
-10 -14 -5 0 -10 9 -10 21 0 11 5 17 10 14 6 -3 10 -13 10 -21z m158 -27 c16
-19 4 -54 -21 -61 -36 -9 -117 -7 -117 4 0 6 9 10 20 10 11 0 20 5 20 10 0 6
6 10 13 10 7 0 20 9 30 20 19 23 40 26 55 7z m199 -53 c-3 -3 -12 -4 -19 -1
-8 3 -5 6 6 6 11 1 17 -2 13 -5z m-125 -45 c3 -16 1 -29 -4 -29 -4 0 -8 -9 -8
-20 0 -36 -27 -22 -35 17 -4 21 -11 41 -17 44 -19 12 1 26 31 21 23 -3 30 -10
33 -33z m15 -87 c14 -9 47 -82 40 -88 -10 -11 -54 20 -70 48 -14 25 -15 33 -5
39 16 11 20 11 35 1z m-147 -29 c-24 -17 -35 -12 -27 11 4 9 14 12 27 9 l21
-6 -21 -14z m370 -42 c0 -10 -24 -22 -55 -28 -15 -2 -12 2 10 17 33 22 45 25
45 11z m-300 -31 c0 -5 6 -7 14 -4 7 3 16 -2 19 -10 4 -9 18 -16 32 -16 18 0
25 -5 25 -20 0 -11 -8 -23 -17 -26 -10 -4 -37 -15 -60 -25 -24 -10 -47 -19
-52 -19 -5 0 -15 20 -23 44 -19 56 -6 75 55 85 4 0 7 -3 7 -9z m-159 -40 c19
0 8 -20 -14 -25 -19 -5 -23 -11 -19 -36 5 -33 3 -34 -33 -17 -32 14 -32 36 0
48 14 5 25 17 25 26 0 11 5 14 16 10 9 -3 20 -6 25 -6z m314 -50 c11 -17 -5
-32 -21 -19 -8 6 -14 15 -14 20 0 12 27 11 35 -1z m-510 -10 c3 -5 -1 -10 -9
-10 -9 0 -16 5 -16 10 0 6 4 10 9 10 6 0 13 -4 16 -10z m264 -9 c8 -5 12 -18
8 -29 -2 -12 0 -23 7 -26 8 -3 8 -5 0 -5 -22 -2 -58 35 -51 52 7 19 16 21 36
8z m241 -93 c0 -6 7 -7 16 -4 8 3 12 2 9 -4 -3 -6 -17 -10 -31 -10 -17 0 -24
5 -24 20 0 13 5 18 15 14 8 -4 15 -11 15 -16z m-348 -35 c4 -45 19 -47 32 -5
8 27 11 29 32 20 30 -14 35 -30 21 -67 -9 -24 -8 -34 1 -43 9 -9 12 -9 12 0 0
8 11 7 35 -5 33 -16 36 -15 55 2 18 16 20 16 20 2 0 -10 -4 -17 -9 -17 -5 0
-11 -13 -13 -30 -3 -16 -1 -30 4 -30 14 0 5 -43 -9 -48 -7 -2 -13 3 -13 11 0
7 -9 22 -20 32 -11 10 -20 28 -21 39 0 15 -2 17 -6 6 -3 -8 -12 -19 -19 -23
-11 -6 -11 -12 -2 -27 14 -22 3 -39 -14 -22 -7 7 -23 12 -36 12 -18 0 -22 -4
-17 -19 10 -34 -17 -42 -50 -13 -19 16 -25 27 -17 30 21 7 13 31 -13 38 -37 9
-31 28 15 49 22 10 40 19 40 21 0 16 -16 34 -30 34 -23 0 -84 56 -75 69 3 6
12 8 19 5 8 -3 17 -1 21 5 3 6 17 11 30 11 20 0 24 -6 27 -37z m638 -14 c0
-24 -23 -21 -28 4 -2 10 3 17 12 17 10 0 16 -9 16 -21z m-760 -23 c0 -19 -25
-27 -39 -13 -18 18 -13 27 14 27 15 0 25 -6 25 -14z m50 -16 c12 -8 12 -10 -3
-16 -9 -3 -17 -10 -17 -16 0 -14 -26 -38 -41 -38 -7 0 -3 10 9 23 12 13 19 26
16 30 -7 7 4 27 14 27 4 0 14 -4 22 -10z m-210 -15 c-7 -9 -15 -13 -19 -10 -3
3 1 10 9 15 21 14 24 12 10 -5z m897 -41 c-3 -3 -12 -4 -19 -1 -8 3 -5 6 6 6
11 1 17 -2 13 -5z m207 -45 c-5 -8 -10 -6 -16 5 -5 9 -6 21 -2 27 5 8 10 6 16
-5 5 -9 6 -21 2 -27z m-994 10 c0 -6 -7 -26 -16 -45 -9 -18 -14 -39 -11 -46 3
-7 6 -3 6 10 1 13 7 22 17 22 9 0 18 9 21 20 7 26 24 21 40 -11 11 -22 10 -25
-13 -31 -14 -4 -32 -4 -39 -2 -20 8 -12 -24 10 -40 17 -12 17 -17 5 -47 -17
-43 -31 -58 -37 -41 -8 20 -30 14 -37 -10 -9 -35 -30 -6 -31 43 -1 33 4 44 22
56 18 12 23 25 23 55 0 41 14 78 30 78 6 0 10 -5 10 -11z m-67 -16 c-7 -2 -19
-2 -25 0 -7 3 -2 5 12 5 14 0 19 -2 13 -5z m632 -3 c3 -5 1 -10 -4 -10 -6 0
-11 5 -11 10 0 6 2 10 4 10 3 0 8 -4 11 -10z m373 -22 c2 -9 -4 -18 -13 -21
-11 -5 -15 0 -15 19 0 28 23 29 28 2z m-1098 -8 c0 -5 -4 -10 -10 -10 -5 0
-10 5 -10 10 0 6 5 10 10 10 6 0 10 -4 10 -10z m-15 -29 c3 -5 1 -12 -5 -16
-5 -3 -10 1 -10 9 0 18 6 21 15 7z m755 -51 c-6 -11 -15 -18 -21 -15 -15 10
-11 23 9 28 9 3 18 5 20 6 1 0 -2 -8 -8 -19z m-170 0 c0 -5 -2 -10 -4 -10 -3
0 -8 5 -11 10 -3 6 -1 10 4 10 6 0 11 -4 11 -10z m-580 -25 c0 -19 -5 -25 -20
-25 -20 0 -20 1 -3 25 22 30 23 30 23 0z m375 -155 c-3 -5 -10 -10 -16 -10 -5
0 -9 5 -9 10 0 6 7 10 16 10 8 0 12 -4 9 -10z m519 -86 c22 -8 20 -19 -4 -21
-11 -1 -20 4 -20 13 0 16 2 16 24 8z m249 -6 c2 -7 2 -21 -1 -31 -3 -14 -7
-15 -18 -6 -18 15 -18 49 0 49 8 0 16 -6 19 -12z m-179 -67 c9 -14 -19 -31
-47 -29 -25 2 -25 3 -10 20 17 19 48 24 57 9z m-834 -191 c0 -13 -11 -13 -30
0 -12 8 -11 10 8 10 12 0 22 -4 22 -10z m-190 -95 c0 -8 -4 -15 -10 -15 -5 0
-10 7 -10 15 0 8 5 15 10 15 6 0 10 -7 10 -15z m190 -31 c0 -35 3 -45 14 -41
24 9 7 -29 -20 -43 -19 -11 -26 -11 -39 0 -16 13 -45 7 -45 -10 0 -5 7 -10 15
-10 10 0 15 -10 15 -30 l0 -31 -35 28 c-19 15 -35 32 -35 36 0 5 -5 5 -10 2
-11 -7 -40 12 -40 26 0 4 9 11 20 14 12 4 23 18 27 36 3 16 9 26 14 23 5 -3 7
-10 4 -15 -9 -13 36 -28 68 -22 24 5 27 10 27 44 0 22 5 39 10 39 6 0 10 -21
10 -46z m-3617 -23 c3 -11 2 -22 -1 -25 -10 -10 -9 -446 1 -446 5 0 4 -7 -3
-15 -8 -10 -9 -15 -1 -15 7 0 8 -8 2 -23 -7 -17 -15 -367 -11 -484 1 -35 1
-87 -1 -117 0 -19 2 -43 6 -55 4 -13 2 -21 -5 -21 -6 0 -8 -5 -3 -12 12 -21
12 -138 -1 -138 -7 0 -7 -3 -1 -8 8 -6 17 -572 9 -572 -2 0 -54 109 -103 215
-10 22 -51 117 -91 210 -40 94 -81 188 -91 210 -73 160 -89 196 -89 200 0 6
-37 92 -51 117 -15 29 -39 102 -38 118 0 8 8 29 17 47 37 70 98 188 120 232
12 25 27 53 32 61 5 8 26 48 46 88 20 40 41 75 45 78 5 3 9 14 9 25 0 10 5 19
10 19 6 0 10 7 10 15 0 8 5 15 10 15 6 0 10 6 10 14 0 7 12 35 26 62 15 27 41
76 58 109 17 33 37 66 44 73 6 7 12 20 12 28 0 21 17 17 23 -5z m3701 -57 c23
-9 20 -34 -3 -34 -14 0 -19 6 -18 20 1 11 2 20 3 20 1 0 9 -3 18 -6z m-114
-114 c32 -32 26 -42 -35 -61 -14 -4 -23 53 -10 68 14 17 22 16 45 -7z m-62
-68 c3 -9 -2 -13 -14 -10 -9 1 -19 9 -22 16 -3 9 2 13 14 10 9 -1 19 -9 22
-16z m-123 -2 c4 -6 -5 -10 -20 -10 -15 0 -24 4 -20 10 3 6 12 10 20 10 8 0
17 -4 20 -10z m148 -117 c-7 -2 -13 -11 -13 -19 0 -8 -7 -14 -15 -14 -8 0 -15
6 -15 14 0 15 15 24 40 24 10 0 11 -1 3 -5z m-34 -139 c-8 -9 -16 -11 -22 -5
-11 11 0 34 14 26 5 -4 10 2 10 12 1 17 2 17 6 0 3 -10 -1 -25 -8 -33z m-2910
-6 c20 -13 43 -21 52 -20 20 3 46 -36 44 -65 -1 -13 2 -23 7 -23 4 0 8 -7 8
-15 0 -8 5 -15 11 -15 7 0 10 -13 7 -34 -2 -19 0 -32 4 -30 4 3 5 -9 2 -25 -4
-17 -3 -38 2 -48 8 -20 12 -183 4 -183 -3 0 -6 -27 -6 -60 0 -33 -5 -65 -11
-71 -15 -15 -143 9 -160 30 -10 11 -13 86 -13 298 0 156 3 283 6 283 4 0 23
-10 43 -22z m2751 -32 c0 -3 -5 -17 -11 -33 -8 -22 -12 -24 -19 -13 -17 26
-11 50 10 50 11 0 20 -2 20 -4z m110 -3 c0 -14 -20 -39 -20 -25 0 6 -7 12 -15
12 -8 0 -15 5 -15 10 0 6 11 10 25 10 14 0 25 -3 25 -7z m-360 -34 c0 -5 4 -8
9 -4 6 3 15 -3 20 -14 9 -15 7 -20 -12 -25 -29 -8 -37 -7 -36 2 1 4 0 9 -1 12
-8 23 -6 40 6 40 8 0 14 -5 14 -11z m170 -28 c0 -6 -4 -12 -9 -15 -13 -8 -42
4 -35 15 7 12 44 12 44 0z m-274 -26 c-3 -8 -1 -15 4 -15 6 0 10 6 11 13 0 6
4 3 8 -8 11 -27 7 -30 -29 -15 -28 12 -29 14 -13 26 23 17 26 17 19 -1z m448
-104 c3 -5 -4 -11 -15 -14 -12 -3 -18 -10 -15 -15 3 -5 -6 -7 -19 -4 -30 5
-40 18 -24 28 8 5 9 3 4 -6 -6 -9 -2 -10 16 -5 13 4 26 12 27 16 5 12 19 11
26 0z m66 -21 c0 -5 -7 -7 -15 -4 -8 4 -15 8 -15 10 0 2 7 4 15 4 8 0 15 -4
15 -10z m-20 -31 c0 -14 -17 -10 -23 5 -4 10 -1 13 9 9 7 -3 14 -9 14 -14z
m47 -15 c-3 -3 -12 -4 -19 -1 -8 3 -5 6 6 6 11 1 17 -2 13 -5z m-1868 -61 c10
-17 10 -16 11 2 0 12 3 16 8 9 4 -6 26 -15 50 -19 23 -4 42 -11 42 -16 0 -6 6
-9 13 -8 14 3 69 -22 78 -35 4 -5 15 -5 25 -1 13 5 15 9 7 12 -7 3 -13 9 -13
14 0 6 3 8 8 5 12 -7 43 20 40 35 -2 9 8 15 25 17 19 2 27 -1 27 -12 0 -9 -4
-16 -9 -16 -5 0 -7 -9 -4 -20 3 -13 0 -20 -8 -20 -9 -1 -7 -6 6 -15 16 -13 18
-20 9 -43 -6 -16 -7 -38 -3 -50 6 -17 5 -22 -7 -22 -14 0 -14 -2 0 -16 9 -8
16 -20 16 -25 0 -11 -23 -8 -165 23 -49 10 -116 23 -147 29 -55 11 -97 38 -72
46 7 2 10 12 7 23 -6 22 25 120 37 120 5 0 14 -8 19 -17z m2811 -83 c10 -6 11
-10 3 -10 -7 0 -13 -10 -13 -22 0 -21 -1 -21 -16 -6 -9 9 -14 24 -11 32 7 18
16 20 37 6z m180 0 c0 -5 -7 -10 -15 -10 -8 0 -15 5 -15 10 0 6 7 10 15 10 8
0 15 -4 15 -10z m10 -30 c0 -5 -4 -10 -10 -10 -5 0 -10 5 -10 10 0 6 5 10 10
10 6 0 10 -4 10 -10z m-319 -100 c5 0 9 -7 9 -15 0 -17 -45 -21 -55 -5 -9 15
5 32 22 26 8 -3 19 -6 24 -6z m-781 -90 c0 -5 -7 -10 -16 -10 -8 0 -12 5 -9
10 3 6 10 10 16 10 5 0 9 -4 9 -10z m833 -50 c0 -30 -5 -45 -17 -52 -14 -8
-17 -6 -15 9 1 10 -3 31 -10 46 -14 34 -7 48 21 44 18 -3 21 -11 21 -47z
m-908 30 c-3 -5 -10 -10 -16 -10 -5 0 -9 5 -9 10 0 6 7 10 16 10 8 0 12 -4 9
-10z m85 -20 c-6 -11 -16 -20 -23 -20 -8 0 -8 3 2 9 7 5 10 14 7 20 -4 6 0 11
9 11 13 0 14 -4 5 -20z m-1161 -18 c0 -9 3 -61 6 -114 8 -99 2 -148 -15 -148
-6 0 -10 57 -10 146 0 88 4 143 9 139 6 -3 10 -13 10 -23z m1008 -114 c-3 -7
-5 -2 -5 12 0 14 2 19 5 13 2 -7 2 -19 0 -25z m1013 22 c13 -8 13 -10 -2 -10
-9 0 -20 5 -23 10 -8 13 5 13 25 0z m-883 -27 c2 -6 -4 -10 -13 -9 -10 2 -20
8 -22 15 -3 8 3 12 14 9 9 -1 19 -8 21 -15z m942 -12 c16 -10 5 -17 -31 -19
-28 -2 -38 12 -15 21 19 8 31 8 46 -2z m-1062 -93 c-3 -8 -6 -5 -6 6 -1 11 2
17 5 13 3 -3 4 -12 1 -19z m-30 -45 c-3 -10 -5 -2 -5 17 0 19 2 27 5 18 2 -10
2 -26 0 -35z m-977 -15 c0 -7 -7 -22 -15 -32 -14 -19 -15 -18 -15 12 0 22 5
32 15 32 8 0 15 -6 15 -12z m-445 -68 c3 -5 1 -10 -4 -10 -6 0 -11 5 -11 10 0
6 2 10 4 10 3 0 8 -4 11 -10z m2070 -20 c3 -5 -1 -10 -9 -10 -9 0 -16 5 -16
10 0 6 4 10 9 10 6 0 13 -4 16 -10z m-625 -45 c0 -13 -7 -25 -15 -29 -12 -4
-15 3 -15 29 0 26 3 33 15 29 8 -4 15 -16 15 -29z m-1729 5 c1 -8 1 -18 0 -23
-1 -4 8 -2 20 5 17 11 22 10 33 -4 7 -10 18 -18 25 -18 6 0 11 -5 11 -12 0 -6
3 -8 7 -4 4 4 8 15 8 24 0 11 7 16 18 14 9 -2 17 2 17 9 0 8 5 7 17 -2 14 -12
17 -12 21 0 4 11 6 11 13 0 6 -10 9 -11 9 -1 0 6 7 12 15 12 8 0 15 5 15 10 0
11 39 14 41 3 1 -5 3 -17 4 -28 2 -11 6 -33 10 -49 5 -19 4 -27 -2 -23 -6 4
-13 -4 -15 -18 -3 -16 0 -26 11 -30 14 -6 14 -8 -1 -19 -10 -7 -18 -20 -18
-29 0 -10 -6 -13 -20 -10 -19 5 -19 6 -4 18 13 9 14 14 5 19 -16 10 -44 -1
-36 -14 3 -5 0 -10 -7 -11 -7 0 10 -9 37 -19 54 -20 33 -27 -25 -9 -19 6 -62
11 -95 10 -56 -1 -64 1 -96 31 -46 43 -69 80 -84 139 l-13 48 39 -2 c27 -1 39
-6 40 -17z m706 -12 c-3 -7 -5 -2 -5 12 0 14 2 19 5 13 2 -7 2 -19 0 -25z
m1156 8 c28 -21 20 -34 -20 -33 -21 1 -37 5 -35 10 1 4 2 14 2 22 0 18 29 19
53 1z m192 -46 c3 -5 1 -10 -4 -10 -6 0 -11 5 -11 10 0 6 2 10 4 10 3 0 8 -4
11 -10z m260 0 c3 -5 -1 -10 -9 -10 -9 0 -16 5 -16 10 0 6 4 10 9 10 6 0 13
-4 16 -10z m-535 -52 c9 -9 27 -18 40 -20 33 -4 40 -43 11 -53 -12 -3 -21 -11
-21 -16 0 -18 -39 -9 -54 13 -9 12 -16 17 -16 10 0 -7 -5 -10 -11 -6 -6 3 -15
0 -20 -7 -6 -9 -9 0 -9 29 0 31 4 42 15 42 9 0 18 7 21 15 7 18 24 15 44 -7z
m577 -50 c-3 -8 -6 -5 -6 6 -1 11 2 17 5 13 3 -3 4 -12 1 -19z m-307 -4 c0
-17 -22 -14 -28 4 -2 7 3 12 12 12 9 0 16 -7 16 -16z m20 -34 c0 -5 -2 -10 -4
-10 -3 0 -8 5 -11 10 -3 6 -1 10 4 10 6 0 11 -4 11 -10z m342 -80 c3 -19 0
-30 -8 -30 -13 0 -28 46 -19 61 10 15 22 1 27 -31z m-328 -6 c4 -9 4 -19 1
-22 -3 -3 -5 0 -5 6 0 7 -11 12 -25 12 -14 0 -25 5 -25 10 0 17 47 11 54 -6z
m-209 -4 c3 -5 -1 -10 -9 -10 -9 0 -16 5 -16 10 0 6 4 10 9 10 6 0 13 -4 16
-10z m719 -25 c-4 -8 -8 -15 -10 -15 -2 0 -4 7 -4 15 0 8 4 15 10 15 5 0 7 -7
4 -15z m-314 -55 c0 -5 -2 -10 -4 -10 -3 0 -8 5 -11 10 -3 6 -1 10 4 10 6 0
11 -4 11 -10z m81 -6 c11 -14 10 -18 -6 -31 -22 -15 -86 -14 -92 3 -3 10 48
40 73 43 6 0 18 -6 25 -15z m402 -219 c1 -5 -6 -11 -15 -13 -11 -2 -18 3 -18
13 0 17 30 18 33 0z m-553 -5 c0 -5 -4 -10 -10 -10 -5 0 -10 5 -10 10 0 6 5
10 10 10 6 0 10 -4 10 -10z m-1268 -67 c-6 -2 -10 -9 -7 -14 4 -5 -1 -6 -10
-2 -13 5 -14 7 -3 14 7 5 18 8 23 8 6 0 4 -3 -3 -6z m1788 -13 c0 -5 -5 -10
-11 -10 -5 0 -7 5 -4 10 3 6 8 10 11 10 2 0 4 -4 4 -10z m-1800 -24 c0 -2 -37
0 -48 3 -2 1 0 6 3 11 5 9 45 -3 45 -14z m2003 -12 c-4 -10 -9 -12 -15 -6 -12
12 -1 35 12 27 5 -3 6 -13 3 -21z m-1199 7 c4 -5 -3 -7 -14 -4 -23 6 -26 13
-6 13 8 0 17 -4 20 -9z m486 -12 c0 -5 -4 -9 -10 -9 -5 0 -10 7 -10 16 0 8 5
12 10 9 6 -3 10 -10 10 -16z m-95 1 c3 -5 19 -10 36 -10 28 0 39 -13 20 -24
-15 -10 -71 6 -71 19 0 8 -6 16 -12 18 -8 3 -7 6 4 6 9 1 20 -3 23 -9z m-825
-20 c-6 -4 -10 -11 -8 -16 1 -5 -7 -10 -19 -12 -17 -3 -21 0 -17 12 3 9 12 16
20 16 8 0 14 5 14 11 0 5 5 7 11 3 8 -5 8 -9 -1 -14z m1605 -10 c3 -6 -1 -13
-10 -16 -19 -8 -30 0 -20 15 8 14 22 14 30 1z m-2040 -36 c14 -9 25 -13 25 -9
0 4 6 2 13 -4 8 -6 17 -8 21 -4 4 4 4 0 1 -9 -8 -21 -35 -32 -49 -18 -5 5 -27
10 -47 10 -44 0 -60 17 -34 37 24 17 40 17 70 -3z m355 -77 c0 -14 -20 -37
-32 -37 -4 0 -8 11 -8 25 0 18 5 25 20 25 11 0 20 -6 20 -13z m130 3 c0 -11
-22 -18 -37 -12 -21 7 -15 17 12 18 14 1 25 -2 25 -6z m-520 -20 c0 -11 -2
-20 -4 -20 -2 0 -11 -3 -20 -6 -13 -5 -13 -2 -3 20 14 31 27 34 27 6z m84 -6
c3 -9 6 -25 6 -37 0 -15 -3 -18 -11 -10 -6 6 -18 9 -25 6 -8 -3 -14 1 -14 11
0 23 4 31 13 29 4 -2 7 2 7 7 0 16 17 12 24 -6z m86 1 c0 -8 -4 -15 -9 -15 -5
0 -11 7 -15 15 -3 9 0 15 9 15 8 0 15 -7 15 -15z m265 -45 c-23 -25 -55 -27
-50 -2 2 9 4 18 4 20 1 1 15 2 33 2 30 0 31 0 13 -20z m-485 -44 c0 -16 -20
-24 -20 -8 0 4 -3 18 -7 32 -6 23 -6 24 10 8 9 -9 17 -24 17 -32z m220 19 c0
-19 -11 -19 -36 0 -18 14 -18 14 9 15 17 0 27 -5 27 -15z m178 -24 c2 -14 -2
-21 -13 -21 -12 0 -15 -6 -10 -20 7 -23 -10 -34 -45 -28 l-21 3 21 23 c17 18
18 22 5 22 -12 0 -15 6 -9 23 4 12 11 25 17 29 17 11 52 -8 55 -31z m92 19 c0
-5 -4 -10 -10 -10 -5 0 -10 5 -10 10 0 6 5 10 10 10 6 0 10 -4 10 -10z m-19
-35 c0 -13 -41 -19 -41 -7 0 11 20 22 33 18 5 -1 8 -6 8 -11z m-391 -48 c14
-12 29 -25 35 -29 5 -5 4 -8 -3 -8 -7 0 -21 9 -33 21 -11 11 -27 18 -34 15 -8
-3 -15 0 -17 6 -3 7 -10 8 -18 3 -10 -6 -9 -11 5 -22 16 -11 16 -13 3 -13 -25
0 -37 22 -29 56 2 12 67 -9 91 -29z m1059 -33 c-7 -13 -21 -24 -31 -24 -26 0
-22 19 7 32 14 6 25 18 26 27 0 12 2 12 6 3 3 -8 0 -25 -8 -38z m-755 -4 c19
-7 26 -17 26 -36 0 -21 -4 -25 -20 -21 -11 3 -26 -1 -34 -8 -17 -18 -30 -7
-14 12 8 11 7 17 -8 28 -16 13 -17 16 -4 25 19 12 23 12 54 0z m-399 -29 c3
-6 -4 -9 -15 -8 -11 1 -20 5 -20 9 0 11 28 10 35 -1z m508 -11 c-7 -25 -19
-34 -28 -20 -10 16 2 40 19 40 9 0 12 -7 9 -20z m1401 1 c16 -17 16 -19 0 -25
-19 -7 -44 10 -44 30 0 20 24 17 44 -5z m-1584 2 c-2 -36 -100 -73 -100 -38 0
17 14 26 54 36 43 10 46 10 46 2z m1833 -7 c7 -19 -18 -42 -28 -26 -8 13 1 40
14 40 5 0 11 -6 14 -14z m-1971 -15 c4 -3 1 -14 -6 -23 -12 -17 -16 -17 -45
-2 -33 16 -39 29 -18 37 13 5 58 -2 69 -12z m926 -15 c3 -26 -12 -56 -28 -56
-4 0 -11 11 -14 25 -4 16 -13 25 -26 25 -10 0 -22 5 -26 12 -5 7 -1 9 13 6 11
-3 28 1 38 9 26 18 39 12 43 -21z m856 -49 c-4 -11 -18 -17 -40 -17 -43 0 -44
16 -1 34 35 15 51 8 41 -17z m176 23 c0 -5 -7 -10 -15 -10 -8 0 -15 5 -15 10
0 6 7 10 15 10 8 0 15 -4 15 -10z m-863 -25 c3 -9 -2 -22 -13 -30 -28 -21 -34
-18 -34 15 0 23 4 30 20 30 11 0 23 -7 27 -15z m600 -17 c-3 -8 -6 -5 -6 6 -1
11 2 17 5 13 3 -3 4 -12 1 -19z m-1652 2 c-3 -5 -10 -10 -16 -10 -5 0 -9 5 -9
10 0 6 7 10 16 10 8 0 12 -4 9 -10z m515 -34 c0 -3 -4 -8 -10 -11 -5 -3 -10
-1 -10 4 0 6 5 11 10 11 6 0 10 -2 10 -4z m340 -56 c0 -35 -17 -40 -29 -7 -5
14 -4 25 3 29 20 14 26 8 26 -22z m-1393 -5 c0 -8 -6 -15 -13 -15 -8 0 -11 6
-8 15 4 8 9 15 13 15 4 0 8 -7 8 -15z m270 -1 c-3 -3 -12 -4 -19 -1 -8 3 -5 6
6 6 11 1 17 -2 13 -5z m1323 -19 c0 -8 -4 -15 -9 -15 -5 0 -11 7 -15 15 -3 9
0 15 9 15 8 0 15 -7 15 -15z m95 -115 c-3 -5 -10 -10 -16 -10 -5 0 -9 5 -9 10
0 6 7 10 16 10 8 0 12 -4 9 -10z m-1965 -169 c0 -5 -6 -12 -12 -14 -8 -3 -6
-6 5 -6 21 -1 22 -11 2 -37 -13 -16 -14 -16 -9 -1 3 9 1 17 -5 17 -6 0 -11 11
-11 25 0 16 6 25 15 25 8 0 15 -4 15 -9z m1300 -61 c0 -5 -4 -10 -10 -10 -5 0
-10 5 -10 10 0 6 5 10 10 10 6 0 10 -4 10 -10z m30 -4 c0 -3 -4 -8 -10 -11 -5
-3 -10 -1 -10 4 0 6 5 11 10 11 6 0 10 -2 10 -4z m-15 -36 c-3 -5 -11 -10 -16
-10 -6 0 -7 5 -4 10 3 6 11 10 16 10 6 0 7 -4 4 -10z m-1705 -42 c0 -23 -3
-29 -11 -21 -6 6 -8 20 -4 32 9 30 15 26 15 -11z m106 14 c6 -4 14 -19 17 -33
7 -29 -10 -52 -34 -47 -8 2 -14 -4 -14 -12 0 -10 12 -16 32 -18 30 -3 31 -4
15 -20 -16 -17 -19 -16 -54 0 -20 10 -45 18 -55 19 -11 0 -13 3 -5 6 6 2 10 8
7 13 -3 5 8 11 25 15 34 7 38 25 13 50 -14 14 -14 18 -2 26 17 11 40 11 55 1z
m-89 -64 c-3 -8 -6 -5 -6 6 -1 11 2 17 5 13 3 -3 4 -12 1 -19z m-20 -10 c-3
-8 -6 -5 -6 6 -1 11 2 17 5 13 3 -3 4 -12 1 -19z m384 -5 c8 -9 9 -14 3 -10
-7 4 -14 0 -18 -8 -3 -8 -10 -15 -16 -15 -14 0 -12 37 3 43 6 3 13 6 13 6 1 1
8 -7 15 -16z m10 -47 c5 3 9 0 9 -6 0 -15 -23 -7 -26 8 -1 7 0 8 3 2 2 -5 9
-8 14 -4z m-67 -13 c3 -10 9 -24 12 -30 4 -9 -6 -13 -35 -13 -23 0 -41 2 -41
4 0 7 45 56 51 56 4 0 9 -8 13 -17z m-419 -17 c-4 -14 -3 -17 3 -8 6 9 15 10
33 3 24 -10 24 -10 2 -10 -16 -1 -23 -7 -23 -22 0 -18 4 -20 31 -14 29 6 31 5
27 -13 -4 -14 1 -23 19 -31 31 -14 36 -14 30 3 -3 8 2 16 14 19 15 4 23 -1 29
-19 13 -33 29 -30 37 6 4 22 9 28 18 20 6 -5 15 -7 18 -3 4 3 7 1 7 -6 0 -8 8
-11 20 -8 13 3 20 0 20 -10 0 -8 -6 -13 -12 -11 -15 5 -38 -15 -38 -32 0 -6
12 -10 27 -8 19 2 29 10 33 27 8 34 36 40 99 21 43 -14 57 -23 59 -39 3 -20 2
-21 -18 -9 -19 11 -24 10 -37 -9 -9 -13 -23 -23 -32 -23 -14 0 -14 2 -1 10 12
8 11 10 -7 11 -13 1 -28 2 -33 3 -6 1 -16 -10 -23 -23 -7 -14 -25 -28 -43 -33
-18 -4 -43 -19 -55 -33 -30 -31 -35 -31 -43 1 -6 22 -11 25 -33 19 -23 -5 -25
-4 -14 9 7 9 9 21 5 28 -5 7 -9 19 -10 25 -3 19 -28 40 -42 35 -7 -2 -19 2
-27 8 -24 20 -45 4 -45 -32 1 -27 2 -30 11 -15 10 17 49 24 49 9 0 -18 -33
-52 -51 -52 -16 0 -19 -4 -14 -21 l7 -20 -41 21 c-27 13 -41 27 -41 40 0 11 4
20 10 20 5 0 7 6 4 14 -3 7 1 16 10 19 10 4 14 18 12 48 -2 40 -4 42 -36 46
-41 4 -53 13 -18 13 14 0 29 7 32 16 3 8 2 12 -4 9 -5 -3 -8 0 -5 7 3 8 22 14
45 14 36 1 40 -1 35 -20z m505 -57 c0 -11 -11 -11 -29 0 -7 5 -10 14 -6 20 5
9 10 9 21 0 8 -6 14 -15 14 -20z m1110 5 c0 -8 -7 -14 -15 -14 -17 0 -18 2 -9
24 7 18 24 12 24 -10z m-1176 -3 c3 -5 0 -11 -8 -14 -15 -6 -26 1 -26 15 0 11
27 10 34 -1z m436 -88 c0 -17 -39 -52 -58 -53 -7 0 -21 6 -32 13 -17 10 -22 9
-30 -3 -7 -11 -12 -12 -20 -4 -21 21 0 41 50 48 27 4 52 11 55 16 8 13 35 0
35 -17z m-995 -33 c-3 -5 -10 -10 -16 -10 -5 0 -9 5 -9 10 0 6 7 10 16 10 8 0
12 -4 9 -10z m2385 -30 c0 -5 -2 -10 -4 -10 -3 0 -8 5 -11 10 -3 6 -1 10 4 10
6 0 11 -4 11 -10z m-1954 -47 c-10 -10 -19 5 -10 18 6 11 8 11 12 0 2 -7 1
-15 -2 -18z m-239 11 c-3 -3 -12 -4 -19 -1 -8 3 -5 6 6 6 11 1 17 -2 13 -5z
m513 -4 c-20 -13 -33 -13 -25 0 3 6 14 10 23 10 15 0 15 -2 2 -10z m-635 -30
c3 -5 -3 -10 -14 -10 -12 0 -21 5 -21 10 0 6 6 10 14 10 8 0 18 -4 21 -10z
m372 -6 c2 -5 -3 -19 -12 -29 -14 -19 -14 -18 -15 13 0 31 18 42 27 16z m368
6 c3 -5 2 -10 -4 -10 -5 0 -13 5 -16 10 -3 6 -2 10 4 10 5 0 13 -4 16 -10z
m-465 -25 c0 -9 -6 -12 -15 -9 -8 4 -15 10 -15 15 0 5 7 9 15 9 8 0 15 -7 15
-15z m380 -56 c0 -7 -60 -3 -68 6 -4 3 -1 10 7 14 12 8 61 -8 61 -20z m-210
-71 c0 -13 -18 -9 -34 7 -8 9 -12 23 -9 32 5 13 9 12 24 -8 10 -13 19 -27 19
-31z m223 27 c-6 -17 -25 -15 -31 3 -2 7 5 12 17 12 14 0 19 -5 14 -15z m-203
-16 c0 -6 -4 -7 -10 -4 -5 3 -10 11 -10 16 0 6 5 7 10 4 6 -3 10 -11 10 -16z
m-890 -14 c0 -21 -2 -24 -14 -13 -7 7 -11 19 -9 25 9 22 23 14 23 -12z m-280
-2 c0 -10 12 -27 27 -37 24 -18 26 -18 35 -1 8 13 12 14 18 5 9 -14 -18 -50
-36 -50 -7 0 -14 7 -18 15 -6 17 -36 21 -36 4 0 -6 -5 -9 -11 -7 -6 2 -9 6 -8
8 1 3 -3 15 -9 27 -7 12 -9 29 -6 37 8 22 44 21 44 -1z m1225 -15 c34 -15 32
-28 -5 -25 -17 1 -30 5 -30 10 0 4 0 12 0 17 0 13 3 13 35 -2z m2725 -18 c0
-5 -4 -10 -10 -10 -5 0 -10 5 -10 10 0 6 5 10 10 10 6 0 10 -4 10 -10z m-3982
-62 c-5 -15 -58 -24 -58 -9 0 11 17 19 43 20 11 1 17 -4 15 -11z m942 -19 c0
-5 -7 -9 -15 -9 -8 0 -15 7 -15 15 0 9 6 12 15 9 8 -4 15 -10 15 -15z m-1100
-19 c0 -10 -26 -20 -34 -13 -14 14 -5 31 14 26 11 -3 20 -9 20 -13z m355 10
c3 -5 -1 -10 -10 -10 -9 0 -13 5 -10 10 3 6 8 10 10 10 2 0 7 -4 10 -10z
m-202 -10 c10 0 17 -8 17 -20 0 -11 -7 -20 -15 -20 -8 0 -15 -5 -15 -11 0 -5
-5 -7 -10 -4 -6 4 -8 10 -5 15 3 5 -3 15 -15 22 -27 17 -26 32 3 24 12 -3 30
-6 40 -6z m85 -8 c4 -14 -34 -16 -42 -3 -6 10 13 21 28 17 6 -1 12 -8 14 -14z
m3982 12 c0 -3 -7 -12 -15 -20 -12 -13 -15 -13 -15 -1 0 7 3 17 7 20 8 8 23 9
23 1z m-3112 -16 c-6 -18 -25 -20 -31 -3 -5 10 0 15 14 15 12 0 19 -5 17 -12z
m-818 -7 c0 -12 -29 -35 -36 -28 -11 10 5 37 21 37 8 0 15 -4 15 -9z m3732 -6
c0 -5 -5 -11 -11 -13 -6 -2 -11 4 -11 13 0 9 5 15 11 13 6 -2 11 -8 11 -13z
m68 5 c0 -5 -4 -10 -10 -10 -5 0 -10 5 -10 10 0 6 5 10 10 10 6 0 10 -4 10
-10z m-3655 -20 c-3 -5 -10 -10 -16 -10 -5 0 -9 5 -9 10 0 6 7 10 16 10 8 0
12 -4 9 -10z m-7 -33 c12 -14 4 -32 -18 -39 -8 -2 4 -8 28 -12 42 -6 43 -7 37
-36 -5 -24 -4 -29 8 -24 11 4 16 -4 19 -30 3 -27 0 -36 -14 -39 -25 -7 -23
-33 4 -51 18 -13 19 -18 9 -30 -11 -13 -9 -17 13 -26 14 -5 26 -16 26 -25 0
-8 9 -20 19 -27 22 -13 17 -38 -8 -38 -9 0 -27 -7 -40 -16 -18 -13 -22 -23
-17 -45 3 -15 1 -31 -4 -34 -16 -10 -32 35 -26 70 4 20 2 36 -4 40 -6 4 -8 14
-6 23 4 13 -6 23 -36 37 -48 23 -58 41 -29 50 25 8 28 47 6 65 -17 14 -3 50
20 50 8 0 15 5 15 10 0 7 -13 8 -34 5 -42 -8 -80 14 -95 56 -15 43 -5 59 38
59 20 0 43 5 51 10 20 13 26 12 38 -3z m-220 -61 c4 -20 -18 -50 -29 -39 -11
12 2 64 15 60 6 -2 12 -11 14 -21z m3712 -23 c5 -5 -21 -23 -35 -23 -5 0 -17
5 -25 10 -13 9 -13 11 0 20 13 8 47 5 60 -7z m-937 0 c-7 -2 -19 -2 -25 0 -7
3 -2 5 12 5 14 0 19 -2 13 -5z m-2443 -54 c0 -5 -7 -9 -15 -9 -15 0 -20 12 -9
23 8 8 24 -1 24 -14z m-274 -26 c-10 -10 -19 5 -10 18 6 11 8 11 12 0 2 -7 1
-15 -2 -18z m3684 17 c0 -5 -5 -10 -11 -10 -5 0 -7 5 -4 10 3 6 8 10 11 10 2
0 4 -4 4 -10z m-3818 -60 c2 -17 10 -26 26 -28 13 -2 22 2 22 10 1 7 7 0 14
-17 7 -16 11 -32 9 -35 -3 -3 -37 -7 -76 -10 -70 -5 -72 -6 -75 -32 -3 -23 2
-30 24 -38 l27 -11 -24 -27 c-35 -39 -43 -43 -55 -27 -17 22 -54 19 -54 -4 0
-10 6 -21 13 -24 8 -3 14 -19 15 -36 0 -17 5 -38 10 -47 9 -16 10 -15 16 4 10
30 34 28 42 -3 5 -18 17 -28 48 -37 22 -7 49 -11 59 -10 9 1 17 -4 17 -12 0
-7 7 -19 15 -26 8 -7 15 -21 15 -32 0 -16 -3 -18 -14 -9 -8 7 -33 14 -56 17
-24 3 -49 11 -56 19 -8 7 -30 19 -49 25 -45 15 -88 78 -79 115 5 19 2 25 -9
25 -20 0 -31 -17 -17 -25 18 -11 -10 -35 -41 -35 -22 0 -30 6 -35 25 -7 28
-16 31 -34 11 -14 -17 -40 -10 -40 10 0 8 8 17 18 21 9 3 25 13 35 21 13 12
22 13 41 4 19 -9 25 -8 30 4 3 8 16 14 30 14 32 0 42 17 22 39 -20 22 -20 30
1 53 13 15 14 23 5 43 -11 24 -10 25 23 25 19 0 46 -5 60 -12 31 -14 43 -4 27
22 -10 17 -8 24 10 45 24 28 35 23 40 -15z m1235 34 c-3 -3 -12 -4 -19 -1 -8
3 -5 6 6 6 11 1 17 -2 13 -5z m2581 -31 c2 -20 10 -33 20 -36 13 -4 13 -5 -3
-6 -11 0 -31 -8 -43 -17 -12 -8 -22 -10 -22 -5 0 6 5 11 10 11 6 0 8 19 6 46
-4 38 -2 45 12 42 11 -2 18 -15 20 -35z m-3668 -4 c0 -10 -4 -19 -10 -19 -5 0
-10 12 -10 26 0 14 4 23 10 19 6 -3 10 -15 10 -26z m600 17 c0 -3 -4 -8 -10
-11 -5 -3 -10 -1 -10 4 0 6 5 11 10 11 6 0 10 -2 10 -4z m1025 -36 c11 -17 -5
-32 -21 -19 -7 6 -11 15 -8 20 7 12 21 11 29 -1z m-1039 -48 c-4 -3 -12 0 -19
7 -9 9 -9 14 3 21 11 7 16 5 18 -6 2 -9 1 -18 -2 -22z m-516 -127 c-9 -24 -30
-35 -30 -15 0 6 5 10 11 10 6 0 9 5 7 11 -2 6 -7 10 -12 9 -5 -1 -12 4 -16 10
-11 17 -79 17 -91 0 -8 -12 -9 -9 -7 10 3 22 8 25 48 28 24 2 48 9 52 15 6 9
8 9 8 0 0 -7 5 -13 10 -13 6 0 10 11 10 25 0 16 -6 25 -15 25 -21 0 -19 28 3
32 14 3 18 -7 24 -59 5 -36 4 -73 -2 -88z m600 101 c0 -11 -19 -15 -25 -6 -3
5 1 10 9 10 9 0 16 -2 16 -4z m-330 -16 c0 -5 -5 -10 -11 -10 -5 0 -7 5 -4 10
3 6 8 10 11 10 2 0 4 -4 4 -10z m3398 -15 c6 -14 7 -25 2 -25 -14 0 -41 31
-35 41 10 15 21 10 33 -16z m-3850 8 c0 -5 2 -16 7 -26 9 -22 1 -32 -20 -24
-20 8 -20 57 0 57 8 0 14 -3 13 -7z m905 -13 c3 -11 1 -33 -3 -48 -5 -15 -9
-20 -9 -9 -2 28 -21 19 -22 -10 l-2 -28 -4 28 c-2 15 -9 25 -14 22 -13 -9 -11
22 3 45 16 26 44 26 51 0z m-289 -5 c3 -9 0 -15 -8 -15 -8 0 -16 7 -20 15 -3
9 0 15 8 15 8 0 16 -7 20 -15z m206 -5 c-19 -13 -30 -13 -30 0 0 6 10 10 23
10 18 0 19 -2 7 -10z m330 -65 c-7 -9 -15 -13 -17 -11 -7 7 7 26 19 26 6 0 6
-6 -2 -15z m-1142 -53 c4 -27 27 -39 45 -23 10 8 22 7 45 -1 39 -15 40 -21 7
-36 -14 -6 -25 -18 -25 -27 0 -22 -15 -18 -36 10 -15 20 -25 24 -45 20 -28 -6
-59 17 -39 30 5 3 10 17 10 31 0 33 34 29 38 -4z m172 12 c0 -8 -4 -12 -10 -9
-5 3 -10 10 -10 16 0 5 5 9 10 9 6 0 10 -7 10 -16z m48 -70 c-4 -23 -48 -32
-48 -10 0 8 7 22 16 31 19 19 38 7 32 -21z m679 30 c-3 -3 -12 -4 -19 -1 -8 3
-5 6 6 6 11 1 17 -2 13 -5z m-1237 -43 c0 -4 -6 -8 -14 -8 -8 0 -12 6 -9 14 5
13 23 9 23 -6z m3710 -22 c0 -5 -4 -9 -10 -9 -5 0 -10 7 -10 16 0 8 5 12 10 9
6 -3 10 -10 10 -16z m-3655 -20 c10 -15 -1 -23 -20 -15 -9 3 -13 10 -10 16 8
13 22 13 30 -1z m472 5 c-3 -3 -12 -4 -19 -1 -8 3 -5 6 6 6 11 1 17 -2 13 -5z
m3223 -14 c0 -5 -4 -10 -10 -10 -5 0 -10 5 -10 10 0 6 5 10 10 10 6 0 10 -4
10 -10z m-510 -45 c10 -13 9 -15 -9 -15 -12 0 -21 6 -21 15 0 8 4 15 9 15 5 0
14 -7 21 -15z m-3124 -7 c4 -5 -9 -8 -29 -8 -20 0 -37 3 -37 8 0 4 13 7 29 7
16 0 33 -3 37 -7z m3344 -17 c0 -6 -4 -13 -10 -16 -5 -3 -10 1 -10 9 0 9 5 16
10 16 6 0 10 -4 10 -9z m-1880 -11 c0 -5 -4 -10 -10 -10 -5 0 -10 5 -10 10 0
6 5 10 10 10 6 0 10 -4 10 -10z m2145 -19 c-6 -5 -21 -12 -35 -16 -22 -7 -23
-6 -11 9 7 9 23 16 34 16 13 0 17 -4 12 -9z m-3290 -41 c3 -5 -3 -10 -15 -10
-12 0 -18 5 -15 10 3 6 10 10 15 10 5 0 12 -4 15 -10z m2522 -22 c21 -30 22
-48 2 -48 -5 0 -9 7 -9 15 0 8 -4 15 -9 15 -5 0 -11 11 -13 25 -7 33 2 31 29
-7z m586 17 c-4 -15 -36 -12 -41 3 -3 9 3 13 19 10 13 -1 23 -7 22 -13z m374
-1 c-3 -3 -12 -4 -19 -1 -8 3 -5 6 6 6 11 1 17 -2 13 -5z m-1137 -14 c0 -5 -6
-10 -14 -10 -8 0 -18 5 -21 10 -3 6 3 10 14 10 12 0 21 -4 21 -10z m-170 -10
c11 -7 9 -11 -13 -19 -46 -18 -52 -15 -41 13 7 18 31 21 54 6z m600 -5 c59 4
64 0 34 -30 -28 -28 -59 -33 -68 -10 -3 8 -15 15 -26 15 -22 0 -23 1 -14 24 4
11 10 13 18 7 6 -5 31 -8 56 -6z m-100 -17 c0 -4 -9 -8 -20 -8 -11 0 -20 4
-20 9 0 6 9 9 20 8 11 -1 20 -5 20 -9z m660 -18 c0 -5 -4 -10 -10 -10 -5 0
-10 5 -10 10 0 6 5 10 10 10 6 0 10 -4 10 -10z m-3467 -37 c-7 -2 -19 -2 -25
0 -7 3 -2 5 12 5 14 0 19 -2 13 -5z m2294 1 c-3 -3 -12 -4 -19 -1 -8 3 -5 6 6
6 11 1 17 -2 13 -5z m-2420 -20 c-3 -3 -12 -4 -19 -1 -8 3 -5 6 6 6 11 1 17
-2 13 -5z m131 -1 c-10 -2 -26 -2 -35 0 -10 3 -2 5 17 5 19 0 27 -2 18 -5z
m2099 1 c-3 -3 -12 -4 -19 -1 -8 3 -5 6 6 6 11 1 17 -2 13 -5z"/>
<path d="M11730 5860 c0 -5 12 -10 26 -10 14 0 23 4 19 10 -3 6 -15 10 -26 10
-10 0 -19 -4 -19 -10z"/>
<path d="M9766 4063 c6 -4 13 -16 17 -26 6 -15 9 -16 21 -5 17 15 11 23 -24
33 -14 3 -20 3 -14 -2z"/>
<path d="M9550 3341 c0 -6 4 -13 10 -16 6 -3 7 1 4 9 -7 18 -14 21 -14 7z"/>
<path d="M9590 3340 c0 -6 7 -10 15 -10 8 0 15 2 15 4 0 2 -7 6 -15 10 -8 3
-15 1 -15 -4z"/>
<path d="M9750 3330 c0 -5 5 -10 11 -10 5 0 7 5 4 10 -3 6 -8 10 -11 10 -2 0
-4 -4 -4 -10z"/>
<path d="M9664 3308 c3 -15 26 -23 26 -8 0 6 -4 9 -9 6 -5 -4 -12 -1 -14 4 -3
6 -4 5 -3 -2z"/>
<path d="M9450 1654 c0 -8 9 -14 20 -14 11 0 20 4 20 9 0 5 -9 11 -20 14 -13
3 -20 0 -20 -9z"/>
<path d="M9427 1340 c6 -21 28 -27 38 -9 8 12 6 15 -22 23 -18 6 -20 4 -16
-14z"/>
<path d="M8350 541 c0 -24 14 -41 34 -41 12 0 16 3 10 8 -6 4 -13 15 -17 25
-7 18 -27 24 -27 8z"/>
<path d="M10656 7029 c-14 -11 -26 -24 -26 -29 0 -12 59 12 64 27 9 22 -11 23
-38 2z"/>
<path d="M11250 7015 c-10 -12 -10 -19 -2 -27 9 -9 12 -8 12 5 0 9 5 17 10 17
6 0 10 5 10 10 0 15 -16 12 -30 -5z"/>
<path d="M11331 6991 c-16 -28 -14 -31 15 -31 20 0 25 4 22 22 -4 29 -24 34
-37 9z"/>
<path d="M11009 6991 c-1 -6 -2 -17 -3 -23 -1 -7 -5 -16 -9 -19 -5 -3 -5 -18
-2 -32 7 -26 8 -26 36 -11 27 13 28 16 14 30 -8 9 -15 24 -15 34 0 20 -19 38
-21 21z"/>
<path d="M2311 6934 c0 -11 3 -14 6 -6 3 7 2 16 -1 19 -3 4 -6 -2 -5 -13z"/>
<path d="M10837 6938 c-10 -31 44 -74 66 -52 9 9 -12 46 -22 39 -5 -3 -11 2
-15 10 -7 18 -23 20 -29 3z"/>
<path d="M10600 6930 c0 -5 5 -10 10 -10 6 0 10 5 10 10 0 6 -4 10 -10 10 -5
0 -10 -4 -10 -10z"/>
<path d="M11410 6910 c0 -36 13 -38 35 -8 14 21 14 23 -2 30 -30 11 -33 9 -33
-22z"/>
<path d="M10728 6923 c7 -3 16 -2 19 1 4 3 -2 6 -13 5 -11 0 -14 -3 -6 -6z"/>
<path d="M11525 6900 c4 -6 11 -8 16 -5 14 9 11 15 -7 15 -8 0 -12 -5 -9 -10z"/>
<path d="M11010 6871 c0 -5 7 -11 15 -15 8 -3 15 -1 15 3 0 5 -7 11 -15 15 -8
3 -15 1 -15 -3z"/>
<path d="M11470 6871 c0 -4 11 -6 25 -3 14 2 25 6 25 8 0 2 -11 4 -25 4 -14 0
-25 -4 -25 -9z"/>
<path d="M10742 6834 c-11 -8 -20 -23 -19 -33 1 -24 27 -15 27 9 0 10 8 20 18
22 10 2 13 6 6 10 -6 4 -20 1 -32 -8z"/>
<path d="M11033 6823 c-12 -4 -19 -53 -9 -53 19 0 56 22 56 34 0 11 -24 29
-33 25 -1 0 -8 -3 -14 -6z"/>
<path d="M2305 6800 c-3 -5 -1 -10 4 -10 6 0 11 5 11 10 0 6 -2 10 -4 10 -3 0
-8 -4 -11 -10z"/>
<path d="M11477 6804 c-11 -11 5 -34 24 -34 22 0 24 11 7 28 -13 13 -22 15
-31 6z"/>
<path d="M11212 6773 c2 -11 14 -19 31 -21 23 -3 28 0 25 15 -2 11 -14 19 -31
21 -23 3 -28 0 -25 -15z"/>
<path d="M11377 6753 c-8 -8 -9 -53 -1 -53 18 0 44 24 44 40 0 20 -29 28 -43
13z"/>
<path d="M10620 6710 c0 -5 5 -10 10 -10 6 0 10 5 10 10 0 6 -4 10 -10 10 -5
0 -10 -4 -10 -10z"/>
<path d="M2310 6701 c0 -6 5 -13 10 -16 6 -3 10 1 10 9 0 9 -4 16 -10 16 -5 0
-10 -4 -10 -9z"/>
<path d="M11134 6699 c-3 -6 -1 -16 5 -22 8 -8 11 -5 11 11 0 24 -5 28 -16 11z"/>
<path d="M11327 6696 c-6 -15 1 -26 15 -26 11 0 10 27 -1 34 -5 3 -11 0 -14
-8z"/>
<path d="M11184 6662 c4 -7 16 -12 27 -12 10 0 19 -4 19 -10 0 -5 7 -10 15
-10 8 0 15 7 15 15 0 8 -8 15 -17 15 -10 0 -29 3 -42 7 -17 4 -22 3 -17 -5z"/>
<path d="M11390 6490 c0 -5 5 -10 10 -10 6 0 10 5 10 10 0 6 -4 10 -10 10 -5
0 -10 -4 -10 -10z"/>
<path d="M11233 6475 c-18 -8 -33 -18 -33 -24 0 -19 21 -23 39 -7 10 9 23 16
29 16 7 0 12 7 12 15 0 18 -6 18 -47 0z"/>
<path d="M11552 6478 c-13 -7 -26 -24 -29 -41 -4 -18 -15 -32 -29 -38 -13 -4
-24 -13 -24 -19 0 -12 40 -13 60 0 9 5 19 5 27 -2 9 -7 17 -7 29 3 14 11 14
13 0 21 -25 14 -19 26 15 33 24 6 34 3 41 -9 11 -20 34 -21 41 -2 9 22 -24 45
-55 39 -21 -4 -28 -1 -28 11 0 18 -15 19 -48 4z"/>
<path d="M11435 6470 c-9 -14 42 -43 62 -35 17 6 17 7 1 19 -10 7 -15 16 -11
19 3 4 -5 7 -20 7 -14 0 -28 -4 -32 -10z"/>
<path d="M10890 6360 c0 -5 5 -10 10 -10 6 0 10 5 10 10 0 6 -4 10 -10 10 -5
0 -10 -4 -10 -10z"/>
<path d="M10877 6313 c-26 -7 -17 -37 12 -41 32 -5 48 12 31 33 -7 8 -15 14
-19 14 -3 -1 -14 -3 -24 -6z"/>
<path d="M11126 6301 c-8 -13 3 -38 20 -45 8 -3 14 -15 14 -26 0 -22 25 -28
33 -7 3 6 6 -3 6 -20 1 -27 -3 -33 -19 -33 -11 0 -20 5 -20 10 0 18 -30 11
-64 -15 -18 -14 -43 -25 -54 -25 -22 0 -30 -14 -14 -24 5 -3 42 -8 83 -11 41
-3 76 -10 77 -15 3 -7 8 -7 15 -1 18 14 69 1 63 -15 -3 -8 -1 -14 4 -14 6 0
10 4 10 10 0 5 7 7 15 4 11 -5 15 1 15 17 -1 36 -25 62 -50 54 -28 -9 -55 12
-39 31 6 8 8 14 4 14 -4 0 -2 7 5 15 10 12 9 20 -6 42 -15 23 -19 25 -22 10
-5 -22 -22 -12 -22 13 0 11 -9 24 -19 30 -24 12 -28 12 -35 1z"/>
<path d="M11276 6229 c3 -5 0 -9 -6 -9 -6 0 -8 -4 -5 -10 9 -15 45 -12 45 4 0
7 -9 16 -20 19 -11 3 -18 1 -14 -4z"/>
<path d="M2420 6221 c0 -6 5 -13 10 -16 6 -3 10 1 10 9 0 9 -4 16 -10 16 -5 0
-10 -4 -10 -9z"/>
<path d="M2460 6208 c0 -19 2 -20 10 -8 13 19 13 30 0 30 -5 0 -10 -10 -10
-22z"/>
<path d="M10894 6195 c-5 -13 2 -25 27 -46 18 -15 36 -24 39 -19 3 4 16 10 30
11 14 2 26 11 28 19 2 11 -8 15 -44 16 -33 1 -51 6 -60 19 -13 17 -14 17 -20
0z"/>
<path d="M11370 6160 c-13 -8 -12 -10 3 -10 9 0 17 5 17 10 0 12 -1 12 -20 0z"/>
<path d="M11276 5996 c-31 -36 -32 -42 -8 -55 14 -8 15 -13 5 -30 -16 -26 -16
-31 0 -31 21 0 44 31 52 68 3 17 10 32 14 32 4 0 7 9 8 19 3 34 -41 32 -71 -3z"/>
<path d="M2456 5972 c-3 -6 -1 -14 5 -17 15 -10 25 3 12 16 -7 7 -13 7 -17 1z"/>
<path d="M10770 5915 c0 -2 9 -9 20 -15 16 -9 18 -8 14 5 -5 13 -34 22 -34 10z"/>
<path d="M10915 5901 c-10 -17 15 -63 31 -57 7 3 15 0 18 -7 2 -7 5 -5 5 4 1
9 -6 19 -14 23 -9 3 -19 15 -24 27 -5 16 -10 19 -16 10z"/>
<path d="M11061 5894 c0 -11 3 -14 6 -6 3 7 2 16 -1 19 -3 4 -6 -2 -5 -13z"/>
<path d="M10837 5883 c-4 -3 -7 -11 -7 -17 0 -6 5 -5 12 2 6 6 9 14 7 17 -3 3
-9 2 -12 -2z"/>
<path d="M11120 5864 c0 -9 5 -14 12 -12 18 6 21 28 4 28 -9 0 -16 -7 -16 -16z"/>
<path d="M11145 5790 c-3 -5 1 -10 9 -10 9 0 16 5 16 10 0 6 -4 10 -9 10 -6 0
-13 -4 -16 -10z"/>
<path d="M11135 5740 c-10 -17 5 -30 34 -30 33 0 42 7 34 26 -6 16 -59 19 -68
4z"/>
<path d="M11066 5664 c-10 -26 -7 -44 8 -44 14 0 26 21 26 46 0 19 -26 18 -34
-2z"/>
<path d="M11094 5615 c-7 -18 3 -35 22 -35 8 0 14 10 14 25 0 27 -27 35 -36
10z"/>
<path d="M11163 5535 c-3 -9 -3 -18 0 -21 10 -10 47 7 47 22 0 19 -39 18 -47
-1z"/>
<path d="M11080 5520 c0 -5 9 -10 20 -10 11 0 20 5 20 10 0 6 -9 10 -20 10
-11 0 -20 -4 -20 -10z"/>
<path d="M2513 5513 c-15 -5 -18 -73 -4 -73 17 0 33 29 26 49 -4 14 -1 21 12
24 15 4 15 5 -2 5 -11 0 -26 -2 -32 -5z"/>
<path d="M11280 5450 c0 -5 7 -10 15 -10 8 0 18 0 22 -1 4 0 9 4 11 10 2 6 -8
11 -22 11 -14 0 -26 -4 -26 -10z"/>
<path d="M11600 5429 c0 -8 12 -19 26 -26 31 -14 29 3 -4 25 -18 12 -22 12
-22 1z"/>
<path d="M11130 5384 c0 -9 5 -14 12 -12 18 6 21 28 4 28 -9 0 -16 -7 -16 -16z"/>
<path d="M10840 5365 c0 -8 5 -15 10 -15 6 0 10 7 10 15 0 8 -4 15 -10 15 -5
0 -10 -7 -10 -15z"/>
<path d="M11047 5363 c-12 -12 -7 -22 8 -17 8 4 15 10 15 15 0 11 -14 12 -23
2z"/>
<path d="M10435 5340 c3 -5 8 -10 11 -10 2 0 4 5 4 10 0 6 -5 10 -11 10 -5 0
-7 -4 -4 -10z"/>
<path d="M11365 5329 c-4 -6 -4 -13 -1 -16 8 -8 36 5 36 17 0 13 -27 13 -35
-1z"/>
<path d="M10920 5311 c-8 -3 -15 -15 -15 -26 0 -11 -6 -21 -12 -21 -7 -1 -18
-2 -24 -3 -6 0 -9 -10 -6 -21 3 -13 -1 -21 -14 -25 -25 -8 -24 -27 3 -44 l22
-14 -22 -8 c-27 -10 -21 -29 9 -29 10 0 19 -4 19 -10 0 -5 7 -7 15 -3 9 3 23
-1 33 -10 9 -8 34 -22 55 -30 30 -13 37 -14 37 -2 0 20 -48 73 -80 90 -23 12
-28 21 -27 46 2 29 27 57 27 30 0 -16 26 -13 44 5 20 19 20 34 2 34 -8 0 -17
9 -21 19 -7 22 -24 31 -45 22z"/>
<path d="M11095 5310 c-3 -5 3 -10 15 -10 12 0 18 5 15 10 -3 6 -10 10 -15 10
-5 0 -12 -4 -15 -10z"/>
<path d="M10803 5290 c-13 -5 -23 -14 -23 -20 0 -17 24 -22 51 -11 13 5 18 10
10 10 -11 1 -11 4 -1 16 15 18 0 20 -37 5z"/>
<path d="M11030 5243 c0 -12 8 -29 17 -39 16 -16 18 -15 31 5 16 23 32 28 32
8 0 -7 8 -20 19 -29 10 -8 21 -22 23 -29 3 -8 8 -11 12 -8 11 10 -5 38 -26 45
-11 3 -17 9 -12 13 5 3 15 16 22 29 11 20 10 22 -15 23 -99 6 -103 5 -103 -18z"/>
<path d="M10770 5162 c0 -14 11 -21 26 -15 21 8 17 23 -6 23 -11 0 -20 -4 -20
-8z"/>
<path d="M2620 5110 c0 -19 3 -21 12 -12 9 9 9 15 0 24 -9 9 -12 7 -12 -12z"/>
<path d="M10828 5093 c-10 -2 -18 -11 -18 -19 0 -22 44 -14 48 9 4 17 1 18
-30 10z"/>
<path d="M10835 5011 c-3 -5 -1 -12 5 -16 5 -3 10 1 10 9 0 18 -6 21 -15 7z"/>
<path d="M11132 4918 c6 -18 28 -21 28 -4 0 9 -7 16 -16 16 -9 0 -14 -5 -12
-12z"/>
<path d="M10613 4866 c4 -10 7 -26 7 -36 0 -24 30 -34 48 -16 17 17 8 36 -19
36 -10 0 -18 5 -16 11 1 6 -4 14 -12 17 -10 3 -12 0 -8 -12z"/>
<path d="M10831 4871 c-9 -6 -11 -16 -7 -27 7 -18 8 -18 22 0 23 32 16 46 -15
27z"/>
<path d="M10335 4851 c-3 -5 -1 -12 5 -16 5 -3 10 1 10 9 0 18 -6 21 -15 7z"/>
<path d="M10710 4816 c0 -19 5 -26 20 -26 17 0 19 3 10 19 -16 32 -30 34 -30
7z"/>
<path d="M10500 4820 c0 -5 5 -10 11 -10 5 0 7 5 4 10 -3 6 -8 10 -11 10 -2 0
-4 -4 -4 -10z"/>
<path d="M10587 4785 c6 -17 25 -15 31 3 2 7 -5 12 -17 12 -14 0 -19 -5 -14
-15z"/>
<path d="M11075 4790 c3 -5 8 -10 11 -10 2 0 4 5 4 10 0 6 -5 10 -11 10 -5 0
-7 -4 -4 -10z"/>
<path d="M10913 4765 c-3 -9 -3 -19 1 -22 7 -7 36 16 36 28 0 15 -30 10 -37
-6z"/>
<path d="M10560 4740 c0 -5 5 -10 10 -10 6 0 10 5 10 10 0 6 -4 10 -10 10 -5
0 -10 -4 -10 -10z"/>
<path d="M11088 4733 c6 -2 18 -2 25 0 6 3 1 5 -13 5 -14 0 -19 -2 -12 -5z"/>
<path d="M10535 4710 c4 -6 11 -8 16 -5 14 9 11 15 -7 15 -8 0 -12 -5 -9 -10z"/>
<path d="M10939 4699 c-14 -21 -33 -109 -24 -109 2 0 16 5 30 12 26 12 31 43
16 97 l-7 24 -15 -24z"/>
<path d="M10445 4680 c3 -5 8 -10 11 -10 2 0 4 5 4 10 0 6 -5 10 -11 10 -5 0
-7 -4 -4 -10z"/>
<path d="M10470 4660 c0 -5 5 -10 10 -10 6 0 10 5 10 10 0 6 -4 10 -10 10 -5
0 -10 -4 -10 -10z"/>
<path d="M10652 4638 c-18 -18 -15 -30 7 -23 12 3 21 0 25 -10 3 -8 12 -15 21
-15 18 0 20 -21 3 -38 -9 -9 -9 -12 0 -12 7 0 12 5 12 10 0 6 7 10 15 10 19 0
20 16 1 23 -8 3 -20 18 -28 34 -15 31 -37 40 -56 21z"/>
<path d="M10298 4633 c7 -3 16 -2 19 1 4 3 -2 6 -13 5 -11 0 -14 -3 -6 -6z"/>
<path d="M10997 4606 c4 -21 1 -25 -23 -28 -15 -2 -30 -9 -32 -17 -4 -11 2
-12 23 -7 19 5 31 3 36 -6 6 -10 11 -10 20 -1 8 8 8 20 -1 47 -13 40 -30 49
-23 12z"/>
<path d="M10501 4552 c-14 -26 -14 -32 1 -32 6 0 8 3 5 7 -4 3 -2 12 5 20 6 7
8 16 5 19 -3 3 -10 -3 -16 -14z"/>
<path d="M10905 4550 c-3 -5 1 -10 9 -10 9 0 16 5 16 10 0 6 -4 10 -9 10 -6 0
-13 -4 -16 -10z"/>
<path d="M10706 4497 c-29 -21 -10 -44 37 -45 39 -1 40 0 19 11 -16 10 -19 16
-11 24 6 6 17 9 23 7 7 -3 23 0 37 5 20 8 15 10 -32 10 -30 1 -63 -5 -73 -12z"/>
<path d="M2752 4335 c0 -16 2 -22 5 -12 2 9 2 23 0 30 -3 6 -5 -1 -5 -18z"/>
<path d="M2676 4283 c-4 -9 -2 -21 4 -27 7 -7 10 -2 10 17 0 31 -5 34 -14 10z"/>
<path d="M2795 3580 c3 -5 8 -10 11 -10 2 0 4 5 4 10 0 6 -5 10 -11 10 -5 0
-7 -4 -4 -10z"/>
<path d="M2946 3237 c-5 -21 -6 -41 -2 -44 12 -12 17 5 14 43 l-4 39 -8 -38z"/>
<path d="M3080 2739 c0 -11 5 -17 10 -14 6 3 10 13 10 21 0 8 -4 14 -10 14 -5
0 -10 -9 -10 -21z"/>
<path d="M8050 2680 c0 -5 4 -10 9 -10 6 0 13 5 16 10 3 6 -1 10 -9 10 -9 0
-16 -4 -16 -10z"/>
<path d="M8878 2673 c12 -2 30 -2 40 0 9 3 -1 5 -23 4 -22 0 -30 -2 -17 -4z"/>
<path d="M9700 2590 c0 -5 5 -10 11 -10 5 0 7 5 4 10 -3 6 -8 10 -11 10 -2 0
-4 -4 -4 -10z"/>
<path d="M10080 2549 c0 -11 5 -17 10 -14 6 3 10 13 10 21 0 8 -4 14 -10 14
-5 0 -10 -9 -10 -21z"/>
<path d="M10028 2514 c5 -39 -1 -40 -41 -5 -16 13 -19 13 -27 1 -5 -9 -4 -20
2 -28 9 -10 8 -16 -3 -23 -10 -6 -7 -9 14 -9 15 0 27 5 27 10 0 6 5 10 11 10
7 0 8 -12 5 -32 -6 -31 -5 -31 5 -8 6 14 12 31 13 39 1 7 13 19 27 27 20 11
21 13 6 14 -11 0 -21 9 -24 20 -9 34 -19 22 -15 -16z"/>
<path d="M9100 2433 c0 -15 2 -16 10 -3 7 11 10 11 10 2 0 -7 5 -10 11 -6 8 4
7 9 -2 15 -21 13 -29 11 -29 -8z"/>
<path d="M3105 2400 c-3 -5 -1 -10 4 -10 6 0 11 5 11 10 0 6 -2 10 -4 10 -3 0
-8 -4 -11 -10z"/>
<path d="M9940 2387 c-31 -16 -37 -37 -11 -37 12 0 21 6 21 14 0 8 6 16 13 19
6 2 10 7 7 10 -3 3 -16 1 -30 -6z"/>
<path d="M10080 2391 c0 -6 5 -13 10 -16 6 -3 10 1 10 9 0 9 -4 16 -10 16 -5
0 -10 -4 -10 -9z"/>
<path d="M8445 2370 c3 -5 8 -10 11 -10 2 0 4 5 4 10 0 6 -5 10 -11 10 -5 0
-7 -4 -4 -10z"/>
<path d="M9490 2370 c0 -5 11 -10 25 -10 14 0 25 5 25 10 0 6 -11 10 -25 10
-14 0 -25 -4 -25 -10z"/>
<path d="M8900 2360 c0 -5 10 -10 23 -10 18 0 19 2 7 10 -19 13 -30 13 -30 0z"/>
<path d="M9191 2361 c-10 -6 -10 -10 -1 -16 13 -8 24 -1 19 14 -3 6 -10 7 -18
2z"/>
<path d="M9370 2344 c0 -8 5 -12 10 -9 6 3 10 10 10 16 0 5 -4 9 -10 9 -5 0
-10 -7 -10 -16z"/>
<path d="M9140 2340 c0 -5 5 -10 10 -10 6 0 10 5 10 10 0 6 -4 10 -10 10 -5 0
-10 -4 -10 -10z"/>
<path d="M9533 2323 c9 -9 19 -14 23 -11 10 10 -6 28 -24 28 -15 0 -15 -1 1
-17z"/>
<path d="M9227 2323 c-4 -3 -7 -11 -7 -17 0 -6 5 -5 12 2 6 6 9 14 7 17 -3 3
-9 2 -12 -2z"/>
<path d="M9946 2321 c-3 -5 1 -11 9 -15 9 -3 15 0 15 9 0 16 -16 20 -24 6z"/>
<path d="M9771 2244 c0 -11 3 -14 6 -6 3 7 2 16 -1 19 -3 4 -6 -2 -5 -13z"/>
<path d="M8855 2200 c3 -5 10 -10 16 -10 5 0 9 5 9 10 0 6 -7 10 -16 10 -8 0
-12 -4 -9 -10z"/>
<path d="M9940 2200 c0 -5 5 -10 11 -10 5 0 7 5 4 10 -3 6 -8 10 -11 10 -2 0
-4 -4 -4 -10z"/>
<path d="M8995 2150 c-4 -11 -11 -18 -16 -15 -5 4 -9 2 -9 -4 0 -5 6 -14 14
-18 8 -4 16 -17 19 -28 3 -11 5 -3 4 17 -1 20 2 40 6 44 10 10 9 24 -2 24 -5
0 -13 -9 -16 -20z"/>
<path d="M9210 2145 c0 -8 7 -15 15 -15 8 0 15 4 15 9 0 5 -7 11 -15 15 -9 3
-15 0 -15 -9z"/>
<path d="M5573 2068 c-16 -17 -38 -41 -50 -54 -13 -13 -23 -29 -23 -35 0 -7
-7 -20 -15 -29 -9 -10 -18 -41 -22 -70 -6 -50 -5 -52 15 -45 30 9 28 -6 -12
-89 -57 -120 -64 -139 -72 -196 -3 -30 -13 -64 -20 -75 -8 -11 -14 -30 -14
-43 0 -13 -6 -35 -14 -50 -13 -26 -39 -115 -55 -192 -5 -19 -16 -51 -26 -71
-18 -38 -15 -102 6 -115 19 -11 99 18 111 40 16 31 27 36 88 36 34 0 64 6 78
16 21 14 24 13 54 -15 18 -17 40 -31 48 -31 9 0 34 18 55 40 39 40 39 40 117
40 l78 0 0 27 c0 15 -6 45 -14 68 -8 22 -24 76 -36 120 -12 44 -31 107 -41
140 -10 33 -26 87 -35 120 -9 33 -24 85 -34 115 -10 30 -21 72 -24 92 -4 21
-10 39 -14 42 -4 2 -37 6 -72 7 -111 5 -114 39 -4 39 54 0 63 3 80 26 19 25
32 42 67 83 21 26 21 35 1 66 -15 23 -22 25 -95 25 -76 0 -80 -1 -106 -32z
m184 -754 c-3 -3 -12 -4 -19 -1 -8 3 -5 6 6 6 11 1 17 -2 13 -5z"/>
<path d="M8653 2063 c9 -2 25 -2 35 0 9 3 1 5 -18 5 -19 0 -27 -2 -17 -5z"/>
<path d="M8955 2060 c-3 -5 -2 -10 4 -10 5 0 13 5 16 10 3 6 2 10 -4 10 -5 0
-13 -4 -16 -10z"/>
<path d="M9393 2053 c-7 -3 -13 -11 -13 -19 0 -9 5 -12 10 -9 6 3 10 -1 10
-10 0 -9 -4 -13 -10 -10 -5 3 -10 -3 -10 -15 0 -12 5 -18 10 -15 6 3 10 1 10
-5 0 -6 5 -8 10 -5 6 3 10 -3 10 -14 0 -12 -7 -21 -15 -21 -8 0 -15 -7 -15
-15 0 -18 26 -20 37 -2 9 14 11 77 2 77 -3 0 -10 15 -15 34 -5 20 -14 31 -21
29z"/>
<path d="M8065 2012 c-27 -5 -55 -37 -55 -61 0 -11 -5 -21 -11 -23 -8 -3 -13
-53 -16 -148 -3 -80 -7 -147 -9 -149 -2 -2 -4 70 -4 162 0 91 -4 168 -9 171
-4 3 -48 8 -97 12 -49 3 -91 8 -93 10 -2 2 -10 -1 -18 -7 -8 -7 -52 -11 -114
-10 -68 1 -99 -1 -94 -8 3 -6 1 -11 -5 -11 -6 0 -18 -16 -26 -36 -11 -26 -15
-81 -16 -222 0 -109 -5 -190 -10 -193 -7 -4 -6 -13 0 -26 6 -10 13 -41 15 -68
3 -28 6 -50 7 -50 1 0 3 -7 5 -16 1 -10 12 -26 23 -37 11 -11 28 -32 38 -47 9
-14 20 -23 23 -18 9 13 87 53 102 53 8 0 20 9 27 20 7 11 19 20 27 20 8 0 14
5 13 12 -3 13 33 26 79 27 46 1 97 60 117 136 3 11 4 -1 2 -27 -2 -26 -1 -46
3 -44 3 2 7 -17 9 -42 2 -26 5 -48 7 -50 2 -3 25 -7 50 -9 25 -3 48 -10 51
-14 3 -5 19 -9 35 -9 17 0 28 -4 25 -9 -3 -4 3 -16 13 -25 18 -17 19 -16 26
13 7 32 19 40 29 19 3 -7 3 -1 0 15 -5 21 -2 27 11 27 9 0 24 7 33 16 14 15
14 17 -1 26 -30 16 -18 25 46 34 60 9 62 10 65 41 l3 31 -62 -5 c-45 -5 -60
-3 -55 5 4 7 3 12 -1 12 -10 0 -9 142 1 159 5 7 24 12 45 11 58 -3 61 -2 61
31 0 30 0 30 -50 28 -27 -2 -52 -1 -55 2 -2 3 -7 47 -9 97 l-5 92 64 0 65 0 0
33 0 33 -65 -4 c-35 -2 -81 2 -101 8 -38 13 -104 18 -139 12z m-88 -459 c-3
-10 -5 -4 -5 12 0 17 2 24 5 18 2 -7 2 -21 0 -30z"/>
<path d="M7068 1944 c-4 -3 -12 -7 -20 -8 -29 -6 -48 -19 -53 -37 -4 -10 -12
-19 -19 -19 -7 0 -18 -10 -24 -22 -7 -13 -16 -30 -21 -38 -42 -65 -70 -150
-72 -210 -4 -204 14 -280 91 -377 22 -27 33 -33 88 -39 52 -5 62 -4 62 9 0 18
48 29 72 16 10 -5 27 -5 42 1 27 10 67 45 65 57 -4 19 60 42 117 42 60 1 62 2
67 31 7 33 0 60 -20 75 -14 11 -14 40 2 65 5 7 11 62 13 120 6 134 -17 213
-81 280 -38 41 -45 44 -93 45 -29 0 -47 3 -41 7 7 4 -29 8 -79 8 -50 0 -93 -3
-96 -6z m94 -254 c-3 -20 2 -37 13 -50 9 -10 14 -23 11 -29 -3 -5 0 -12 6 -15
10 -5 10 -7 -1 -12 -11 -5 -11 -8 0 -15 11 -7 11 -9 1 -9 -7 0 -21 -14 -31
-31 l-19 -31 -7 67 c-5 43 -4 75 4 91 6 14 11 36 11 50 0 14 4 23 8 20 5 -3 7
-19 4 -36z"/>
<path d="M3240 1891 c0 -34 2 -38 20 -34 11 3 21 8 21 12 5 22 5 51 1 47 -2
-3 -13 -1 -23 5 -17 9 -19 6 -19 -30z"/>
<path d="M8492 1900 c0 -14 2 -19 5 -12 2 6 2 18 0 25 -3 6 -5 1 -5 -13z"/>
<path d="M6108 1885 c-30 -17 -74 -76 -106 -144 -20 -41 -31 -154 -19 -201 8
-33 31 -70 44 -70 7 0 13 -4 13 -8 0 -4 18 -19 40 -32 22 -14 40 -29 40 -33 0
-5 5 -5 11 -1 13 8 29 -13 29 -38 0 -15 -9 -18 -52 -18 -62 -1 -83 -15 -116
-80 -34 -69 -30 -102 21 -145 38 -33 47 -36 86 -32 23 3 56 14 72 26 15 12 33
21 39 21 6 0 23 11 38 25 19 18 38 25 65 25 71 0 118 41 144 125 16 50 16 122
1 166 -12 36 -63 89 -85 89 -7 0 -13 4 -13 9 0 5 -8 12 -19 16 -45 14 -81 67
-81 120 0 36 36 55 105 55 90 0 111 33 57 90 -31 32 -53 37 -207 46 -60 3 -87
1 -107 -11z m239 -631 c-3 -3 -12 -4 -19 -1 -8 3 -5 6 6 6 11 1 17 -2 13 -5z"/>
<path d="M4938 1836 c-10 -7 -18 -18 -18 -25 0 -6 -4 -11 -8 -11 -5 0 -17 -18
-27 -40 -10 -23 -28 -52 -41 -65 -19 -20 -45 -68 -69 -125 -3 -8 -12 -25 -19
-37 l-13 -23 -21 30 c-12 16 -22 32 -22 35 0 3 -27 62 -61 130 l-61 125 -79 0
c-67 0 -81 -3 -85 -17 -4 -10 -22 -48 -40 -85 l-35 -67 -2 -374 c-2 -407 -2
-407 53 -407 19 0 40 12 64 36 20 20 36 39 36 44 0 4 34 10 76 13 42 3 78 7
80 9 2 2 4 18 6 36 1 18 7 32 14 32 6 0 25 14 42 30 33 31 69 39 89 19 7 -7
10 -30 7 -58 -4 -38 -1 -51 18 -74 32 -39 71 -44 88 -12 7 14 17 25 22 25 4 0
8 5 8 11 0 27 30 39 98 39 39 0 72 4 74 10 2 5 2 190 0 410 l-2 400 -78 0
c-48 -1 -84 -6 -94 -14z"/>
<path d="M8260 1560 c0 -5 5 -10 10 -10 6 0 10 5 10 10 0 6 -4 10 -10 10 -5 0
-10 -4 -10 -10z"/>
<path d="M3419 1475 c-3 -5 -4 -29 -1 -52 4 -42 14 -54 27 -33 4 6 11 8 16 5
5 -4 9 1 9 10 0 9 -4 14 -9 11 -12 -8 -28 14 -33 44 -1 14 -6 21 -9 15z"/>
<path d="M9025 1440 c-3 -5 -1 -10 4 -10 6 0 11 5 11 10 0 6 -2 10 -4 10 -3 0
-8 -4 -11 -10z"/>
<path d="M8380 1386 c0 -2 7 -6 15 -10 8 -3 15 -1 15 4 0 6 -7 10 -15 10 -8 0
-15 -2 -15 -4z"/>
<path d="M8377 1290 c3 -11 0 -20 -6 -20 -6 0 -11 -5 -11 -10 0 -11 50 -34 58
-26 10 10 -9 56 -27 66 -16 8 -18 7 -14 -10z"/>
<path d="M8920 1295 c0 -8 2 -15 4 -15 2 0 6 7 10 15 3 8 1 15 -4 15 -6 0 -10
-7 -10 -15z"/>
<path d="M8562 1283 c-4 -10 -16 -18 -27 -18 -21 0 -31 -25 -21 -52 6 -14 10
-13 29 6 13 11 28 21 34 21 6 0 14 6 16 13 3 6 6 2 6 -10 1 -12 -7 -26 -16
-32 -10 -5 -15 -13 -11 -17 4 -4 18 0 30 8 13 8 50 18 82 21 61 6 83 17 72 36
-10 16 -56 13 -62 -4 -4 -8 -11 -15 -16 -15 -6 0 -8 7 -4 15 4 11 -2 15 -20
15 -14 0 -32 7 -40 15 -20 20 -43 19 -52 -2z"/>
<path d="M7976 1273 c-9 -22 10 -41 26 -25 6 6 13 19 14 27 3 21 -32 19 -40
-2z"/>
<path d="M8967 1261 c4 -15 1 -21 -10 -21 -8 0 -17 5 -19 11 -3 9 -10 9 -26 0
-18 -10 -28 -9 -52 6 -16 9 -33 14 -37 9 -11 -11 12 -40 33 -42 67 -3 74 -5
74 -19 0 -9 9 -15 25 -15 14 0 37 -7 50 -16 20 -13 28 -14 51 -2 30 14 44 38
22 38 -7 0 -22 7 -32 15 -16 12 -17 17 -6 30 10 12 10 15 -3 15 -8 0 -28 3
-45 6 -28 6 -30 4 -25 -15z"/>
<path d="M9075 1240 c-3 -5 3 -10 15 -10 12 0 18 5 15 10 -3 6 -10 10 -15 10
-5 0 -12 -4 -15 -10z"/>
<path d="M7688 1233 c7 -3 16 -2 19 1 4 3 -2 6 -13 5 -11 0 -14 -3 -6 -6z"/>
<path d="M7985 1221 c-3 -5 -1 -12 5 -16 5 -3 10 1 10 9 0 18 -6 21 -15 7z"/>
<path d="M8395 1200 c-3 -5 3 -10 14 -10 12 0 21 5 21 10 0 6 -6 10 -14 10 -8
0 -18 -4 -21 -10z"/>
<path d="M8695 1200 c3 -5 8 -10 11 -10 2 0 4 5 4 10 0 6 -5 10 -11 10 -5 0
-7 -4 -4 -10z"/>
<path d="M9320 1180 c-19 -15 -21 -20 -9 -20 9 0 31 -3 48 -6 26 -6 31 -4 31
14 0 17 -18 32 -38 32 -4 0 -18 -9 -32 -20z"/>
<path d="M8013 1183 c-20 -7 -15 -23 7 -23 11 0 20 4 20 9 0 13 -12 19 -27 14z"/>
<path d="M7956 1171 c-4 -6 2 -19 14 -31 19 -19 20 -19 20 -1 0 23 -25 46 -34
32z"/>
<path d="M8905 1170 c-3 -5 1 -10 9 -10 9 0 16 5 16 10 0 6 -4 10 -9 10 -6 0
-13 -4 -16 -10z"/>
<path d="M8406 1143 c-13 -17 -15 -28 -8 -35 15 -15 42 -2 42 19 0 35 -14 42
-34 16z"/>
<path d="M8081 1151 c-7 -5 -10 -14 -6 -20 5 -9 10 -9 21 0 26 22 14 38 -15
20z"/>
<path d="M9257 1153 c-4 -3 -7 -15 -7 -25 0 -18 1 -18 32 -2 30 16 31 18 13
25 -26 10 -30 10 -38 2z"/>
<path d="M7746 1074 c-9 -22 -8 -24 9 -24 8 0 15 9 15 20 0 24 -15 27 -24 4z"/>
<path d="M9020 1070 c0 -5 7 -7 15 -4 8 4 15 8 15 10 0 2 -7 4 -15 4 -8 0 -15
-4 -15 -10z"/>
<path d="M9048 1053 c7 -3 16 -2 19 1 4 3 -2 6 -13 5 -11 0 -14 -3 -6 -6z"/>
<path d="M7685 1000 c-7 -21 0 -40 16 -40 5 0 9 14 9 30 0 34 -15 40 -25 10z"/>
<path d="M8110 1002 c0 -6 5 -14 10 -17 35 -22 -15 -48 -64 -34 -27 8 -41 7
-52 -2 -18 -15 -19 -53 -1 -43 6 4 8 3 4 -2 -4 -4 -27 -18 -49 -29 -23 -12
-43 -26 -45 -32 -6 -17 29 -25 46 -10 9 8 30 19 46 24 17 5 34 19 40 31 5 12
19 22 31 22 11 0 31 11 44 25 14 15 35 25 52 25 34 0 38 25 6 33 -13 3 -33 9
-45 12 -14 5 -23 3 -23 -3z"/>
<path d="M9160 997 c0 -20 38 -57 58 -56 14 0 14 2 -3 9 -15 6 -7 9 30 9 l50
1 -35 22 c-42 26 -100 35 -100 15z"/>
<path d="M8351 854 c0 -11 3 -14 6 -6 3 7 2 16 -1 19 -3 4 -6 -2 -5 -13z"/>
<path d="M8177 804 c-6 -6 11 -63 22 -76 3 -4 12 -4 19 1 9 5 10 15 3 32 -10
28 -35 52 -44 43z"/>
<path d="M8077 776 c-3 -8 1 -17 9 -20 26 -10 34 -7 34 14 0 23 -35 28 -43 6z"/>
<path d="M7896 762 c-16 -19 -16 -20 6 -26 36 -9 40 -8 36 16 -4 29 -21 33
-42 10z"/>
<path d="M8010 668 c0 -7 4 -19 9 -26 6 -10 10 -7 13 12 4 18 1 26 -8 26 -8 0
-14 -6 -14 -12z"/>
<path d="M7353 615 c2 -20 37 -35 37 -16 0 6 -6 11 -14 11 -8 0 -17 6 -20 13
-3 6 -5 3 -3 -8z"/>
<path d="M7234 505 l-31 -35 26 0 c18 0 30 8 39 27 25 54 10 58 -34 8z"/>
<path d="M7541 501 c-18 -12 -5 -31 20 -31 14 0 19 6 17 17 -4 20 -18 26 -37
14z"/>
<path d="M7148 493 c7 -3 16 -2 19 1 4 3 -2 6 -13 5 -11 0 -14 -3 -6 -6z"/>
<path d="M7891 428 c-1 -30 0 -31 23 -22 20 8 21 24 2 24 -8 0 -17 6 -19 13
-3 6 -6 0 -6 -15z"/>
<path d="M7020 420 c0 -5 7 -10 15 -10 8 0 15 5 15 10 0 6 -7 10 -15 10 -8 0
-15 -4 -15 -10z"/>
<path d="M7073 406 c2 -6 14 -13 28 -14 13 -2 30 -9 37 -15 11 -9 13 -6 10 12
-2 19 -10 24 -41 26 -24 1 -36 -2 -34 -9z"/>
<path d="M7665 381 c-3 -5 -1 -12 5 -16 5 -3 10 1 10 9 0 18 -6 21 -15 7z"/>
<path d="M7843 383 c-21 -8 -15 -33 7 -33 13 0 20 7 20 20 0 20 -5 23 -27 13z"/>
<path d="M7695 350 c3 -5 11 -10 16 -10 6 0 7 5 4 10 -3 6 -11 10 -16 10 -6 0
-7 -4 -4 -10z"/>
<path d="M8072 281 c4 -21 53 -22 53 -1 0 10 -10 15 -28 16 -20 1 -27 -3 -25
-15z"/>
<path d="M7037 274 c-13 -13 -7 -24 14 -24 11 0 19 5 17 12 -5 14 -22 21 -31
12z"/>
<path d="M6935 240 c-4 -6 6 -10 22 -10 22 0 25 2 13 10 -19 12 -27 12 -35 0z"/>
<path d="M8070 181 c0 -26 -40 -32 -100 -15 -34 9 -64 14 -67 10 -4 -4 3 -9
15 -13 12 -3 22 -12 22 -19 0 -23 48 -40 71 -26 30 19 44 14 24 -8 -10 -11
-27 -20 -38 -20 -13 0 -17 -5 -13 -16 3 -9 6 -20 6 -25 0 -4 7 -6 15 -3 8 4
21 2 28 -3 8 -7 21 -6 38 1 19 8 25 18 25 41 -1 35 23 44 61 24 27 -15 53 0
31 18 -20 16 -78 26 -78 14 0 -6 -4 -11 -10 -11 -5 0 -7 7 -4 15 3 8 -1 22
-10 30 -9 9 -16 12 -16 6z"/>
<path d="M3796 173 c-11 -11 -6 -23 9 -23 8 0 15 4 15 9 0 13 -16 22 -24 14z"/>
<path d="M7770 170 c-54 -15 -66 -22 -78 -41 -18 -28 14 -25 60 6 20 14 42 25
47 25 6 0 11 5 11 10 0 11 -3 11 -40 0z"/>
<path d="M3835 149 c-8 -12 14 -31 30 -26 6 2 10 10 10 18 0 17 -31 24 -40 8z"/>
<path d="M7326 151 c-9 -15 23 -36 36 -23 5 5 7 15 4 21 -9 13 -33 14 -40 2z"/>
<path d="M6820 106 c0 -21 5 -26 24 -26 47 0 45 30 -1 45 -20 5 -23 3 -23 -19z"/>
<path d="M7373 65 c-6 -7 -13 -21 -15 -31 -2 -16 4 -19 42 -22 33 -2 41 0 30
8 -8 5 -10 10 -4 10 6 0 11 7 11 15 0 20 -49 36 -64 20z"/>
<path d="M3893 50 c-10 -11 -25 -20 -35 -20 -10 0 -18 -3 -18 -7 0 -7 47 -9
88 -4 17 2 15 38 -3 45 -9 3 -23 -3 -32 -14z"/>
<path d="M6680 30 c0 -5 5 -10 10 -10 6 0 10 5 10 10 0 6 -4 10 -10 10 -5 0
-10 -4 -10 -10z"/>
<path d="M7935 20 c4 -6 11 -8 16 -5 14 9 11 15 -7 15 -8 0 -12 -5 -9 -10z"/>
</g>
</svg>
