<?xml version="1.0" standalone="no"?>
<!DOCTYPE svg PUBLIC "-//W3C//DTD SVG 20010904//EN"
 "http://www.w3.org/TR/2001/REC-SVG-20010904/DTD/svg10.dtd">
<svg version="1.0" xmlns="http://www.w3.org/2000/svg"
 width="341.000000pt" height="377.000000pt" viewBox="0 0 341.000000 377.000000"
 preserveAspectRatio="xMidYMid meet">

<g transform="translate(0.000000,377.000000) scale(0.100000,-0.100000)"
fill="#000000" stroke="none">
<path d="M1410 3680 c0 -7 -180 -10 -519 -10 -519 0 -646 -6 -703 -36 -32 -16
-77 -72 -76 -94 1 -8 0 -26 -1 -40 -2 -23 -3 -23 -10 -5 -5 11 -6 -15 -3 -57
4 -69 3 -78 -13 -78 -9 0 -15 -6 -12 -12 2 -7 10 -12 16 -11 8 2 11 -356 11
-1362 0 -1207 -2 -1365 -15 -1365 -8 0 -15 -7 -15 -15 0 -8 7 -15 16 -15 14 0
16 -11 12 -70 -2 -40 0 -64 5 -57 5 7 6 1 2 -16 -4 -19 -2 -26 4 -22 6 3 8 0
5 -8 -7 -18 48 -83 88 -103 15 -8 65 -19 110 -25 46 -6 86 -16 90 -22 5 -9 10
-9 20 1 9 9 126 12 507 12 l494 0 -20 22 c-12 13 -23 32 -25 43 -3 20 -12 20
-545 21 -515 2 -544 3 -575 21 -18 10 -43 34 -55 53 -22 32 -23 42 -23 241 l0
207 63 9 c55 8 68 6 114 -15 43 -19 55 -21 71 -11 11 7 27 9 36 6 18 -7 64
-101 86 -172 11 -38 55 -84 67 -71 4 3 -4 19 -18 34 -27 30 -87 197 -75 209 4
4 12 -1 18 -11 6 -10 18 -25 27 -32 101 -87 114 -87 56 0 -19 29 -35 62 -35
72 0 32 -130 134 -170 134 -10 0 -22 5 -25 10 -10 15 -34 12 -63 -9 -29 -20
-139 -81 -147 -81 -10 0 -4 39 15 95 11 33 19 64 17 70 -2 5 -11 -10 -20 -35
-15 -45 -15 -44 -16 117 -1 137 1 162 13 157 8 -3 17 -12 20 -20 3 -9 10 -12
16 -9 5 3 10 1 10 -4 0 -6 -6 -11 -12 -11 -10 0 -10 -2 0 -9 11 -7 10 -15 -3
-47 -38 -89 -38 -92 -4 -55 32 35 32 35 25 7 -9 -36 0 -49 25 -35 19 10 19 8
13 -55 l-7 -65 29 8 c16 4 34 6 40 4 7 -2 9 12 7 39 -2 24 1 55 6 70 5 15 6
30 1 33 -15 9 -5 82 14 100 10 10 15 26 13 36 -3 10 -1 33 3 51 7 28 8 29 9 7
1 -14 5 -29 11 -35 5 -5 14 -43 20 -84 12 -86 58 -227 77 -234 7 -3 12 -2 10
2 -1 4 9 25 22 47 22 38 36 126 33 217 -1 19 4 28 14 28 8 0 14 6 13 13 -1 6
1 20 5 29 7 14 11 15 38 4 17 -8 35 -21 40 -30 5 -9 16 -16 23 -16 8 0 15 -8
15 -19 0 -21 46 -71 66 -71 7 0 19 -6 26 -12 22 -22 48 -21 48 1 0 11 -4 23
-10 26 -5 3 -10 15 -10 26 0 14 7 19 26 19 26 0 58 23 47 34 -4 3 4 17 17 31
23 25 23 25 2 25 -11 0 -24 -5 -27 -11 -10 -15 -39 18 -53 60 -7 19 -12 35
-12 35 0 1 15 3 33 4 17 2 49 7 71 13 21 6 41 8 44 4 3 -3 -4 -8 -16 -12 -12
-3 -22 -10 -22 -15 0 -5 4 -6 10 -3 5 3 10 0 10 -9 0 -8 -6 -17 -12 -20 -7 -3
0 -3 17 0 30 6 48 22 39 36 -3 4 6 10 19 13 15 4 32 22 45 49 24 47 31 55 124
155 92 98 108 119 108 139 0 10 7 28 16 41 15 21 15 24 1 38 -12 12 -13 21 -5
39 12 26 23 30 34 12 10 -17 25 28 18 56 -3 14 2 30 15 45 13 15 21 38 21 62
0 21 4 40 9 43 12 8 20 55 10 62 -15 9 -10 51 6 58 8 3 15 14 15 25 0 17 -29
40 -31 23 -2 -26 -10 -60 -18 -77 -5 -11 -14 -47 -20 -80 -6 -33 -15 -61 -21
-63 -5 -2 -10 -11 -10 -20 -1 -23 -20 -45 -52 -59 -16 -7 -28 -17 -28 -23 0
-6 -12 -9 -27 -7 -23 3 -29 9 -31 36 -2 23 -12 37 -33 50 -16 10 -26 21 -21
26 4 4 -3 4 -15 1 -12 -4 -24 -2 -27 3 -4 5 -20 8 -36 6 -17 -2 -30 0 -30 5 0
5 -6 7 -14 4 -19 -7 -30 14 -16 31 17 21 -7 30 -79 28 -50 -1 -71 3 -100 21
-20 12 -44 20 -53 18 -23 -5 -23 15 0 27 10 5 19 23 20 43 3 33 2 33 -16 13
-26 -28 -67 -154 -54 -167 17 -17 2 -38 -28 -38 -15 0 -45 -13 -67 -29 -23
-16 -44 -27 -48 -23 -3 3 -3 -1 1 -11 3 -10 1 -17 -5 -17 -6 0 -11 4 -11 10 0
5 -7 7 -15 4 -11 -5 -15 1 -15 25 0 21 -5 31 -15 31 -9 0 -19 10 -24 23 -5 12
-21 37 -34 55 -14 19 -35 59 -47 90 -31 81 -34 87 -59 90 -16 3 -21 10 -21 33
0 24 4 29 25 29 16 0 25 6 25 15 0 20 49 40 64 25 5 -5 22 -10 37 -10 15 0 31
-5 34 -10 5 -8 11 -8 19 -1 7 6 17 7 22 3 4 -4 3 0 -4 9 -18 23 9 47 28 24 7
-8 26 -15 41 -15 25 0 30 5 35 29 6 27 8 29 30 19 13 -6 24 -17 24 -25 0 -7
11 -13 25 -13 15 0 25 -6 25 -15 0 -9 6 -12 15 -9 8 4 15 1 15 -7 0 -7 3 -9 7
-5 4 4 6 28 4 54 -1 36 -8 52 -26 67 -14 12 -25 26 -25 32 0 17 -85 40 -172
48 -70 5 -81 4 -107 -16 -29 -21 -30 -21 -48 -4 -12 13 -14 20 -6 22 9 3 11
18 6 49 -3 24 -2 44 3 44 6 0 15 20 23 44 15 52 43 80 137 135 58 34 91 45
175 61 57 10 137 28 176 39 l73 20 67 -26 c38 -14 87 -30 111 -37 23 -6 42
-17 42 -24 0 -9 11 -13 33 -11 18 2 38 0 45 -5 15 -9 16 -58 0 -74 -9 -9 -9
-12 3 -12 32 0 66 -113 74 -251 11 -164 16 -199 31 -199 8 0 14 4 14 9 0 5 3
16 6 24 3 9 -3 16 -15 20 -26 7 -28 43 -2 56 10 6 21 20 24 31 4 16 0 20 -20
20 -21 0 -24 4 -21 28 4 36 39 38 48 2 4 -14 10 64 14 173 4 109 5 201 2 205
-2 4 -5 39 -7 77 -2 39 -10 81 -18 95 -28 46 -83 110 -96 110 -6 0 -19 8 -28
18 -13 15 -14 21 -4 31 10 11 8 12 -10 6 -18 -5 -25 -1 -32 17 -12 32 -57 78
-75 78 -9 0 -44 13 -78 29 -35 15 -70 31 -78 34 -8 3 38 6 102 6 107 1 119 3
142 24 14 12 29 38 34 57 l8 35 105 0 c119 0 158 -15 194 -75 20 -34 20 -50
23 -992 l2 -958 40 0 40 0 0 889 c0 702 3 890 13 894 9 4 9 7 -1 15 -7 5 -15
40 -19 83 -6 82 -26 130 -71 172 -31 30 -66 41 -169 52 -35 4 -63 11 -63 16 0
5 -7 9 -15 9 -8 0 -15 -4 -15 -10z m-912 -102 c7 -7 12 -23 12 -35 0 -13 11
-35 25 -48 19 -20 34 -25 75 -25 32 0 49 -4 45 -10 -3 -5 -18 -10 -33 -10 -19
0 -23 -3 -13 -9 9 -6 -1 -13 -37 -25 -27 -9 -58 -26 -67 -36 -10 -11 -22 -20
-27 -20 -14 0 -88 -72 -118 -115 -78 -114 -115 -212 -112 -305 2 -52 5 -71 14
-85 4 -6 9 -51 13 -100 3 -50 8 -116 11 -149 4 -50 3 -58 -10 -53 -27 10 -46
-21 -46 -74 0 -54 48 -213 82 -273 25 -43 50 -60 41 -28 -3 13 2 21 16 25 25
6 31 0 31 -30 0 -14 -6 -23 -16 -23 -11 0 -14 -8 -12 -27 2 -22 8 -28 25 -26
28 3 43 -35 20 -52 -10 -7 -13 -20 -10 -38 6 -30 7 -31 33 -17 15 8 22 6 34
-12 14 -19 14 -23 -1 -33 -14 -10 -20 -9 -36 9 -10 11 -16 17 -14 11 48 -105
50 -113 55 -212 4 -94 3 -104 -18 -130 -12 -15 -41 -57 -63 -93 -36 -56 -53
-71 -125 -112 -46 -26 -88 -46 -93 -42 -14 8 -12 2020 2 2084 12 58 53 105
102 119 48 14 201 13 215 -1z m1219 -493 c-1 -214 -2 -352 -4 -305 -7 196 -7
728 -1 712 4 -9 6 -192 5 -407z m-897 120 c0 -20 -5 -25 -24 -25 -13 0 -27 7
-30 16 -9 22 -9 22 22 27 15 2 28 5 30 6 1 0 2 -10 2 -24z m140 5 c0 -17 -7
-20 -40 -20 -33 0 -40 3 -40 20 0 17 7 20 40 20 33 0 40 -3 40 -20z m98 4 c24
-7 26 -12 13 -33 -12 -19 -51 -4 -51 20 0 21 3 22 38 13z m-344 -39 c6 -16
-28 -40 -44 -30 -14 9 -12 32 3 38 22 10 35 7 41 -8z m450 -1 c18 -7 21 -30 6
-39 -16 -10 -50 14 -44 30 7 16 14 18 38 9z m-550 -50 c6 -15 -17 -43 -35 -44
-17 0 -18 34 -2 46 24 18 30 17 37 -2z m651 -19 c17 -13 17 -17 5 -29 -13 -13
-18 -13 -34 -1 -11 8 -16 21 -13 30 8 19 16 19 42 0z m-737 -57 c19 -19 -14
-50 -39 -35 -17 10 -17 13 -2 29 19 21 25 22 41 6z m815 -26 c13 -14 14 -21 5
-30 -17 -17 -26 -15 -38 8 -20 37 5 53 33 22z m-885 -61 c12 -7 12 -12 1 -30
-15 -23 -18 -24 -38 -12 -10 7 -11 13 -2 30 13 23 19 25 39 12z m950 -36 c10
-21 9 -26 -7 -34 -15 -8 -20 -6 -29 13 -7 17 -7 27 1 35 16 16 23 14 35 -14z
m-1000 -64 c8 -5 11 -17 7 -33 -5 -19 -12 -24 -26 -21 -21 6 -21 8 -13 41 7
24 12 26 32 13z m1037 -51 c0 -32 -30 -39 -38 -9 -8 28 0 41 21 37 11 -2 17
-13 17 -28z m-1061 -56 c9 -3 16 -17 16 -30 0 -19 -5 -24 -25 -24 -20 0 -25 5
-25 23 0 34 8 41 34 31z m1080 -40 c12 -31 6 -44 -19 -44 -20 0 -25 5 -25 23
0 38 32 53 44 21z m-1074 -94 c0 -23 -4 -30 -20 -30 -36 0 -25 55 13 59 4 1 7
-12 7 -29z m0 -110 c0 -23 -4 -30 -20 -30 -16 0 -20 7 -20 30 0 23 4 30 20 30
16 0 20 -7 20 -30z m0 -220 c0 -23 -4 -30 -20 -30 -16 0 -20 7 -20 30 0 23 4
30 20 30 16 0 20 -7 20 -30z m537 -130 c-47 -25 -59 -25 -28 0 13 11 33 20 44
20 17 0 13 -5 -16 -20z m110 -95 c12 -4 24 -14 27 -22 5 -12 1 -14 -20 -9 -14
4 -31 3 -37 -2 -24 -19 -78 -22 -107 -7 -16 8 -44 15 -62 15 -30 1 -31 2 -15
14 11 9 29 11 55 6 22 -4 49 -2 67 6 30 12 50 12 92 -1z m76 -110 c-2 -16 -4
-35 -5 -41 -1 -11 -46 -7 -63 7 -20 15 -66 18 -142 9 -95 -10 -108 -7 -87 25
17 26 59 32 219 31 l80 -1 -2 -30z m-569 -64 c15 -16 15 -19 1 -31 -21 -18
-61 16 -44 37 15 17 23 17 43 -6z m591 -11 c3 -5 1 -10 -4 -10 -6 0 -11 5 -11
10 0 6 2 10 4 10 3 0 8 -4 11 -10z m154 -3 c8 -11 6 -18 -8 -31 -16 -15 -19
-15 -31 -1 -10 12 -10 18 0 30 15 19 24 19 39 2z m-670 -61 c11 -13 5 -46 -9
-46 -4 0 -14 8 -23 18 -13 14 -14 21 -5 30 15 15 23 15 37 -2z m341 -21 c0 -8
-7 -15 -16 -15 -14 0 -14 3 -4 15 7 8 14 15 16 15 2 0 4 -7 4 -15z m253 1 c3
-8 -2 -21 -12 -30 -16 -15 -19 -15 -31 -1 -10 12 -10 18 0 30 16 19 36 19 43
1z m-509 -55 c15 -16 15 -19 1 -31 -13 -11 -19 -11 -31 2 -8 8 -12 22 -8 31 8
22 17 21 38 -2z m423 -16 c3 -9 -2 -22 -13 -30 -17 -12 -21 -12 -32 3 -11 14
-10 19 5 29 22 17 32 16 40 -2z m-328 -44 c14 -9 9 -41 -7 -41 -17 0 -45 27
-38 38 9 14 26 15 45 3z m235 -16 c5 -14 -20 -35 -43 -35 -15 0 -14 37 2 43
22 10 35 7 41 -8z m-114 -35 c0 -16 -7 -20 -30 -20 -18 0 -30 5 -30 13 0 20
10 27 37 27 16 0 23 -6 23 -20z m-464 -671 c13 -21 -6 -21 -35 1 -17 12 -31
28 -31 36 0 12 6 11 30 -6 16 -11 32 -26 36 -31z"/>
<path d="M1124 2649 c-88 -10 -124 -23 -125 -46 -1 -10 -2 -33 -4 -50 -1 -18
1 -33 6 -33 5 0 9 -7 9 -15 0 -9 9 -15 25 -15 16 0 23 4 19 13 -3 8 1 19 9 25
11 9 16 7 25 -13 15 -32 64 -35 85 -5 13 18 16 19 27 5 13 -16 37 -19 64 -9
14 5 13 9 -2 32 l-16 25 52 -7 c41 -5 52 -4 52 7 0 18 -28 43 -60 52 -14 4
-36 16 -49 26 -13 11 -29 18 -35 18 -6 -1 -43 -5 -82 -10z"/>
<path d="M1501 2536 c-8 -14 -12 -29 -8 -32 7 -7 29 34 25 47 -2 6 -10 -1 -17
-15z"/>
<path d="M1771 2514 c0 -11 3 -14 6 -6 3 7 2 16 -1 19 -3 4 -6 -2 -5 -13z"/>
<path d="M1324 1463 c0 -99 -4 -128 -23 -178 -32 -85 -50 -164 -39 -171 28
-17 91 95 102 182 9 62 -8 224 -27 259 -12 24 -14 16 -13 -92z"/>
<path d="M1636 1284 c-53 -36 -67 -79 -62 -182 3 -63 11 -105 29 -147 13 -33
32 -83 41 -112 17 -50 19 -52 62 -59 73 -11 108 1 131 44 37 67 51 133 58 264
2 53 -2 81 -16 114 -25 55 -41 71 -88 84 -74 20 -119 18 -155 -6z m208 -116
c21 -33 33 -103 16 -93 -20 12 -82 7 -97 -8 -8 -7 -11 -20 -8 -28 5 -13 14
-14 55 -5 66 13 74 5 59 -62 -10 -51 -29 -77 -37 -54 -2 7 -12 12 -22 12 -9 0
-23 6 -29 14 -17 20 -63 14 -91 -12 -13 -12 -27 -22 -32 -22 -13 0 -37 44 -44
79 l-7 33 57 -3 c56 -4 57 -3 54 21 -3 23 -8 25 -55 28 -47 3 -53 5 -53 26 0
39 25 60 92 77 93 24 125 23 142 -3z m-66 -285 c-16 -2 -40 -2 -55 0 -16 2 -3
4 27 4 30 0 43 -2 28 -4z"/>
<path d="M1350 1100 c-9 -16 -8 -18 5 -14 8 4 15 12 15 20 0 20 -7 17 -20 -6z"/>
<path d="M1240 1049 c-19 -12 -36 -21 -37 -20 -11 5 -33 -1 -33 -10 0 -13 -21
-35 -35 -36 -13 0 -31 -30 -23 -38 3 -4 19 0 35 8 44 22 93 29 93 13 0 -17 28
-30 58 -27 13 2 33 -5 43 -15 17 -16 22 -16 29 -4 18 28 10 51 -36 100 -26 28
-49 50 -53 50 -3 0 -22 -10 -41 -21z"/>
<path d="M1050 916 c0 -8 -3 -16 -7 -19 -5 -2 -2 -2 5 0 8 1 22 3 33 3 10 0
19 7 19 15 0 9 -9 15 -25 15 -15 0 -25 -6 -25 -14z"/>
<path d="M600 746 c0 -2 8 -10 18 -17 15 -13 16 -12 3 4 -13 16 -21 21 -21 13z"/>
<path d="M580 543 c0 -6 8 -17 18 -24 16 -13 16 -13 2 6 -8 11 -16 22 -17 24
-2 2 -3 0 -3 -6z"/>
</g>
</svg>
