<?xml version="1.0" standalone="no"?>
<!DOCTYPE svg PUBLIC "-//W3C//DTD SVG 20010904//EN"
 "http://www.w3.org/TR/2001/REC-SVG-20010904/DTD/svg10.dtd">
<svg version="1.0" xmlns="http://www.w3.org/2000/svg"
 width="256.000000pt" height="80.000000pt" viewBox="0 0 256.000000 80.000000"
 preserveAspectRatio="xMidYMid meet">

<g transform="translate(0.000000,80.000000) scale(0.100000,-0.100000)"
fill="#000000" stroke="none">
<path d="M123 695 c-28 -20 -42 -63 -31 -101 15 -56 23 -59 242 -64 l201 -5 7
-198 c8 -213 10 -220 62 -242 36 -15 79 -3 101 28 23 33 22 558 -1 581 -23 23
-548 24 -581 1z"/>
<path d="M810 405 l0 -165 40 0 40 0 0 65 c0 49 3 65 14 65 8 0 38 -29 66 -65
51 -64 52 -65 101 -65 27 0 49 2 49 5 0 3 -29 41 -65 84 l-64 78 65 79 66 79
-48 3 c-45 3 -52 0 -78 -30 -75 -86 -88 -98 -96 -93 -6 4 -10 33 -10 66 l0 59
-40 0 -40 0 0 -165z"/>
<path d="M1160 405 l0 -166 42 3 42 3 0 45 1 45 42 3 c62 5 83 -10 83 -58 0
-40 0 -40 40 -40 l40 0 0 54 c0 45 -4 58 -22 70 -19 13 -19 16 -5 22 21 8 36
59 30 101 -3 17 -16 42 -30 55 -22 21 -35 23 -144 26 l-119 4 0 -167z m194 89
c19 -19 21 -54 3 -78 -10 -13 -24 -17 -62 -14 -47 3 -50 5 -53 32 -2 15 -1 39
2 52 6 21 12 24 50 24 27 0 51 -6 60 -16z"/>
<path d="M1573 551 c-60 -28 -78 -61 -78 -146 0 -121 52 -164 198 -165 l77 0
0 35 0 35 -73 0 c-75 0 -117 16 -117 46 0 11 19 14 95 14 l95 0 0 35 0 35 -95
0 c-76 0 -95 3 -95 14 0 30 42 46 117 46 l73 0 0 35 0 35 -77 0 c-55 0 -90 -6
-120 -19z"/>
<path d="M1810 404 l0 -166 95 4 c75 3 101 8 122 24 40 29 63 81 63 139 0 62
-25 113 -69 142 -29 20 -47 23 -122 23 l-89 0 0 -166z m170 86 c27 -14 42 -77
30 -121 -12 -42 -43 -62 -91 -57 l-34 3 -3 79 c-2 44 -1 85 2 93 6 15 69 18
96 3z"/>
<path d="M2130 415 c0 -85 0 -158 0 -162 0 -5 15 -9 35 -11 l35 -3 0 165 0
166 -35 0 -35 0 0 -155z"/>
<path d="M2240 535 l0 -35 51 0 50 0 -2 -127 -1 -128 36 -3 36 -3 0 130 0 131
50 0 50 0 0 35 0 35 -135 0 -135 0 0 -35z"/>
</g>
</svg>
